<svg xmlns="http://www.w3.org/2000/svg" width="64" height="46" fill="none"><g clip-path="url(#a)"><path fill="#fff" stroke="#fff" stroke-width=".5" d="M19.5 22.7c0 .6.6.8 1 1l.4.3.1.2.2.1.4.3c.3.2.6.1.9 0h.1v.1l.1.2c.2.3.5.4.9.4v.1l.1.5v1c0 .3.2.6.5.9l.3.1.2.1h.2l.2.3v.1l.4.8.2.2.1.1.3.4.5 1.4.2.5h-1.2a.7.7 0 0 0-.5 0h-.4v-.3l-.3-.1s-.3-.1-.4 0h-.2a2 2 0 0 0-1 1.9V33.9l-.2.1a2 2 0 0 0-.3.3c-.3.3-.4.6-.4.8l-.1.2-.2.6-.2.2h-.2c-.3 0-.7.2-.7.5v.3l.1.1.1.2.4.3.3.1a15.2 15.2 0 0 1 1.3.5c.3 0 .6 0 .8-.3l.4-.2.2-.2c.2-.2.4-.2.6-.2.4 0 .7.3.8.6a.5.5 0 0 0 .8.3c0-.1.1-.3 0-.4-.1-1-1.2-1.7-2.2-1.4l-.8.5-.5.4h-.2l-.2-.2a2 2 0 0 0-.2-.1c.1-.2.3-.3.3-.5.2-.2.2-.5.3-.7v-.2l.5-.6.5-.6c.2-.4.1-.7 0-1 0-.3 0-.5.2-.7h.2c.3.3.7.3 1 .2h.1c.2.1.4.2.6.1h.2v-.1h.5c.3.2.7.2 1 0 .2 0 .3-.3.3-.5v-.5l-.2-.5-.6-1.8-.6-.8-.2-.2v-.1l-.1-.2a12 12 0 0 0-.1-.4l-.6-.5a2.4 2.4 0 0 0-.4-.2L25 27V26c0-.4 0-.8-.2-1.2 0-.2-.2-.4-.4-.5l-.5-.1-.2-.1V24a7.6 7.6 0 0 0-.3-.3c-.2-.3-.7-.5-1.2-.3l-.5-.2-.4-.2H21l-.3-.2c-.2 0-.4-.2-.5-.4H20l-.3-.2-.2.1-.1.3ZM27 32Z"/><path fill="#fff" stroke="#fff" stroke-width=".5" d="M32.3 31.2v-.3c-.8 0-1.6.1-2.4.5-.3.1-.6.3-.8.6-.2.1-.3.3-.3.5h-.2l.2.1v.5l.2.3h.2c.3 0 .5.3.4.5l-.1.2-.4.1h-.4l-.6.1c-.1 0-.3 0-.4.2h-.2a3 3 0 0 1 0 .1.5.5 0 0 0-1 .1h-.2l.2.3-.2.3-.1-.2h-.1a.5.5 0 0 0-.5 0c-.2 0-.4.1-.3.4h-.1v.2l.4 2.2c0 .2.3.3.4.2.2 0 .4-.1.4-.3v-1.2c.2 0 .4 0 .4-.3l.1-.1h.2L27 36l.2-.5h.2l.5-.1h.1l.2-.2a2.3 2.3 0 0 1 .7 0c.3 0 .6 0 1-.2.4-.3.7-.9.7-1.4-.1-.5-.4-.8-.8-1l.2-.2.6-.3a4 4 0 0 1 1.7-.2c.1 0 .2 0 .3-.2l.1-.3c0-.2-.1-.4-.4-.5v.3Zm0 0c.3 0 .3.4 0 .4-.6 0-1.2 0-1.7.3l-1.5.6c.1-.4.5-.7 1-1 .6-.2 1.4-.4 2.2-.3Z"/><path fill="#fff" stroke="#fff" stroke-width=".5" d="m31.9 31.7.2.1v.4h.2c.1.2.2.2.4.3h.1v.4c0 .2 0 .3.2.4h.1c.4 0 .7.2 1 .4h.3l.8.5a4.2 4.2 0 0 0 1.6.1h1.1l.5.2-.4.2h-.2L36 36.4l-.4.4-.3.5v.6c.2.1.3.3.6.3h.6a11.8 11.8 0 0 0 .4-.2h.3v.2l.2.2.6.2H38.2l.1.5V40.7c0 .4 0 .9.5 1.2.7.6 1.7.4 2.3 0a5 5 0 0 0 1-1 11.8 11.8 0 0 1 1-.8c.2-.2.2-.4 0-.6 0-.1-.2-.2-.4-.1-.4.1-.8.4-1 .6l-.4.4a6 6 0 0 1-.4.4 2 2 0 0 1-.9.5c-.3 0-.5 0-.7-.2l-.1-.4V40c.1-.4.2-.8 0-1.2 0-.3 0-.8-.3-1.1a1 1 0 0 0-.5-.3.9.9 0 0 0-.3 0 1.5 1.5 0 0 1-.2 0l-.2-.3-.5-.3h-.6l.6-.5c.6-.5 1.3-1 2-1.3l.4-.3.1-.3-.1-.4c-.1-.2-.4-.3-.6-.4l-.6-.2a5.3 5.3 0 0 0-1.8-.2h-1l-1-.4-.1-.1a6 6 0 0 0-.6-.3h.6c.3 0 .6 0 .8-.2l.3-.3v-.5c-.3-.6-1-.8-1.4-.8l-1.6.1h-.5v.1c-.3.1-.3.4-.3.5l.1.3Zm2.8.1Z"/><path fill="#fff" stroke="#fff" stroke-width=".5" d="M43 40.2h-.4c-.2-.2-.2-.4-.1-.6.3-.4.6-.4.9-.5h.2a7.3 7.3 0 0 0 .5 0 1.5 1.5 0 0 0 .6-.6l.7-.5-.4-.3c-.3-.1-.5-.4-.6-.6a5.9 5.9 0 0 1-1.3-2.7v-1c0-.4.4-.6.6-.7l.5-.3.4-.3 1-.6.8-.5.2-.1.8-.5h1.4v-.1l.4-.2a1.7 1.7 0 0 1 1 0l.2-.1v-.1h.1c.2-.2.3-.4.6-.5h.5l.4-.2c.2 0 .3 0 .4-.2l.4-.2c.3-.2.6-.2 1-.2h.1a16.4 16.4 0 0 0 .3 0h.3v-.4l.1-.5.3-1M43.1 40.2l12-13.4m-12 13.4.2-.1h1.3M43 40h1.5m10.3-13.4.3.1m-.3 0h.3m-.3 0c.1-.4.3-.7.7-.8l.2-.1h.2l.3-.2.2-.2.1-.1.4-.3.5-.2c.2 0 .4 0 .6.2l.2.2v.3c-.1.1-.3.3-.5.2-.1 0-.2 0-.3.2l-.3.2-.1.1c-.3.3-.6.4-1 .5l-.2.3-.2.4-.1 1v.2c-.1.4-.4.7-.7.8-.3.2-.7.2-1 .1m1.3-2.8c0-.2.2-.5.5-.6h.2l.6-.3c0-.1 0-.2.2-.2.3-.4.7-.7 1.3-.4.2 0 0 .3-.2.3-.3 0-.6.2-.8.4l-.1.2-.9.4c-.3.1-.4.5-.5.9l-.2 1v.1c-.1.8-.8.8-1.4.8m0 .2v-.2m0 .2a1.3 1.3 0 0 0-.9.3m.9-.3v-.2m0 0c-.4 0-.7 0-1 .3m-7 8c-.6.1-1-.3-1.4-.8a5.6 5.6 0 0 1-1.1-2.5v-.1c-.1-.3-.1-.6 0-.8 0-.3.2-.4.4-.6h.1l.4-.3c.2 0 .3-.2.5-.3l.9-.5.9-.6.1-.1.8-.4.4-.1h.5l.6-.1.3-.1H50c.2 0 .4-.1.5-.3l.6-.4.4-.1.6-.1.3-.3.4-.2.9-.2h.1c.3 0 .6.1.8 0v-.4l.1-.2-8.8 9.6Zm0 0c.3 0 .6 0 .7-.3m-.6.4.6-.4m0 0 .4-.3.1.2m-.5.1h.6m0 0c.1.2.3.3.5.2l.2-.1.1-.1m-.8 0h.8m0 0 .4-.3m-.4.3.7-.3m-.3 0h.3m-.3 0 .1.3m0-.3v.3m.2-.3-.2.3m.2-.3-.2.3m0 0a1 1 0 0 0-.3.2H48v.1l-.3.1c-.4.2-.7 0-.8-.3m1.5-.1H47m1.6 0 .3-.1h-.3Zm-1.6 0a.8.8 0 0 1 .1 0h-.1m0 0a1.4 1.4 0 0 0 0 .2l-.4.2m.4-.3v-.1m0 0-.4.4m0 0Zm0 0v.3m0-.3.5.2.2.2.2.1m0 0-.1.2m0-.2v.2m0-.2h1c-.3.2-.8.4-1 .2m0 0-.2-.1-.2-.2-.5-.1m0 0h-.9m1 0v-.2l-1 .3m0 0-.6.5c-.2.2-.4.5-.7.6h-.6l2-1.1Zm-1 1.8c.4 0 .6-.3.7-.5l.2-.1.4-.3c.1-.2.3-.2.5-.2.1 0 .2 0 .3.2l.5.3h.5a4 4 0 0 0 .4 0l.8-.4c.2-.1.4-.3.5-.6a1.3 1.3 0 0 0 .2-.4v-.3l.3-.3V37c0-.2-.1-.3-.3-.4a1 1 0 0 0-.4-.1h-.9a2.6 2.6 0 0 0-.6.3 1 1 0 0 0-1.1-.1c-.2 0-.3.2-.3.3l-.3.2h-.2l-.3-.3c-.4-.4-.8-1-1-1.5a5.7 5.7 0 0 1-.3-1.5c.1-.2.2-.2.4-.3a10.2 10.2 0 0 1 .4-.3c.2 0 .3-.2.5-.3l.4-.3v-.2M44.5 40l3.4-8.5a3 3 0 0 1 .2 0h.3a1.9 1.9 0 0 0 .8-.3m-3.6 1.2.7-.4 1.1-.7m-1.8 1.1-.5.3-.4.3 1-.6Zm1.8-1.1.1.2-.1-.2Zm0 0h1l.6-.2h.1m0 0 .1.1m0-.2.3-.1h.5c.2.1.4 0 .6-.1l.3-.2.2-.3.6-.2h.3l.7-.4M49.3 31l.1.2m0 0L53 30m0 0-.1-.2m.1.2-.1-.2m-4 7.3h.1v.2l-.1-.2Zm-1.3.1Zm0 0V37a.3.3 0 0 1 .1 0 .6.6 0 0 0 0 .1h-.2Zm.7-.4a2 2 0 0 0-.5.2l-2.6 2.3.4-.4c.2-.1.5-.2.8-.1l.4.2.3.2H48c.3 0 .5-.1.8-.3l.4-.5.1-.3c0-.2 0-.3.2-.4v-.1l.2-.5c0-.2-.3-.4-.5-.4h-.8Zm-.8.2h-.1Zm-2.3 0c-.4-.4-.8-1-1-1.5l1 1.6Z"/><path fill="#fff" stroke="#fff" stroke-width=".5" d="m60.9 21.1.6-.1.2-.2h.2V20c0-.2-.2-.2-.3-.3h-.3v-.2l.2-.2c.3-.2.5-.5.6-.8v-.7a5.6 5.6 0 0 0 0-.5V17c.1-.1.2-.4 0-.6-.2-.4-.6-.5-1-.3H61l-.2.1h-.1c-.2-.3-.4-.5-.7-.6a1.7 1.7 0 0 0-.6-.2h-.4V15h-.1a.6.6 0 0 0-.5-.4l-.5.1h-.3l-.6-.4-1.2-.4-.5-.1c-.2 0-.4 0-.6.2a.7.7 0 0 0 0 .2h-.2v-.1a4 4 0 0 1-.9-.7 2.7 2.7 0 0 1-.3-.5l-.3-.5c-.3-.4-.8-.4-1.2-.4a4.5 4.5 0 0 0-2 .6h-.1l-.3-.2-.5.1h-.1a1.2 1.2 0 0 1-.2-.1l-.7-.4a1 1 0 0 0-.5 0H47l-.2.1h-.5a.6.6 0 0 1-.3-.5V11.4l.1-.3c0-.3 0-.6-.2-.8v-.1a2 2 0 0 1-.2-.6c0-.1 0-.2-.2-.3h-.4c-.2 0-.4.2-.4.5l.2.5a8.5 8.5 0 0 0 .2.4v.5l-.1.3c0 .7.4 1.3 1 1.6l1 .1h.3V13h.4v.1l.9.4h.3a1 1 0 0 0 1 0c.2 0 .3 0 .4-.2a3 3 0 0 1 1.3-.4H52l.1.1.1.1v.2a4.4 4.4 0 0 0 2.2 1.8h.6c.2-.1.3-.3.3-.4h.2v.1a12 12 0 0 1 1.5.6l.3.2c.2 0 .4.2.7.1l.1.2c.3.3.6.3 1 .4l.6.1v.2h.1l.1.1c.1.2.2.3.5.4h.6l.1-.1v1.5l-.5.2h-.1l-.1.1c-.1 0-.2 0-.3.2-.2 0-.3.3-.4.5 0 .2 0 .5.3.7l-.1.2c-.3.3-.3.7-.3 1l-.1.2h.2v.1c0 .2.2.3.3.4h.3V22.5c0 .2 0 .5.2.7l-.2.8v.1l-.1.6-.2.2H59.4l-1.7.1c-.2 0-.3.2-.4.3v.3l.3.2a9.3 9.3 0 0 0 1.7.1h1c.5-.2.7-.6.7-1l.1-.4V24l.2-.1a2.4 2.4 0 0 1 .1-.2l.2-.6-.1-.3a1 1 0 0 0-.2-.2v-.2c0-.3 0-.8-.5-1.1l-.2-.2h.3Zm0 0V21m0 .2V21m0 0c-.3 0-.5 0-.6.2l1.1-.4-.6.2Zm-.2-1Z"/><path fill="#fff" stroke="#fff" stroke-width=".5" d="M45.5 9.9c0-.2.2-.5 0-.7a1 1 0 0 0 0-.4.7.7 0 0 0-.3-.2v-.2l-.3-.3a1 1 0 0 0-.7-.3l-.4.1h-.1l-.3.1h-.2a3.8 3.8 0 0 0-.3-.3h-1c0-.5 0-1-.2-1.4l.4-.3c.3-.2.5-.5.5-1 0-.4-.3-.6-.5-.8-.3-.2-.5-.3-.6-.6l-.2-.4-.2-.5c-.2-.3-.4-.6-.8-.8a1.4 1.4 0 0 0-1.2 0l-.5-.1-1 .1-.2.2h-.3c-.1.2-.3.2-.4.2l-.3-.2h-.1l-.6-.1a1 1 0 0 0-.6.2c-.2.1-.3.3-.3.4l-.1.2-.2.2-.2.3H33.4l-.2-.2-.6-.1-1 .2h-.2l-.3.2H30.2c-1.1 1-1.5 2.3-1.6 3.5-.4-.6-1.2-1-2-.7a2 2 0 0 0-.2.1H26c-.4-.2-.7 0-.8.1v.1l-.1-.1c-.3-.7-1.1-.9-1.7-.7-.3.1-.5.4-.7.6l-.7-.4c-.3 0-.7 0-1 .3l-.1.4.1.4c.2.1.5.2.8 0h.1v.2l.4.5c.3.2.7 0 1-.2a2.5 2.5 0 0 0 .1-.4V7l.3-.3h.4v.2l.2.4c0 .2.2.3.4.4h.4a1.3 1.3 0 0 0 .7-.4c.3.2.7 0 1 0l.3-.2.3.1.5.8v.3l.1.4c0 .3.2.6.6.6h.6l.2-.4.1-.8c0-.7 0-1.4.2-2.1.1-.7.4-1.2.9-1.6l.9-.1.3-.1a10.7 10.7 0 0 1 .7-.2l.4.1.7.2c.4.1.9 0 1.2-.2.4-.3.6-.6.7-1l.1-.1h.5l.3.2c.6.1 1-.1 1.4-.3a2 2 0 0 1 .6-.2h.2c0 .2.2.3.4.3s.4 0 .5-.2h-.2.2v-.1h.1l.4.2.3.5a10.2 10.2 0 0 1 .3.7c0 .2.2.4.4.6l.3.2.2.1v.2a.7.7 0 0 1-.3.1h-.1a7.7 7.7 0 0 1-.3.1l-.3.3v.5l.2.2-.1.2h.1c.1.4.2.8.1 1.2h-.2l.2.2c-.1.4.2.8.6.7l.2.1v-.2h.9l.1.1.3.1.7.1.3-.1a1.8 1.8 0 0 1 .2 0l.3.5h.2c-.1.3 0 .6.2.7h.3l.3-.1ZM29.4 8c0-1.2 0-2.8 1-3.8l-2.2 3.6v.4c.1.3.2.7.6.8.6.2.6-.6.6-1Zm1.5-4c.3 0 .6 0 .9-.2l.7-.2.7.2-2.3.3Zm-2 4.6Z"/><path fill="#fff" stroke="#fff" stroke-width=".5" d="M22 6.5c0-.3-.2-.4-.3-.5l-.3-.3a.7.7 0 0 0-.6-.1 7.6 7.6 0 0 0-.4.2h-.1V6c-.2-.2-.4-.2-.6-.2l-.4.3c-.3-.2-.6-.2-.9-.1h-.2L18 6l.2-.2v-.1H18l-.1-.2a1.7 1.7 0 0 0-1-.6c-1.7-.5-3.4-.8-5.1-.9H9.4c-.6 0-1.4.1-2 .5a2 2 0 0 0-.7.8v.1a3.8 3.8 0 0 1-.1.3h-.2c-.2-.2-.4-.2-.6-.2A1 1 0 0 0 5 6a2 2 0 0 0-.2 1.2c0 .4.2.8.3 1 .2.7.6 1.3 1 1.8v.4a1.4 1.4 0 0 0 .2.7l.1.3v.4H6a1 1 0 0 0-.7.3c0 .2-.2.3-.3.4v.1l-1 1.1-1 1c0 .2-.2.3-.3.4l-.5.6a3 3 0 0 0-.6 1.2c-.2.7 0 1.4.2 2h-.1c-.3 0-.5.3-.6.5l-.1.3-.1.2-.3.7a25 25 0 0 0-.8 2c0 .2.3.4.5.6a4.7 4.7 0 0 0 .5.4l.6.5.5.4c.3.3.7.5 1.1.6.4 0 .8-.2 1-.5.2-.2.2-.3.1-.4 0-.2-.1-.3-.2-.3s-.2-.1-.4 0c-.1 0-.2 0-.3.2-.1 0-.3 0-.4-.2-.2 0-.3-.2-.4-.3l-.2-.1-.1-.2c-.2 0-.3-.2-.5-.3l-.4-.4H1v-.1l-.1-.1-.2.1.2-.1V22l.7-1.2.3-.7V20H2l.4.1.1.4.1-.4h.3c.3-.2.3-.6.2-.8l-.5-1.3c0-.5 0-.9.2-1.3l.8-1 .2-.1a51.5 51.5 0 0 0 2-2.5H6A1 1 0 0 1 6 13h.4c.2 0 .4 0 .6-.2.4-.3.5-.8.5-1.3a1.8 1.8 0 0 0-.3-.8l.2-.4c0-.2 0-.4-.2-.5l-.1-.2H7c-.3-.4-.6-.8-.7-1.3L6 7.5V6.7c.2.1.6.3 1 .1.3-.1.4-.4.6-.6a6.2 6.2 0 0 0 .1-.3l.2-.2.5-.4.7-.1h2c1.5 0 3 .2 4.4.5l1.2.3a2.7 2.7 0 0 0 .2 0h.2c0 .1 0 .2.2.3.2.3.5.6 1 .6h.5c0 .1 0 .3.2.3.1.2.3.2.5.1v.1l.1-.1.5-.4h.2a1 1 0 0 0 .6-.2c.1.2.2.3.4.3h.5c.2-.2.3-.3.3-.5Z"/><mask id="b" width="4" height="4" x="1.5" y="22.2" fill="#000" maskUnits="userSpaceOnUse"><path fill="#fff" d="M1.5 22.2h4v4h-4z"/><path d="M3.7 24.4H4v-.2h-.2l-.1.1v.2Z"/></mask><path fill="#fff" d="M3.7 24.4H4v-.2h-.2l-.1.1v.2Z"/><path fill="#fff" d="M3.7 24.7a.3.3 0 0 0 .2 0v-.1a.2.2 0 0 1-.2 0v-.4a.3.3 0 0 0-.2 0 .2.2 0 0 1 .1 0v.5Zm0-.3.3.4.2-.2v-.2h-.5Zm0 0V24H2.3l.9.9.3-.4Zm.2 0 .3.4 1-.9H3.8v.5Zm0 0V24h-.2l-.2.2.4.3Zm0-.1h-.4v.2l.1.2.4-.4Zm0 0h-.5v.1l.2.2.3-.4Zm-.2-.1v.5h.2l.1-.1-.3-.4Zm0 0v.5h.5v-.5h-.5Zm0 0v-.5h-.3l-.1.2.3.3Zm-.1.1H3v1.2l.8-.8-.3-.4Zm0 0H4v-1.2l-.9.9.4.3Zm0 .2-.4.3.2.2h.2v-.5Zm0 0v.5h.2l.2-.2-.4-.3Zm.6 0a.5.5 0 0 0-.5-.6v1h-.2a.5.5 0 0 1-.3-.5h1Zm-1 .3.4.1h.1v-1h.1l.2.1-.7.8Zm.5.1v-1 1Zm0-1h.1a.6.6 0 0 0-.2 0v1a.8.8 0 0 0 .1 0v-1Zm-.4.9.4.2v-1H4l-.7.8Zm.4.2v-1 1Zm0 0v-1 1Zm0 0h.1v-1 1Zm.1 0v-1 1Zm0 0a.5.5 0 0 0 .3-.1l.1-.1-.7-.7a.5.5 0 0 1 .3-.1v1Zm0-1a.5.5 0 0 0-.3 0l.7.8a.5.5 0 0 1-.3.1v-1Zm0 1v-1 1Zm0 0a.5.5 0 0 0 .3-.1h.1v-.1l-.7-.7a.5.5 0 0 1 .3-.1v1Zm.1 0a.5.5 0 0 0 .4-.3l-.7-.7a.6.6 0 0 0-.1.1h.1l.3-.2v1Zm.4-.3.1-.2V24l-.8.8a.5.5 0 0 1-.1-.5V24l.8.7Zm.2-.4v-.2l-.2-.2-.7.7-.1-.2v-.1h1Zm0 0c0-.2 0-.3-.2-.4l-.1-.1-.7.8h.1l-.2-.4h1Zm-.3-.5a.5.5 0 0 0-.3-.1v1a.5.5 0 0 1-.3-.1l.6-.8Zm-.3-.1h-.1v1-1Zm-.1 0-.5.1.7.8a.4.4 0 0 1-.2 0v-1Zm-.1.5v-.5a.5.5 0 0 0-.4.2l-.1.3h1a.5.5 0 0 1-.5.5v-.5Zm0-.5a.5.5 0 0 0-.4.2.5.5 0 0 1 .3-.2v1a.5.5 0 0 0 .4-.1.5.5 0 0 1-.3.1v-1Zm-.4.2-.2.4h1a.3.3 0 0 1-.1.3l-.7-.7Zm.6.8a.6.6 0 0 0 .2-.2l-.1.1-.7-.7a.6.6 0 0 0-.2.2l.1-.1.7.7Zm-.6-.8.6.8-.6-.8Zm0 0-.2.4h1v.2l-.2.2-.7-.8Zm.8.5H3h1Zm-.9-.4-.1.2v.2h1l-.2.3-.7-.7Zm-.2.4v.1s0 .2.2.3l.7-.7a.4.4 0 0 1 .1.2s0 .1 0 0H3Zm.6.6v-1 1Zm.4-.2-.1.1.1-.1-.7-.7.1-.1-.1.1.7.7Z" mask="url(#b)"/><path fill="#fff" stroke="#fff" stroke-width=".5" d="M4 24.8h.1l.5.4h.7a2.7 2.7 0 0 0 .2-.2h.1l.3.2h.2l.6.2h.5c.2.1.4.2.6.1h.6a2.5 2.5 0 0 1 .3.4l.3.3c.3.3.8.4 1.2.2.2 0 .4-.2.5-.3a5.5 5.5 0 0 1 .1 0l.5-.5-.1-.4-.4-.2-.4.1-.3.2-.4.2-.2-.1v-.2l-.2-.2c-.2-.2-.4-.5-.8-.6h-.6v.1a2.9 2.9 0 0 1-.2 0h-.2l-.3-.2a1 1 0 0 0-.4 0H6.2L6 24a1 1 0 0 0-.6 0H5l-.2.1h-.2V24h-.2c-.2-.2-.4-.2-.6-.2-.2 0-.4 0-.6.3v.3l.3.2.5.1Z"/><path fill="#fff" stroke="#fff" stroke-width=".5" d="M10.9 25.8c.4-.2.7-.3 1.1-.3a10 10 0 0 1 .6 0l.5-.1c.7-.1 1.5-.4 1.8-1.1v-.1l.1-.1v-.2h.1a1.2 1.2 0 0 1 .2 0h.1c.2 0 .4 0 .6-.2a1 1 0 0 0 .3-.2v-.1l.2-.1H16.8c.3 0 .5 0 .7-.2h.3l.9-.2c.4 0 .8.2 1.2.5.2 0 .4.2.5.3h.1l.6.4c.2.1.5 0 .6-.1v-.5a4.8 4.8 0 0 0-2.4-1.4c-.4-.1-.9-.2-1.3-.1l-.6.1h-.1a3 3 0 0 1-.7.2c-.2 0-.4 0-.6.2-.2 0-.3.2-.5.3l-.1.1H15a1 1 0 0 0-.6.2 1.3 1.3 0 0 0-.4.6l-.2.3-.8.4h-.6v.1h-.7a2 2 0 0 0-1.3.7.3.3 0 0 0 0 .5.4.4 0 0 0 .4 0ZM60.5 20.5v1l-.1.2a2.8 2.8 0 0 0 0 .3v.4h.1l.2.1h.2l.2-.4V20.4h-.3l-.3.1Z"/><path fill="#fff" stroke="#fff" stroke-width=".5" d="M60.8 20.7v.6a1.2 1.2 0 0 1 0 .1l-.1.2v.2l.1.3h.5l.1-.3v-1.1a.3.3 0 0 0-.3-.3h-.2l-.1.3ZM41.4 5.7V7.5a.3.3 0 0 0 .3 0h.1l.2-.2V5.6c0-.2-.2-.2-.3-.2h-.2v.3ZM5.5 8.8v1.3l.1.3v.2l.1.3a.3.3 0 0 0 .3.1H6l.1-.2a1.3 1.3 0 0 0 0-.5v-1L6 8.8c0-.2-.2-.2-.3-.2h-.2l-.1.2Z"/><path fill="#fff" stroke="#fff" stroke-width=".5" d="M5.9 9.3v.1a10.3 10.3 0 0 0 0 1.7l.2.2a.3.3 0 0 0 .3 0l.1-.2a3.6 3.6 0 0 0 0-.8V9.3L6.1 9l-.3.2Z"/><path fill="#fff" d="m44.4 13.8-4.5 14.3h-1.7l-3.6-10.9a10.8 10.8 0 0 1-.2-.7 15.5 15.5 0 0 1-.2.7l-3.7 11h-1.7l-4.5-14.4H26l.5.1.2.4 3 10a9.6 9.6 0 0 1 .2 1.2 27 27 0 0 1 .3-1.3l3.4-10 .2-.2.4-.2h.6l.4.1.3.4 3.3 10 .2.5.1.6a13.6 13.6 0 0 1 .3-1.2l3-10s0-.2.2-.3l.4-.1h1.5Z"/></g><defs><clipPath id="a"><path fill="#fff" d="M0 0h64v46H0z"/></clipPath></defs></svg>