<svg aria-hidden="true" style="position: absolute; width: 0; height: 0; overflow: hidden;" version="1.1" xmlns="http://www.w3.org/2000/svg" xmlns:xlink="http://www.w3.org/1999/xlink">
    <defs>
        <symbol id="icon-header-logo" viewBox="0 0 45 32">
            <path d="M13.565 15.791c0 0.417 0.417 0.557 0.696 0.696l0.278 0.209 0.070 0.139 0.139 0.070 0.278 0.209c0.209 0.139 0.417 0.070 0.626 0h0.070v0.070l0.070 0.139c0.139 0.209 0.348 0.278 0.626 0.278v0.070l0.070 0.348v0.696c0 0.209 0.139 0.417 0.348 0.626l0.209 0.070 0.139 0.070h0.139l0.139 0.209v0.070l0.278 0.557 0.209 0.209 0.209 0.278 0.348 0.974 0.139 0.348h-0.835c-0.052-0.020-0.111-0.032-0.174-0.032s-0.122 0.012-0.177 0.033l0.003-0.001h-0.278v-0.209l-0.209-0.070s-0.209-0.070-0.278 0h-0.139c-0.421 0.244-0.7 0.693-0.7 1.208 0 0.040 0.002 0.080 0.005 0.119l-0-0.005v0.417l-0.139 0.070c-0.077 0.063-0.146 0.131-0.207 0.206l-0.002 0.003c-0.209 0.209-0.278 0.417-0.278 0.557l-0.070 0.139-0.139 0.417-0.139 0.139h-0.139c-0.209 0-0.487 0.139-0.487 0.348v0.209l0.070 0.070 0.070 0.139 0.278 0.209 0.209 0.070c0.38 0.126 0.679 0.244 0.971 0.375l-0.067-0.027c0.209 0 0.417 0 0.557-0.209l0.278-0.139 0.139-0.139c0.139-0.139 0.278-0.139 0.417-0.139 0.278 0 0.487 0.209 0.557 0.417 0.032 0.162 0.173 0.283 0.342 0.283 0.081 0 0.156-0.028 0.216-0.075l-0.001 0.001c0-0.070 0.070-0.209 0-0.278-0.070-0.696-0.835-1.183-1.53-0.974l-0.557 0.348-0.348 0.278h-0.139l-0.139-0.139c-0.037-0.022-0.083-0.045-0.13-0.066l-0.009-0.003c0.070-0.139 0.209-0.209 0.209-0.348 0.139-0.139 0.139-0.348 0.209-0.487v-0.139l0.696-0.835c0.139-0.278 0.070-0.487 0-0.696 0-0.209 0-0.348 0.139-0.487h0.139c0.209 0.209 0.487 0.209 0.696 0.139h0.070c0.139 0.070 0.278 0.139 0.417 0.070h0.139v-0.070h0.348c0.209 0.139 0.487 0.139 0.696 0 0.139 0 0.209-0.209 0.209-0.348v-0.348l-0.139-0.348-0.417-1.252-0.417-0.557-0.139-0.139v-0.070l-0.070-0.139c-0.034-0.151-0.058-0.244-0.083-0.337l0.014 0.059-0.417-0.348c-0.079-0.050-0.171-0.097-0.267-0.135l-0.011-0.004-0.070-0.070v-0.696c0-0.278 0-0.557-0.139-0.835 0-0.139-0.139-0.278-0.278-0.348l-0.348-0.070-0.139-0.070v-0.070c-0.068-0.072-0.136-0.14-0.206-0.206l-0.002-0.002c-0.139-0.209-0.487-0.348-0.835-0.209l-0.348-0.139-0.278-0.139h-0.209l-0.209-0.139c-0.139 0-0.278-0.139-0.348-0.278h-0.139l-0.209-0.139-0.139 0.070-0.070 0.209z"></path>
            <path d="M22.47 21.704v-0.209c-0.557 0-1.113 0.070-1.67 0.348-0.209 0.070-0.417 0.209-0.557 0.417-0.139 0.070-0.209 0.209-0.209 0.348h-0.139l0.139 0.070v0.348l0.139 0.209h0.139c0.209 0 0.348 0.209 0.278 0.348l-0.070 0.139-0.278 0.070h-0.278l-0.417 0.070c-0.070 0-0.209 0-0.278 0.139h-0.139c0 0.010 0 0.023 0 0.035s-0 0.024-0 0.037l0-0.002c-0.018-0.177-0.167-0.315-0.348-0.315-0.193 0-0.35 0.157-0.35 0.35 0 0.012 0.001 0.024 0.002 0.036l-0-0.002h-0.139l0.139 0.209-0.139 0.209-0.070-0.139h-0.070c-0.050-0.029-0.11-0.047-0.174-0.047s-0.124 0.017-0.176 0.047l0.002-0.001c-0.139 0-0.278 0.070-0.209 0.278h-0.070v0.139l0.278 1.53c0 0.139 0.209 0.209 0.278 0.139 0.139 0 0.278-0.070 0.278-0.209v-0.835c0.139 0 0.278 0 0.278-0.209l0.070-0.070h0.139l-0.070-0.139 0.139-0.348h0.139l0.348-0.070h0.070l0.139-0.139c0.073-0.012 0.158-0.019 0.243-0.019s0.17 0.007 0.253 0.020l-0.009-0.001c0.209 0 0.417 0 0.696-0.139 0.278-0.209 0.487-0.626 0.487-0.974-0.070-0.348-0.278-0.557-0.557-0.696l0.139-0.139 0.417-0.209c0.271-0.097 0.583-0.153 0.909-0.153 0.096 0 0.192 0.005 0.285 0.014l-0.012-0.001c0.070 0 0.139 0 0.209-0.139l0.070-0.209c0-0.139-0.070-0.278-0.278-0.348v0.209zM22.47 21.704c0.209 0 0.209 0.278 0 0.278-0.417 0-0.835 0-1.183 0.209l-1.043 0.417c0.070-0.278 0.348-0.487 0.696-0.696 0.417-0.139 0.974-0.278 1.53-0.209z"></path>
            <path d="M22.191 22.052l0.139 0.070v0.278h0.139c0.070 0.139 0.139 0.139 0.278 0.209h0.070v0.278c0 0.139 0 0.209 0.139 0.278h0.070c0.278 0 0.487 0.139 0.696 0.278h0.209l0.557 0.348c0.221 0.060 0.474 0.094 0.735 0.094 0.133 0 0.264-0.009 0.393-0.026l-0.015 0.002h0.765l0.348 0.139-0.278 0.139h-0.139l-1.252 1.183-0.278 0.278-0.209 0.348v0.417c0.139 0.070 0.209 0.209 0.417 0.209h0.417c0.141-0.066 0.232-0.113 0.323-0.161l-0.044 0.022h0.209v0.139l0.139 0.139 0.417 0.139h0.139l0.070 0.348v1.113c0 0.278 0 0.626 0.348 0.835 0.487 0.417 1.183 0.278 1.6 0 0.266-0.201 0.495-0.43 0.689-0.687l0.006-0.009c0.209-0.187 0.435-0.37 0.671-0.54l0.024-0.017c0.139-0.139 0.139-0.278 0-0.417 0-0.070-0.139-0.139-0.278-0.070-0.278 0.070-0.557 0.278-0.696 0.417l-0.278 0.278c-0.089 0.098-0.18 0.189-0.275 0.275l-0.003 0.003c-0.169 0.164-0.381 0.285-0.616 0.346l-0.010 0.002c-0.209 0-0.348 0-0.487-0.139l-0.070-0.278v-0.487c0.070-0.278 0.139-0.557 0-0.835 0-0.209 0-0.557-0.209-0.765-0.091-0.1-0.209-0.173-0.343-0.208l-0.005-0.001c-0.031-0.006-0.067-0.009-0.104-0.009s-0.073 0.003-0.108 0.009l0.004-0.001c-0.021 0.001-0.045 0.002-0.070 0.002s-0.049-0.001-0.073-0.003l0.003 0-0.139-0.209-0.348-0.209h-0.417l0.417-0.348c0.417-0.348 0.904-0.696 1.391-0.904l0.278-0.209 0.070-0.209-0.070-0.278c-0.070-0.139-0.278-0.209-0.417-0.278l-0.417-0.139c-0.308-0.093-0.661-0.146-1.027-0.146-0.079 0-0.158 0.003-0.236 0.007l0.011-0.001h-0.696l-0.696-0.278-0.070-0.070c-0.112-0.066-0.25-0.136-0.391-0.198l-0.027-0.011h0.417c0.209 0 0.417 0 0.557-0.139l0.209-0.209v-0.348c-0.209-0.417-0.696-0.557-0.974-0.557l-1.113 0.070h-0.348v0.070c-0.209 0.070-0.209 0.278-0.209 0.348l0.070 0.209z"></path>
            <path d="M29.913 27.965h-0.278c-0.139-0.139-0.139-0.278-0.070-0.417 0.209-0.278 0.417-0.278 0.626-0.348h0.139c0.052 0.002 0.113 0.003 0.174 0.003s0.122-0.001 0.183-0.003l-0.009 0c0.177-0.098 0.32-0.24 0.415-0.412l0.003-0.005 0.487-0.348-0.278-0.209c-0.209-0.070-0.348-0.278-0.417-0.417-0.442-0.517-0.76-1.152-0.9-1.852l-0.004-0.026v-0.696c0-0.278 0.278-0.417 0.417-0.487l0.348-0.209 0.278-0.209 0.696-0.417 0.557-0.348 0.139-0.070 0.557-0.348h0.974v-0.070l0.278-0.139c0.104-0.033 0.224-0.052 0.348-0.052s0.244 0.019 0.356 0.055l-0.008-0.002 0.139-0.070v-0.070h0.070c0.139-0.139 0.209-0.278 0.417-0.348h0.348l0.278-0.139c0.139 0 0.209 0 0.278-0.139l0.278-0.139c0.209-0.139 0.417-0.139 0.696-0.139h0.070c0.031 0 0.068 0 0.104 0s0.073-0 0.11-0.001l-0.006 0h0.209v-0.278l0.070-0.348 0.209-0.696M29.983 27.965l8.348-9.322M29.983 27.965l0.139-0.070h0.904M29.913 27.826h1.043M38.122 18.504l0.209 0.070M38.122 18.574h0.209M38.122 18.574c0.070-0.278 0.209-0.487 0.487-0.557l0.139-0.070h0.139l0.209-0.139 0.209-0.209 0.278-0.209 0.348-0.139c0.139 0 0.278 0 0.417 0.139l0.139 0.139v0.209c-0.070 0.070-0.209 0.209-0.348 0.139-0.070 0-0.139 0-0.209 0.139l-0.209 0.139-0.070 0.070c-0.209 0.209-0.417 0.278-0.696 0.348l-0.139 0.209-0.139 0.278-0.070 0.696v0.139c-0.070 0.278-0.278 0.487-0.487 0.557-0.209 0.139-0.487 0.139-0.696 0.070M38.33 18.574c0-0.139 0.139-0.348 0.348-0.417h0.139l0.417-0.209c0-0.070 0-0.139 0.139-0.139 0.209-0.278 0.487-0.487 0.904-0.278 0.139 0 0 0.209-0.139 0.209-0.209 0-0.417 0.139-0.557 0.278l-0.070 0.139-0.626 0.278c-0.209 0.070-0.278 0.348-0.348 0.626l-0.139 0.696v0.070c-0.070 0.557-0.557 0.557-0.974 0.557M37.426 20.522v-0.139M37.426 20.522c-0.014-0.001-0.030-0.001-0.047-0.001-0.221 0-0.424 0.079-0.581 0.211l0.001-0.001M37.426 20.522v-0.139M37.426 20.383c-0.278 0-0.487 0-0.696 0.209M31.861 26.157c-0.417 0.070-0.696-0.209-0.974-0.557-0.38-0.485-0.65-1.073-0.762-1.716l-0.003-0.023v-0.070c-0.070-0.209-0.070-0.417 0-0.557 0-0.209 0.139-0.278 0.278-0.417h0.070l0.278-0.209c0.139 0 0.209-0.139 0.348-0.209l0.626-0.348 0.626-0.417 0.070-0.070 0.557-0.278 0.278-0.070h0.348l0.417-0.070 0.209-0.070h0.557c0.139 0 0.278-0.070 0.348-0.209l0.417-0.278 0.278-0.070 0.417-0.070 0.209-0.209 0.278-0.139 0.626-0.139h0.070c0.209 0 0.417 0.070 0.557 0v-0.278l0.070-0.139-6.122 6.678zM31.861 26.157c0.209 0 0.417 0 0.487-0.209M31.93 26.226l0.417-0.278M32.348 25.948l0.278-0.209 0.070 0.139M32.348 25.948h0.417M32.765 25.948c0.070 0.139 0.209 0.209 0.348 0.139l0.139-0.070 0.070-0.070M32.765 25.948h0.557M33.322 25.948l0.278-0.209M33.322 25.948l0.487-0.209M33.6 25.739h0.209M33.6 25.739l0.070 0.209M33.67 25.739v0.209M33.809 25.739l-0.139 0.209M33.809 25.739l-0.139 0.209M33.67 25.948c-0.081 0.035-0.15 0.082-0.209 0.139l0-0h-0.070v0.070l-0.209 0.070c-0.278 0.139-0.487 0-0.557-0.209M33.67 25.948h-0.974M33.809 25.948l0.209-0.070h-0.209zM32.696 25.948c0.010-0.001 0.023-0.001 0.035-0.001s0.024 0 0.036 0.001l-0.002-0h-0.070M32.696 25.948c-0.002 0.021-0.002 0.045-0.002 0.070s0.001 0.049 0.003 0.073l-0-0.003-0.278 0.139M32.696 26.017v-0.070M32.696 25.948l-0.278 0.278M32.417 26.226v0.209M32.417 26.226l0.348 0.139 0.139 0.139 0.139 0.070M33.043 26.574l-0.070 0.139M32.974 26.574v0.139M32.974 26.574h0.696c-0.209 0.139-0.557 0.278-0.696 0.139M32.974 26.713l-0.139-0.070-0.139-0.139-0.348-0.070M32.348 26.435h-0.626M32.417 26.435v-0.139l-0.696 0.209M31.722 26.504l-0.417 0.348c-0.139 0.139-0.278 0.348-0.487 0.417h-0.417l1.391-0.765zM31.026 27.757c0.278 0 0.417-0.209 0.487-0.348l0.139-0.070 0.278-0.209c0.070-0.139 0.209-0.139 0.348-0.139 0.070 0 0.139 0 0.209 0.139l0.348 0.209h0.348c0.042 0.002 0.090 0.003 0.139 0.003s0.098-0.001 0.146-0.004l-0.007 0 0.557-0.278c0.139-0.070 0.278-0.209 0.348-0.417 0.059-0.079 0.107-0.172 0.137-0.272l0.002-0.006v-0.209l0.209-0.209v-0.209c0-0.139-0.070-0.209-0.209-0.278-0.081-0.040-0.176-0.066-0.277-0.070l-0.001-0h-0.626c-0.159 0.056-0.297 0.127-0.424 0.213l0.006-0.004c-0.118-0.095-0.27-0.153-0.435-0.153-0.121 0-0.235 0.031-0.334 0.085l0.004-0.002c-0.139 0-0.209 0.139-0.209 0.209l-0.209 0.139h-0.139l-0.209-0.209c-0.278-0.278-0.557-0.696-0.696-1.043-0.11-0.307-0.184-0.663-0.208-1.032l-0.001-0.012c0.070-0.139 0.139-0.139 0.278-0.209 0.074-0.059 0.165-0.128 0.257-0.194l0.021-0.014c0.139 0 0.209-0.139 0.348-0.209l0.278-0.209v-0.139M30.957 27.826l2.365-5.913c0.021-0.001 0.045-0.001 0.070-0.001s0.049 0 0.073 0.001l-0.004-0h0.209c0.21-0.029 0.398-0.102 0.561-0.212l-0.005 0.003M31.722 22.539l0.487-0.278 0.765-0.487M31.722 22.539l-0.348 0.209-0.278 0.209 0.696-0.417zM32.974 21.774v0zM32.974 21.774h0.696l0.417-0.139h0.070M34.157 21.635l0.070 0.070M34.226 21.565l0.209-0.070h0.348c0.139 0.070 0.278 0 0.417-0.070l0.209-0.139 0.139-0.209 0.417-0.139h0.209l0.487-0.278M34.296 21.565l0.070 0.139M34.365 21.704l2.504-0.835M36.87 20.87l-0.070-0.139M36.87 20.87l-0.070-0.139M34.017 25.809h0.070v0.139l-0.070-0.139zM33.113 25.878v-0.139c0.010-0.002 0.023-0.003 0.035-0.003s0.024 0.001 0.036 0.003l-0.001-0c-0.001 0.010-0.001 0.023-0.001 0.035s0.001 0.024 0.002 0.036l-0-0.002h-0.139zM33.6 25.6c-0.132 0.034-0.248 0.081-0.355 0.143l0.007-0.004-1.809 1.6 0.278-0.278c0.139-0.070 0.348-0.139 0.557-0.070l0.278 0.139 0.209 0.139h0.626c0.209 0 0.348-0.070 0.557-0.209l0.278-0.348 0.070-0.209c0-0.139 0-0.209 0.139-0.278v-0.070l0.139-0.348c0-0.139-0.209-0.278-0.348-0.278h-0.557zM33.043 25.739h-0.070zM31.443 25.739c-0.278-0.278-0.557-0.696-0.696-1.043l0.696 1.113z"></path>
            <path d="M42.365 14.678l0.417-0.070 0.139-0.139h0.139v-0.557c0-0.139-0.139-0.139-0.209-0.209h-0.209v-0.139l0.139-0.139c0.209-0.139 0.348-0.348 0.417-0.557v-0.487c0.002-0.052 0.004-0.113 0.004-0.174s-0.001-0.122-0.004-0.182l0 0.009v-0.209c0.070-0.070 0.139-0.278 0-0.417-0.139-0.278-0.417-0.348-0.696-0.209h-0.070l-0.139 0.070h-0.070c-0.139-0.209-0.278-0.348-0.487-0.417-0.12-0.069-0.261-0.117-0.411-0.138l-0.006-0.001h-0.278v-0.278h-0.070c-0.053-0.15-0.186-0.26-0.346-0.278l-0.002-0-0.348 0.070h-0.209l-0.417-0.278-0.835-0.278-0.348-0.070c-0.139 0-0.278 0-0.417 0.139-0.003 0.021-0.005 0.045-0.005 0.070s0.002 0.049 0.005 0.072l-0-0.003h-0.139v-0.070c-0.239-0.138-0.445-0.299-0.625-0.486l-0.001-0.001c-0.077-0.101-0.147-0.215-0.204-0.336l-0.005-0.011-0.209-0.348c-0.209-0.278-0.557-0.278-0.835-0.278-0.516 0.030-0.992 0.182-1.406 0.425l0.015-0.008h-0.070l-0.209-0.139-0.348 0.070h-0.070c-0.054-0.021-0.099-0.044-0.143-0.072l0.003 0.002-0.487-0.278c-0.052-0.014-0.112-0.022-0.174-0.022s-0.122 0.008-0.179 0.023l0.005-0.001h-0.278l-0.139 0.070h-0.348c-0.122-0.071-0.204-0.199-0.209-0.347l-0-0.001v-0.139l0.070-0.209c0-0.209 0-0.417-0.139-0.557v-0.070c-0.064-0.121-0.113-0.261-0.138-0.409l-0.001-0.008c0-0.070 0-0.139-0.139-0.209h-0.278c-0.139 0-0.278 0.139-0.278 0.348l0.139 0.348c0.059 0.128 0.106 0.22 0.155 0.309l-0.015-0.031v0.348l-0.070 0.209c0 0.487 0.278 0.904 0.696 1.113l0.696 0.070h0.209v-0.139h0.278v0.070l0.626 0.278h0.209c0.1 0.059 0.22 0.093 0.348 0.093s0.248-0.035 0.351-0.095l-0.003 0.002c0.139 0 0.209 0 0.278-0.139 0.26-0.154 0.568-0.254 0.898-0.278l0.007-0h0.278l0.139 0.139v0.139c0.359 0.571 0.885 1.007 1.509 1.245l0.021 0.007h0.417c0.139-0.070 0.209-0.209 0.209-0.278h0.139v0.070c0.415 0.135 0.76 0.276 1.093 0.439l-0.049-0.022 0.209 0.139c0.139 0 0.278 0.139 0.487 0.070l0.070 0.139c0.209 0.209 0.417 0.209 0.696 0.278l0.417 0.070v0.139h0.070l0.070 0.070c0.070 0.139 0.139 0.209 0.348 0.278h0.417l0.070-0.070v1.043l-0.348 0.139h-0.070l-0.070 0.070c-0.070 0-0.139 0-0.209 0.139-0.139 0-0.209 0.209-0.278 0.348 0 0.139 0 0.348 0.209 0.487l-0.070 0.139c-0.209 0.209-0.209 0.487-0.209 0.696l-0.070 0.139h0.139v0.070c0 0.139 0.139 0.209 0.209 0.278h0.209v0.278c0 0.139 0 0.348 0.139 0.487l-0.139 0.557v0.070l-0.070 0.417-0.139 0.139h-0.417l-1.183 0.070c-0.139 0-0.209 0.139-0.278 0.209v0.209l0.209 0.139c0.291 0.047 0.627 0.073 0.97 0.073 0.075 0 0.15-0.001 0.224-0.004l-0.011 0h0.696c0.348-0.139 0.487-0.417 0.487-0.696l0.070-0.278v-0.348l0.139-0.070c0.025-0.057 0.049-0.103 0.074-0.147l-0.004 0.008 0.139-0.417-0.070-0.209c-0.040-0.053-0.086-0.099-0.137-0.138l-0.002-0.001v-0.139c0-0.209 0-0.557-0.348-0.765l-0.139-0.139h0.209zM42.365 14.678v-0.070M42.365 14.748v-0.139M42.365 14.609c-0.209 0-0.348 0-0.417 0.139l0.765-0.278-0.417 0.139z"></path>
            <path d="M31.652 6.887c0-0.139 0.139-0.348 0-0.487 0.009-0.042 0.014-0.090 0.014-0.139s-0.005-0.097-0.015-0.144l0.001 0.005c-0.055-0.062-0.126-0.11-0.205-0.138l-0.003-0.001v-0.139l-0.209-0.209c-0.124-0.127-0.296-0.206-0.486-0.209h-0.001l-0.278 0.070h-0.070l-0.209 0.070h-0.139c-0.066-0.074-0.135-0.142-0.206-0.207l-0.002-0.002h-0.696c0-0.348 0-0.696-0.139-0.974l0.278-0.209c0.209-0.139 0.348-0.348 0.348-0.696 0-0.278-0.209-0.417-0.348-0.557-0.209-0.139-0.348-0.209-0.417-0.417l-0.139-0.278-0.139-0.348c-0.139-0.209-0.278-0.417-0.557-0.557-0.122-0.059-0.266-0.094-0.417-0.094s-0.295 0.035-0.423 0.097l0.006-0.003-0.348-0.070-0.696 0.070-0.139 0.139h-0.209c-0.070 0.139-0.209 0.139-0.278 0.139l-0.209-0.139h-0.070l-0.417-0.070c-0.157 0-0.303 0.052-0.419 0.14l0.002-0.001c-0.139 0.070-0.209 0.209-0.209 0.278l-0.070 0.139-0.139 0.139-0.139 0.209h-0.626l-0.139-0.139-0.417-0.070-0.696 0.139h-0.139l-0.209 0.139h-0.626c-0.765 0.696-1.043 1.6-1.113 2.435-0.278-0.417-0.835-0.696-1.391-0.487-0.056 0.024-0.102 0.048-0.146 0.073l0.007-0.004h-0.278c-0.278-0.139-0.487 0-0.557 0.070v0.070l-0.070-0.070c-0.209-0.487-0.765-0.626-1.183-0.487-0.209 0.070-0.348 0.278-0.487 0.417l-0.487-0.278c-0.209 0-0.487 0-0.696 0.209l-0.070 0.278 0.070 0.278c0.139 0.070 0.348 0.139 0.557 0h0.070v0.139l0.278 0.348c0.209 0.139 0.487 0 0.696-0.139 0.028-0.078 0.052-0.172 0.068-0.268l0.001-0.010v-0.070l0.209-0.209h0.278v0.139l0.139 0.278c0 0.139 0.139 0.209 0.278 0.278h0.278c0.194-0.041 0.361-0.14 0.486-0.278l0.001-0.001c0.209 0.139 0.487 0 0.696 0l0.209-0.139 0.209 0.070 0.348 0.557v0.209l0.070 0.278c0 0.209 0.139 0.417 0.417 0.417h0.417l0.139-0.278 0.070-0.557c0-0.487 0-0.974 0.139-1.461 0.070-0.487 0.278-0.835 0.626-1.113l0.626-0.070 0.209-0.070c0.108-0.038 0.27-0.086 0.435-0.128l0.052-0.011 0.278 0.070 0.487 0.139c0.278 0.070 0.626 0 0.835-0.139 0.278-0.209 0.417-0.417 0.487-0.696l0.070-0.070h0.348l0.209 0.139c0.417 0.070 0.696-0.070 0.974-0.209 0.121-0.064 0.261-0.113 0.409-0.138l0.008-0.001h0.139c0 0.139 0.139 0.209 0.278 0.209s0.278 0 0.348-0.139v0-0.070h0.070l0.278 0.139 0.209 0.348c0.057 0.115 0.128 0.275 0.192 0.439l0.017 0.048c0 0.139 0.139 0.278 0.278 0.417l0.209 0.139 0.139 0.070v0.139c-0.060 0.037-0.131 0.062-0.207 0.069l-0.002 0h-0.070c-0.031 0.013-0.101 0.037-0.171 0.059l-0.038 0.010-0.209 0.209v0.348l0.139 0.139-0.070 0.139h0.070c0.070 0.278 0.139 0.557 0.070 0.835h-0.139l0.139 0.139c-0.070 0.278 0.139 0.557 0.417 0.487l0.139 0.070v-0.139h0.626l0.070 0.070 0.209 0.070 0.487 0.070 0.209-0.070c0.021-0.001 0.045-0.002 0.070-0.002s0.049 0.001 0.073 0.002l-0.003-0 0.209 0.348h0.139c-0.070 0.209 0 0.417 0.139 0.487h0.209l0.209-0.070zM20.452 5.565c0-0.835 0-1.948 0.696-2.643l-1.53 2.504v0.278c0.070 0.209 0.139 0.487 0.417 0.557 0.417 0.139 0.417-0.417 0.417-0.696zM21.496 2.783c0.209 0 0.417 0 0.626-0.139l0.487-0.139 0.487 0.139-1.6 0.209z"></path>
            <path d="M15.304 4.522c0-0.209-0.139-0.278-0.209-0.348l-0.209-0.209c-0.078-0.056-0.176-0.089-0.281-0.089-0.049 0-0.096 0.007-0.14 0.020l0.003-0.001c-0.125 0.058-0.216 0.104-0.306 0.153l0.028-0.014h-0.070v0.139c-0.139-0.139-0.278-0.139-0.417-0.139l-0.278 0.209c-0.209-0.139-0.417-0.139-0.626-0.070h-0.278l0.139-0.139v-0.070h-0.139l-0.070-0.139c-0.172-0.212-0.413-0.362-0.688-0.416l-0.008-0.001c-1.183-0.348-2.365-0.557-3.548-0.626h-1.67c-0.417 0-0.974 0.070-1.391 0.348-0.209 0.139-0.375 0.327-0.483 0.548l-0.004 0.008v0.070c-0.026 0.089-0.049 0.159-0.076 0.227l0.006-0.018h-0.139c-0.139-0.139-0.278-0.139-0.417-0.139-0.238 0.017-0.442 0.151-0.555 0.344l-0.002 0.003c-0.097 0.185-0.154 0.403-0.154 0.635 0 0.070 0.005 0.14 0.015 0.207l-0.001-0.008c0 0.278 0.139 0.557 0.209 0.696 0.139 0.487 0.417 0.904 0.696 1.252v0.278c0.003 0.18 0.054 0.348 0.142 0.491l-0.002-0.004 0.070 0.209v0.278h-0.278c-0.191 0.003-0.363 0.082-0.487 0.209l-0 0c0 0.139-0.139 0.209-0.209 0.278v0.070l-0.696 0.765-0.696 0.696c0 0.139-0.139 0.209-0.209 0.278l-0.348 0.417c-0.193 0.233-0.338 0.513-0.414 0.82l-0.003 0.014c-0.139 0.487 0 0.974 0.139 1.391h-0.070c-0.209 0-0.348 0.209-0.417 0.348l-0.070 0.209-0.070 0.139-0.209 0.487c-0.162 0.341-0.35 0.801-0.518 1.27l-0.038 0.121c0 0.139 0.209 0.278 0.348 0.417 0.105 0.096 0.218 0.188 0.337 0.271l0.010 0.007 0.417 0.348 0.348 0.278c0.209 0.209 0.487 0.348 0.765 0.417 0.278 0 0.557-0.139 0.696-0.348 0.139-0.139 0.139-0.209 0.070-0.278 0-0.139-0.070-0.209-0.139-0.209s-0.139-0.070-0.278 0c-0.070 0-0.139 0-0.209 0.139-0.070 0-0.209 0-0.278-0.139-0.139 0-0.209-0.139-0.278-0.209l-0.139-0.070-0.070-0.139c-0.139 0-0.209-0.139-0.348-0.209l-0.278-0.278h-0.139v-0.070l-0.070-0.070v-0.278l0.487-0.835 0.209-0.487v-0.070h0.070l0.278 0.070 0.070 0.278 0.070-0.278h0.209c0.209-0.139 0.209-0.417 0.139-0.557l-0.348-0.904c0-0.348 0-0.626 0.139-0.904l0.557-0.696 0.139-0.070c0.432-0.503 0.887-1.069 1.326-1.649l0.065-0.090h0.139c-0.001-0.010-0.001-0.023-0.001-0.035s0-0.024 0.001-0.036l-0 0.002h0.278c0.139 0 0.278 0 0.417-0.139 0.278-0.209 0.348-0.557 0.348-0.904-0.026-0.21-0.1-0.399-0.211-0.561l0.003 0.004 0.139-0.278c0-0.139 0-0.278-0.139-0.348l-0.070-0.139h-0.070c-0.209-0.278-0.417-0.557-0.487-0.904l-0.209-0.557v-0.557c0.139 0.070 0.417 0.209 0.696 0.070 0.209-0.070 0.278-0.278 0.417-0.417 0.016-0.039 0.039-0.108 0.061-0.178l0.008-0.031 0.139-0.139 0.348-0.278 0.487-0.070h1.391c1.043 0 2.087 0.139 3.061 0.348l0.835 0.209c0.021 0.001 0.045 0.001 0.070 0.001s0.049-0 0.073-0.001l-0.004 0h0.139c0 0.070 0 0.139 0.139 0.209 0.139 0.209 0.348 0.417 0.696 0.417h0.348c0 0.070 0 0.209 0.139 0.209 0.070 0.139 0.209 0.139 0.348 0.070v0.070l0.070-0.070 0.348-0.278h0.139c0.157 0 0.303-0.052 0.419-0.14l-0.002 0.001c0.070 0.139 0.139 0.209 0.278 0.209h0.348c0.139-0.139 0.209-0.209 0.209-0.348z"></path>
            <path d="M2.574 16.974h0.209v-0.139h-0.139l-0.070 0.070v0.139z"></path>
            <path d="M2.574 17.183c0.021 0.008 0.045 0.012 0.070 0.012s0.049-0.004 0.071-0.012l-0.001 0v-0.070c-0.020 0.012-0.044 0.019-0.070 0.019s-0.050-0.007-0.070-0.019l0.001 0v-0.278c-0.021-0.008-0.045-0.012-0.070-0.012s-0.049 0.004-0.071 0.012l0.001-0c0.010-0.003 0.022-0.004 0.035-0.004s0.024 0.002 0.036 0.005l-0.001-0v0.348zM2.574 16.974l0.209 0.278 0.139-0.139v-0.139h-0.348zM2.574 16.974v-0.278h-0.974l0.626 0.626 0.209-0.278zM2.713 16.974l0.209 0.278 0.696-0.626h-0.974v0.348zM2.713 16.974v-0.278h-0.139l-0.139 0.139 0.278 0.209zM2.713 16.904h-0.278v0.139l0.070 0.139 0.278-0.278zM2.713 16.904h-0.348v0.070l0.139 0.139 0.209-0.278zM2.574 16.835v0.348h0.139l0.070-0.070-0.209-0.278zM2.574 16.835v0.348h0.348v-0.348h-0.348zM2.574 16.835v-0.348h-0.209l-0.070 0.139 0.209 0.209zM2.504 16.904h-0.417v0.835l0.557-0.557-0.209-0.278zM2.504 16.904h0.278v-0.835l-0.626 0.626 0.278 0.209zM2.504 17.043l-0.278 0.209 0.139 0.139h0.139v-0.348zM2.504 17.043v0.348h0.139l0.139-0.139-0.278-0.209zM2.922 17.043c0.004-0.021 0.007-0.045 0.007-0.070 0-0.192-0.156-0.348-0.348-0.348-0.002 0-0.005 0-0.007 0h0v0.696h-0.139c-0.124-0.055-0.21-0.177-0.21-0.319 0-0.010 0-0.020 0.001-0.030l-0 0.001h0.696zM2.226 17.252l0.278 0.070h0.070v-0.696h0.070l0.139 0.070-0.487 0.557zM2.574 17.322v0zM2.574 16.626h0.070c-0.021-0.004-0.045-0.006-0.070-0.006s-0.049 0.002-0.072 0.006l0.002-0v0.696c0.010 0.001 0.023 0.001 0.035 0.001s0.024-0 0.036-0.001l-0.002 0v-0.696zM2.296 17.252l0.278 0.139v-0.696h0.209l-0.487 0.557zM2.574 17.391v0zM2.574 17.391v0zM2.574 17.391h0.070zM2.643 17.391v0zM2.643 17.391c0.079 0 0.151-0.026 0.21-0.070l-0.001 0.001 0.070-0.070-0.487-0.487c0.057-0.043 0.13-0.070 0.209-0.070v0 0.696zM2.643 16.696c-0.031-0.010-0.067-0.016-0.104-0.016s-0.073 0.006-0.107 0.017l0.002-0.001 0.487 0.557c-0.057 0.043-0.13 0.070-0.209 0.070v0-0.696zM2.643 17.391v0zM2.643 17.391c0.079 0 0.151-0.026 0.21-0.070l-0.001 0.001h0.070v-0.070l-0.487-0.487c0.057-0.043 0.13-0.070 0.209-0.070v0 0.696zM2.713 17.391c0.126-0.016 0.229-0.096 0.277-0.206l0.001-0.002-0.487-0.487c-0.026 0.021-0.049 0.044-0.069 0.069l-0.001 0.001h0.070l0.209-0.139v0.696zM2.991 17.183l0.070-0.139v-0.348l-0.557 0.557c-0.055-0.061-0.089-0.143-0.089-0.233 0-0.041 0.007-0.081 0.020-0.118l-0.001 0.002v-0.209l0.557 0.487zM3.13 16.904v-0.139l-0.139-0.139-0.487 0.487-0.070-0.139v-0.070h0.696zM3.13 16.904c0-0.139 0-0.209-0.139-0.278l-0.070-0.070-0.487 0.557h0.070l-0.139-0.278h0.696zM2.922 16.557c-0.057-0.043-0.13-0.070-0.209-0.070v0 0.696c-0.079 0-0.151-0.026-0.21-0.070l0.001 0.001 0.417-0.557zM2.713 16.487h-0.070zM2.643 16.487l-0.348 0.070 0.487 0.557c-0.021 0.006-0.045 0.009-0.070 0.009s-0.049-0.003-0.071-0.009l0.002 0v-0.696zM2.574 16.835v-0.348c-0.113 0-0.214 0.054-0.278 0.138l-0.001 0.001-0.070 0.209h0.696c0 0.192-0.156 0.348-0.348 0.348v0-0.348zM2.574 16.487c-0.113 0-0.214 0.054-0.278 0.138l-0.001 0.001c0.049-0.069 0.122-0.119 0.206-0.139l0.002-0v0.696c0.019 0.004 0.040 0.006 0.062 0.006 0.082 0 0.157-0.028 0.217-0.076l-0.001 0.001c-0.057 0.043-0.13 0.070-0.209 0.070v0-0.696zM2.296 16.626l-0.139 0.278h0.696c0.004 0.015 0.006 0.031 0.006 0.048 0 0.064-0.029 0.122-0.075 0.16l-0 0-0.487-0.487zM2.713 17.183c0.057-0.035 0.104-0.082 0.138-0.137l0.001-0.002-0.070 0.070-0.487-0.487c-0.057 0.035-0.104 0.082-0.138 0.137l-0.001 0.002 0.070-0.070 0.487 0.487zM2.296 16.626v0zM2.296 16.626l-0.139 0.278h0.696v0.139l-0.139 0.139-0.487-0.557zM2.852 16.974h-0.070zM2.226 16.696l-0.070 0.139v0.139h0.696l-0.139 0.209-0.487-0.487zM2.087 16.974v0.070s0 0.139 0.139 0.209l0.487-0.487c0.035 0.038 0.059 0.085 0.069 0.137l0 0.002s0 0.070 0 0h-0.696zM2.504 17.391v0zM2.783 17.252v0 0z"></path>
            <path d="M2.783 17.252h0.070l0.348 0.278h0.487c0.049-0.044 0.095-0.090 0.138-0.137l0.001-0.002h0.070l0.209 0.139h0.139l0.417 0.139h0.348c0.139 0.070 0.278 0.139 0.417 0.070h0.417c0.076 0.082 0.145 0.173 0.204 0.271l0.004 0.008 0.209 0.209c0.209 0.209 0.557 0.278 0.835 0.139 0.139 0 0.278-0.139 0.348-0.209 0.010-0 0.023-0 0.035-0s0.024 0 0.037 0h-0.002l0.348-0.348-0.070-0.278-0.278-0.139-0.278 0.070-0.209 0.139-0.278 0.139-0.139-0.070v-0.139l-0.139-0.139c-0.139-0.139-0.278-0.348-0.557-0.417h-0.417v0.070c-0.021 0.001-0.045 0.001-0.070 0.001s-0.049-0-0.073-0.001l0.003 0h-0.139l-0.209-0.139c-0.042-0.009-0.090-0.014-0.139-0.014s-0.097 0.005-0.144 0.015l0.005-0.001h-0.417l-0.139-0.209c-0.062-0.020-0.134-0.032-0.209-0.032s-0.146 0.012-0.214 0.033l0.005-0.001h-0.278l-0.139 0.070h-0.139v-0.070h-0.139c-0.139-0.139-0.278-0.139-0.417-0.139s-0.278 0-0.417 0.209v0.209l0.209 0.139 0.348 0.070z"></path>
            <path d="M7.583 17.948c0.278-0.139 0.487-0.209 0.765-0.209 0.062-0.002 0.135-0.003 0.209-0.003s0.146 0.001 0.219 0.003l-0.011-0 0.348-0.070c0.487-0.070 1.043-0.278 1.252-0.765v-0.070l0.070-0.070v-0.139h0.070c0.021-0.002 0.045-0.003 0.070-0.003s0.049 0.001 0.073 0.003l-0.003-0h0.070c0.139 0 0.278 0 0.417-0.139 0.081-0.035 0.15-0.082 0.209-0.139l-0 0v-0.070l0.139-0.070h0.209c0.209 0 0.348 0 0.487-0.139h0.209l0.626-0.139c0.278 0 0.557 0.139 0.835 0.348 0.139 0 0.278 0.139 0.348 0.209h0.070l0.417 0.278c0.139 0.070 0.348 0 0.417-0.070v-0.348c-0.438-0.47-1.006-0.812-1.647-0.969l-0.023-0.005c-0.278-0.070-0.626-0.139-0.904-0.070l-0.417 0.070h-0.070c-0.141 0.061-0.304 0.11-0.475 0.138l-0.012 0.002c-0.139 0-0.278 0-0.417 0.139-0.139 0-0.209 0.139-0.348 0.209l-0.070 0.070h-0.278c-0.157 0-0.303 0.052-0.419 0.14l0.002-0.001c-0.128 0.108-0.224 0.25-0.276 0.411l-0.002 0.006-0.139 0.209-0.557 0.278h-0.417v0.070h-0.487c-0.365 0.044-0.681 0.223-0.903 0.485l-0.002 0.002c-0.057 0.038-0.093 0.102-0.093 0.174s0.037 0.136 0.093 0.173l0.001 0c0.040 0.023 0.088 0.037 0.139 0.037s0.099-0.014 0.14-0.038l-0.001 0.001zM42.087 14.261v0.696l-0.070 0.139c-0.002 0.031-0.003 0.068-0.003 0.104s0.001 0.073 0.003 0.109l-0-0.005v0.278h0.070l0.139 0.070h0.139l0.139-0.278v-1.183h-0.209l-0.209 0.070z"></path>
            <path d="M42.296 14.4v0.417c0 0.010 0.001 0.023 0.001 0.035s-0 0.024-0.001 0.037l0-0.002-0.070 0.139v0.139l0.070 0.209h0.348l0.070-0.209v-0.765c0-0.115-0.093-0.209-0.209-0.209v0h-0.139l-0.070 0.209zM28.8 3.965v1.252c0.030 0.018 0.066 0.028 0.104 0.028s0.074-0.010 0.105-0.029l-0.001 0.001h0.070l0.139-0.139v-1.183c0-0.139-0.139-0.139-0.209-0.139h-0.139v0.209zM3.826 6.122v0.904l0.070 0.209v0.139l0.070 0.209c0.039 0.046 0.096 0.075 0.16 0.075 0.017 0 0.034-0.002 0.050-0.006l-0.001 0 0.070-0.139c0.011-0.052 0.017-0.112 0.017-0.174s-0.006-0.122-0.018-0.18l0.001 0.006v-0.696l-0.070-0.348c0-0.139-0.139-0.139-0.209-0.139h-0.139l-0.070 0.139z"></path>
            <path d="M4.104 6.47v0.070c-0.016 0.177-0.024 0.383-0.024 0.591s0.009 0.414 0.026 0.618l-0.002-0.027 0.139 0.139c0.030 0.018 0.066 0.028 0.104 0.028s0.074-0.010 0.105-0.029l-0.001 0.001 0.070-0.139c0.010-0.083 0.016-0.18 0.016-0.278s-0.006-0.195-0.017-0.29l0.001 0.012v-0.696l-0.278-0.209-0.209 0.139z"></path>
            <path d="M30.887 9.6l-3.13 9.948h-1.183l-2.504-7.583c-0.038-0.107-0.086-0.27-0.128-0.435l-0.011-0.052c-0.061 0.24-0.109 0.402-0.16 0.563l0.021-0.076-2.574 7.652h-1.183l-3.13-10.017h1.183l0.348 0.070 0.139 0.278 2.087 6.957c0.057 0.232 0.106 0.516 0.137 0.806l0.002 0.029c0.086-0.43 0.159-0.734 0.238-1.035l-0.029 0.131 2.365-6.957 0.139-0.139 0.278-0.139h0.417l0.278 0.070 0.209 0.278 2.296 6.957 0.139 0.348 0.070 0.417c0.070-0.346 0.142-0.627 0.226-0.902l-0.018 0.067 2.087-6.957s0-0.139 0.139-0.209l0.278-0.070h1.043z"></path>
        </symbol>
        <symbol id="icon-mobile-menu" viewBox="0 0 32 32">
            <path stroke-linejoin="round" stroke-linecap="round" stroke-miterlimit="4" stroke-width="1.6" d="M6.666 22.667h10.667M6.666 16h18.667M14.666 9.333h10.667"></path>
        </symbol>
        <symbol id="icon-instagram" viewBox="0 0 32 32">
            <path d="M16 10c-1.187 0-2.347 0.352-3.333 1.011s-1.756 1.596-2.21 2.693c-0.454 1.096-0.573 2.303-0.341 3.467s0.803 2.233 1.642 3.072c0.839 0.839 1.908 1.411 3.072 1.642s2.37 0.113 3.467-0.341c1.096-0.454 2.033-1.223 2.693-2.21s1.011-2.147 1.011-3.333c-0.002-1.591-0.634-3.116-1.759-4.241s-2.65-1.758-4.241-1.759zM16 20c-0.791 0-1.565-0.235-2.222-0.674s-1.171-1.064-1.473-1.795c-0.303-0.731-0.382-1.535-0.228-2.311s0.535-1.489 1.095-2.048c0.559-0.559 1.272-0.94 2.048-1.095s1.58-0.075 2.311 0.228c0.731 0.303 1.356 0.815 1.795 1.473s0.674 1.431 0.674 2.222c0 1.061-0.421 2.078-1.172 2.828s-1.768 1.172-2.828 1.172zM22 3h-12c-1.856 0.002-3.635 0.74-4.948 2.052s-2.050 3.092-2.052 4.948v12c0.002 1.856 0.74 3.635 2.052 4.948s3.092 2.050 4.948 2.052h12c1.856-0.002 3.635-0.74 4.948-2.052s2.050-3.092 2.052-4.948v-12c-0.002-1.856-0.74-3.635-2.052-4.948s-3.092-2.050-4.948-2.052zM27 22c0 1.326-0.527 2.598-1.465 3.535s-2.209 1.465-3.535 1.465h-12c-1.326 0-2.598-0.527-3.536-1.465s-1.464-2.209-1.464-3.535v-12c0-1.326 0.527-2.598 1.464-3.536s2.209-1.464 3.536-1.464h12c1.326 0 2.598 0.527 3.535 1.464s1.465 2.209 1.465 3.536v12zM24 9.5c0 0.297-0.088 0.587-0.253 0.833s-0.399 0.439-0.673 0.552c-0.274 0.114-0.576 0.143-0.867 0.085s-0.558-0.201-0.768-0.411-0.353-0.477-0.411-0.768c-0.058-0.291-0.028-0.593 0.085-0.867s0.306-0.508 0.553-0.673 0.537-0.253 0.833-0.253c0.398 0 0.779 0.158 1.061 0.439s0.439 0.663 0.439 1.061z"></path>
        </symbol>
        <symbol id="icon-facebook" viewBox="0 0 32 32">
            <path d="M16 3c-2.571 0-5.085 0.762-7.222 2.191s-3.804 3.459-4.788 5.834c-0.984 2.375-1.241 4.989-0.74 7.511s1.74 4.838 3.558 6.656c1.818 1.818 4.134 3.056 6.656 3.558s5.136 0.244 7.511-0.74c2.375-0.984 4.406-2.65 5.834-4.788s2.191-4.651 2.191-7.222c-0.004-3.447-1.374-6.751-3.812-9.188s-5.742-3.808-9.188-3.812zM17 26.954v-7.954h3c0.265 0 0.52-0.105 0.707-0.293s0.293-0.442 0.293-0.707-0.105-0.52-0.293-0.707c-0.187-0.188-0.442-0.293-0.707-0.293h-3v-3c0-0.53 0.211-1.039 0.586-1.414s0.884-0.586 1.414-0.586h2c0.265 0 0.52-0.105 0.707-0.293s0.293-0.442 0.293-0.707-0.105-0.52-0.293-0.707c-0.187-0.188-0.442-0.293-0.707-0.293h-2c-1.061 0-2.078 0.421-2.828 1.172s-1.172 1.768-1.172 2.828v3h-3c-0.265 0-0.52 0.105-0.707 0.293s-0.293 0.442-0.293 0.707 0.105 0.52 0.293 0.707c0.188 0.188 0.442 0.293 0.707 0.293h3v7.954c-2.819-0.257-5.43-1.591-7.291-3.725s-2.827-4.902-2.698-7.73c0.129-2.828 1.343-5.497 3.389-7.453s4.768-3.047 7.599-3.047c2.831 0 5.553 1.091 7.599 3.047s3.261 4.625 3.389 7.453c0.129 2.828-0.838 5.596-2.698 7.73s-4.472 3.468-7.291 3.725z"></path>
        </symbol>
        <symbol id="icon-telegram" viewBox="0 0 32 32">
            <path d="M29.609 3.274c-0.155-0.134-0.343-0.223-0.545-0.257s-0.409-0.013-0.6 0.061l-25.333 9.914c-0.359 0.14-0.663 0.392-0.866 0.719s-0.294 0.712-0.26 1.095c0.034 0.384 0.192 0.746 0.45 1.032s0.602 0.481 0.98 0.555l6.564 1.289v7.319c-0.001 0.399 0.117 0.788 0.34 1.119s0.54 0.587 0.91 0.735c0.369 0.151 0.776 0.187 1.166 0.104s0.747-0.282 1.023-0.57l3.165-3.283 5.021 4.395c0.362 0.321 0.829 0.499 1.314 0.5 0.212-0 0.423-0.034 0.625-0.099 0.33-0.105 0.627-0.294 0.861-0.549s0.397-0.567 0.473-0.905l5.074-22.073c0.045-0.199 0.036-0.407-0.028-0.601s-0.179-0.367-0.333-0.501zM21.967 7.774l-11.199 8.020-6.2-1.216 17.399-6.804zM11.999 25v-5.935l3.099 2.717-3.099 3.218zM22.941 26l-10.335-9.063 14.875-10.661-4.54 19.724z"></path>
        </symbol>
        <symbol id="icon-bus" viewBox="0 0 32 32">
            <path d="M9.385 26.667c-0.189 0-0.347-0.064-0.475-0.192s-0.192-0.286-0.192-0.475v-2.528c-0.434-0.188-0.885-0.589-1.351-1.201s-0.7-1.318-0.7-2.117v-12.154c0-1.383 0.749-2.396 2.246-3.037s3.859-0.963 7.087-0.963c3.344 0 5.736 0.308 7.175 0.925s2.159 1.642 2.159 3.075v12.154c0 0.798-0.233 1.504-0.7 2.117s-0.917 1.013-1.351 1.201v2.528c0 0.189-0.064 0.347-0.192 0.475s-0.286 0.192-0.475 0.192h-0.308c-0.189 0-0.347-0.064-0.475-0.192s-0.192-0.286-0.192-0.475v-2h-11.282v2c0 0.189-0.064 0.347-0.192 0.475s-0.286 0.192-0.475 0.192h-0.308zM8 14.667h16v-5.949h-16v5.949zM11.339 20.821c0.415 0 0.765-0.145 1.052-0.436s0.429-0.643 0.429-1.058-0.145-0.765-0.435-1.052c-0.29-0.286-0.643-0.429-1.058-0.429s-0.765 0.145-1.052 0.436c-0.286 0.29-0.429 0.643-0.429 1.058s0.145 0.765 0.435 1.052c0.29 0.286 0.643 0.429 1.058 0.429zM20.673 20.821c0.415 0 0.765-0.145 1.052-0.436s0.429-0.643 0.429-1.058-0.145-0.765-0.436-1.052c-0.29-0.286-0.643-0.429-1.058-0.429s-0.765 0.145-1.052 0.436c-0.286 0.29-0.429 0.643-0.429 1.058s0.145 0.765 0.436 1.052c0.29 0.286 0.643 0.429 1.058 0.429zM8.138 7.385h15.754c-0.231-0.685-0.943-1.199-2.137-1.54s-3.107-0.512-5.74-0.512c-2.617 0-4.523 0.173-5.717 0.519s-1.914 0.857-2.16 1.532zM10.667 22.667h10.667c0.733 0 1.361-0.261 1.883-0.783s0.783-1.15 0.783-1.883v-4h-16v4c0 0.733 0.261 1.361 0.783 1.883s1.15 0.783 1.883 0.783z"></path>
        </symbol>
        <symbol id="icon-card" viewBox="0 0 32 32">
            <path d="M28 5.25h-24c-1.518 0.002-2.748 1.232-2.75 2.75v16c0.002 1.518 1.232 2.748 2.75 2.75h24c1.518-0.002 2.748-1.232 2.75-2.75v-16c-0.002-1.518-1.232-2.748-2.75-2.75zM4 6.75h24c0.69 0.001 1.249 0.56 1.25 1.25v1.25h-26.5v-1.25c0.001-0.69 0.56-1.249 1.25-1.25zM28 25.25h-24c-0.69-0.001-1.249-0.56-1.25-1.25v-13.25h26.5v13.25c-0.001 0.69-0.56 1.249-1.25 1.25zM9.645 17.628c1.455 0 2.635-1.18 2.635-2.635s-1.18-2.635-2.635-2.635-2.635 1.18-2.635 2.635c0.001 1.455 1.18 2.633 2.635 2.635zM9.645 13.858c0.627 0 1.135 0.508 1.135 1.135s-0.508 1.135-1.135 1.135-1.135-0.508-1.135-1.135c0.001-0.627 0.508-1.134 1.135-1.135zM9.645 18.811c-2.15 0.009-3.947 1.51-4.41 3.52l-0.006 0.031c-0.011 0.048-0.017 0.103-0.017 0.16 0 0.414 0.336 0.75 0.75 0.75 0.357 0 0.656-0.25 0.731-0.585l0.001-0.005c0.309-1.366 1.512-2.371 2.951-2.371s2.642 1.005 2.947 2.351l0.004 0.020c0.077 0.338 0.375 0.587 0.732 0.587 0.414 0 0.75-0.336 0.75-0.75 0-0.056-0.006-0.11-0.018-0.163l0.001 0.005c-0.469-2.041-2.265-3.541-4.414-3.551h-0.001l-0.001 0.001zM26 13.25h-8c-0.414 0-0.75 0.336-0.75 0.75s0.336 0.75 0.75 0.75h8c0.414 0 0.75-0.336 0.75-0.75s-0.336-0.75-0.75-0.75zM26 17.25h-8c-0.414 0-0.75 0.336-0.75 0.75s0.336 0.75 0.75 0.75h8c0.414 0 0.75-0.336 0.75-0.75s-0.336-0.75-0.75-0.75zM26 21.25h-8c-0.414 0-0.75 0.336-0.75 0.75s0.336 0.75 0.75 0.75h8c0.414 0 0.75-0.336 0.75-0.75s-0.336-0.75-0.75-0.75z"></path>
        </symbol>
        <symbol id="icon-guide" viewBox="0 0 32 32">
            <path d="M12 21.667c-0.467 0-0.861-0.161-1.183-0.483s-0.483-0.717-0.483-1.183c0-0.467 0.161-0.861 0.483-1.183s0.717-0.483 1.183-0.483c0.467 0 0.861 0.161 1.183 0.483s0.483 0.717 0.483 1.183c0 0.467-0.161 0.861-0.483 1.183s-0.717 0.483-1.183 0.483zM20 21.667c-0.467 0-0.861-0.161-1.183-0.483s-0.483-0.717-0.483-1.183 0.161-0.861 0.483-1.183c0.322-0.322 0.717-0.483 1.183-0.483s0.861 0.161 1.183 0.483c0.322 0.322 0.483 0.717 0.483 1.183s-0.161 0.861-0.483 1.183c-0.322 0.322-0.717 0.483-1.183 0.483zM16 29.333c2.978 0 5.5-1.033 7.567-3.1s3.1-4.589 3.1-7.567c0-0.533-0.033-1.050-0.1-1.55s-0.189-0.983-0.367-1.45c-0.467 0.111-0.933 0.194-1.4 0.25s-0.955 0.083-1.467 0.083c-2.022 0-3.933-0.433-5.733-1.3s-3.333-2.078-4.6-3.633c-0.711 1.733-1.728 3.239-3.050 4.517s-2.861 2.239-4.617 2.883v0.2c0 2.978 1.033 5.5 3.1 7.567s4.589 3.1 7.567 3.1zM12.944 8.423c1.087 2.171 2.623 3.754 4.608 4.75s3.912 1.494 5.782 1.494c0.414 0 0.821-0.021 1.221-0.063s0.798-0.111 1.195-0.206c-0.848-1.983-2.161-3.545-3.941-4.686s-3.715-1.712-5.808-1.712c-0.585 0-1.12 0.034-1.605 0.101s-0.969 0.175-1.451 0.322zM5.516 16.941c1.373-0.61 2.763-1.61 4.172-3s2.23-3.137 2.464-5.241c-1.783 0.679-3.259 1.747-4.428 3.205s-1.905 3.137-2.208 5.036zM4.567 15.279c0.485-1.776 1.337-3.341 2.555-4.696s2.689-2.36 4.414-3.017c-0.48-0.603-1.076-1.092-1.787-1.467s-1.496-0.562-2.355-0.562c-1.481 0-2.733 0.512-3.756 1.537s-1.535 2.279-1.535 3.763c0 0.934 0.226 1.788 0.677 2.561s1.047 1.4 1.787 1.88zM16.005 30.667c-1.659 0-3.22-0.315-4.68-0.945s-2.732-1.485-3.812-2.565c-1.081-1.080-1.936-2.35-2.566-3.81s-0.946-3.020-0.946-4.68c0-0.351 0.015-0.698 0.044-1.042s0.081-0.677 0.156-0.999c-1.041-0.561-1.873-1.354-2.496-2.38s-0.935-2.162-0.935-3.407c0-1.844 0.644-3.411 1.933-4.7s2.856-1.933 4.7-1.933c1.127 0 2.163 0.262 3.109 0.786s1.719 1.226 2.319 2.106c0.509-0.144 1.030-0.251 1.561-0.323s1.067-0.108 1.608-0.108c1.66 0 3.22 0.315 4.68 0.945s2.73 1.484 3.81 2.564 1.935 2.349 2.565 3.809c0.63 1.459 0.945 3.019 0.945 4.678s-0.315 3.22-0.945 4.68c-0.63 1.461-1.484 2.731-2.564 3.812s-2.349 1.936-3.809 2.566c-1.459 0.63-3.019 0.946-4.678 0.946z"></path>
        </symbol>
        <symbol id="icon-ticket" viewBox="0 0 32 32">
            <path d="M30 13.75c0.414 0 0.75-0.336 0.75-0.75v-5c0-0.414-0.336-0.75-0.75-0.75h-28c-0.414 0-0.75 0.336-0.75 0.75v5c0 0.414 0.336 0.75 0.75 0.75 1.243 0 2.25 1.007 2.25 2.25s-1.007 2.25-2.25 2.25c-0.414 0-0.75 0.336-0.75 0.75v5c0 0.414 0.336 0.75 0.75 0.75h28c0.414 0 0.75-0.336 0.75-0.75v-5c0-0.414-0.336-0.75-0.75-0.75-1.243 0-2.25-1.007-2.25-2.25s1.007-2.25 2.25-2.25zM29.25 19.674v3.576h-26.5v-3.576c1.724-0.361 3-1.869 3-3.674s-1.276-3.313-2.975-3.67l-0.024-0.004v-3.576h26.5v3.576c-1.724 0.361-3 1.869-3 3.674s1.276 3.313 2.975 3.67l0.024 0.004z"></path>
        </symbol>
        <symbol id="icon-arrow-left" viewBox="0 0 155 32">
            <path d="M1.252 14.586c-0.781 0.781-0.781 2.047 0 2.828l12.728 12.728c0.781 0.781 2.047 0.781 2.828 0s0.781-2.047 0-2.828l-11.314-11.314 11.314-11.314c0.781-0.781 0.781-2.047 0-2.828s-2.047-0.781-2.828 0l-12.728 12.728zM154.667 14h-152v4h152v-4z"></path>
        </symbol>
        <symbol id="icon-arrow-right" viewBox="0 0 155 32">
            <path d="M153.415 17.414c0.78-0.781 0.78-2.047 0-2.829l-12.728-12.728c-0.781-0.781-2.048-0.781-2.829 0-0.78 0.781-0.78 2.047 0 2.828l11.315 11.314-11.315 11.314c-0.78 0.781-0.78 2.047 0 2.828 0.781 0.781 2.048 0.781 2.829 0l12.728-12.728zM0 18h152v-4h-152v4z"></path>
        </symbol>
        <symbol id="icon-star" viewBox="0 0 35 32">
            <path d="M17.455 0l4.617 11.1 11.984 0.961-9.13 7.821 2.789 11.694-10.259-6.266-10.26 6.266 2.789-11.694-9.13-7.821 11.983-0.961 4.617-11.1z"></path>
        </symbol>
    </defs>
</svg>
