<svg aria-hidden="true" style="position: absolute; width: 0; height: 0; overflow: hidden;" version="1.1" xmlns="http://www.w3.org/2000/svg" xmlns:xlink="http://www.w3.org/1999/xlink">
    <defs>
        <symbol id="icon-header-logo" viewBox="0 0 45 32">
            <path d="M13.565 15.791c0 0.417 0.417 0.557 0.696 0.696l0.278 0.209 0.070 0.139 0.139 0.070 0.278 0.209c0.209 0.139 0.417 0.070 0.626 0h0.070v0.070l0.070 0.139c0.139 0.209 0.348 0.278 0.626 0.278v0.070l0.070 0.348v0.696c0 0.209 0.139 0.417 0.348 0.626l0.209 0.070 0.139 0.070h0.139l0.139 0.209v0.070l0.278 0.557 0.209 0.209 0.209 0.278 0.348 0.974 0.139 0.348h-0.835c-0.052-0.020-0.111-0.032-0.174-0.032s-0.122 0.012-0.177 0.033l0.003-0.001h-0.278v-0.209l-0.209-0.070s-0.209-0.070-0.278 0h-0.139c-0.421 0.244-0.7 0.693-0.7 1.208 0 0.040 0.002 0.080 0.005 0.119l-0-0.005v0.417l-0.139 0.070c-0.077 0.063-0.146 0.131-0.207 0.206l-0.002 0.003c-0.209 0.209-0.278 0.417-0.278 0.557l-0.070 0.139-0.139 0.417-0.139 0.139h-0.139c-0.209 0-0.487 0.139-0.487 0.348v0.209l0.070 0.070 0.070 0.139 0.278 0.209 0.209 0.070c0.38 0.126 0.679 0.244 0.971 0.375l-0.067-0.027c0.209 0 0.417 0 0.557-0.209l0.278-0.139 0.139-0.139c0.139-0.139 0.278-0.139 0.417-0.139 0.278 0 0.487 0.209 0.557 0.417 0.032 0.162 0.173 0.283 0.342 0.283 0.081 0 0.156-0.028 0.216-0.075l-0.001 0.001c0-0.070 0.070-0.209 0-0.278-0.070-0.696-0.835-1.183-1.53-0.974l-0.557 0.348-0.348 0.278h-0.139l-0.139-0.139c-0.037-0.022-0.083-0.045-0.13-0.066l-0.009-0.003c0.070-0.139 0.209-0.209 0.209-0.348 0.139-0.139 0.139-0.348 0.209-0.487v-0.139l0.696-0.835c0.139-0.278 0.070-0.487 0-0.696 0-0.209 0-0.348 0.139-0.487h0.139c0.209 0.209 0.487 0.209 0.696 0.139h0.070c0.139 0.070 0.278 0.139 0.417 0.070h0.139v-0.070h0.348c0.209 0.139 0.487 0.139 0.696 0 0.139 0 0.209-0.209 0.209-0.348v-0.348l-0.139-0.348-0.417-1.252-0.417-0.557-0.139-0.139v-0.070l-0.070-0.139c-0.034-0.151-0.058-0.244-0.083-0.337l0.014 0.059-0.417-0.348c-0.079-0.050-0.171-0.097-0.267-0.135l-0.011-0.004-0.070-0.070v-0.696c0-0.278 0-0.557-0.139-0.835 0-0.139-0.139-0.278-0.278-0.348l-0.348-0.070-0.139-0.070v-0.070c-0.068-0.072-0.136-0.14-0.206-0.206l-0.002-0.002c-0.139-0.209-0.487-0.348-0.835-0.209l-0.348-0.139-0.278-0.139h-0.209l-0.209-0.139c-0.139 0-0.278-0.139-0.348-0.278h-0.139l-0.209-0.139-0.139 0.070-0.070 0.209z"></path>
            <path d="M22.47 21.704v-0.209c-0.557 0-1.113 0.070-1.67 0.348-0.209 0.070-0.417 0.209-0.557 0.417-0.139 0.070-0.209 0.209-0.209 0.348h-0.139l0.139 0.070v0.348l0.139 0.209h0.139c0.209 0 0.348 0.209 0.278 0.348l-0.070 0.139-0.278 0.070h-0.278l-0.417 0.070c-0.070 0-0.209 0-0.278 0.139h-0.139c0 0.010 0 0.023 0 0.035s-0 0.024-0 0.037l0-0.002c-0.018-0.177-0.167-0.315-0.348-0.315-0.193 0-0.35 0.157-0.35 0.35 0 0.012 0.001 0.024 0.002 0.036l-0-0.002h-0.139l0.139 0.209-0.139 0.209-0.070-0.139h-0.070c-0.050-0.029-0.11-0.047-0.174-0.047s-0.124 0.017-0.176 0.047l0.002-0.001c-0.139 0-0.278 0.070-0.209 0.278h-0.070v0.139l0.278 1.53c0 0.139 0.209 0.209 0.278 0.139 0.139 0 0.278-0.070 0.278-0.209v-0.835c0.139 0 0.278 0 0.278-0.209l0.070-0.070h0.139l-0.070-0.139 0.139-0.348h0.139l0.348-0.070h0.070l0.139-0.139c0.073-0.012 0.158-0.019 0.243-0.019s0.17 0.007 0.253 0.020l-0.009-0.001c0.209 0 0.417 0 0.696-0.139 0.278-0.209 0.487-0.626 0.487-0.974-0.070-0.348-0.278-0.557-0.557-0.696l0.139-0.139 0.417-0.209c0.271-0.097 0.583-0.153 0.909-0.153 0.096 0 0.192 0.005 0.285 0.014l-0.012-0.001c0.070 0 0.139 0 0.209-0.139l0.070-0.209c0-0.139-0.070-0.278-0.278-0.348v0.209zM22.47 21.704c0.209 0 0.209 0.278 0 0.278-0.417 0-0.835 0-1.183 0.209l-1.043 0.417c0.070-0.278 0.348-0.487 0.696-0.696 0.417-0.139 0.974-0.278 1.53-0.209z"></path>
            <path d="M22.191 22.052l0.139 0.070v0.278h0.139c0.070 0.139 0.139 0.139 0.278 0.209h0.070v0.278c0 0.139 0 0.209 0.139 0.278h0.070c0.278 0 0.487 0.139 0.696 0.278h0.209l0.557 0.348c0.221 0.060 0.474 0.094 0.735 0.094 0.133 0 0.264-0.009 0.393-0.026l-0.015 0.002h0.765l0.348 0.139-0.278 0.139h-0.139l-1.252 1.183-0.278 0.278-0.209 0.348v0.417c0.139 0.070 0.209 0.209 0.417 0.209h0.417c0.141-0.066 0.232-0.113 0.323-0.161l-0.044 0.022h0.209v0.139l0.139 0.139 0.417 0.139h0.139l0.070 0.348v1.113c0 0.278 0 0.626 0.348 0.835 0.487 0.417 1.183 0.278 1.6 0 0.266-0.201 0.495-0.43 0.689-0.687l0.006-0.009c0.209-0.187 0.435-0.37 0.671-0.54l0.024-0.017c0.139-0.139 0.139-0.278 0-0.417 0-0.070-0.139-0.139-0.278-0.070-0.278 0.070-0.557 0.278-0.696 0.417l-0.278 0.278c-0.089 0.098-0.18 0.189-0.275 0.275l-0.003 0.003c-0.169 0.164-0.381 0.285-0.616 0.346l-0.010 0.002c-0.209 0-0.348 0-0.487-0.139l-0.070-0.278v-0.487c0.070-0.278 0.139-0.557 0-0.835 0-0.209 0-0.557-0.209-0.765-0.091-0.1-0.209-0.173-0.343-0.208l-0.005-0.001c-0.031-0.006-0.067-0.009-0.104-0.009s-0.073 0.003-0.108 0.009l0.004-0.001c-0.021 0.001-0.045 0.002-0.070 0.002s-0.049-0.001-0.073-0.003l0.003 0-0.139-0.209-0.348-0.209h-0.417l0.417-0.348c0.417-0.348 0.904-0.696 1.391-0.904l0.278-0.209 0.070-0.209-0.070-0.278c-0.070-0.139-0.278-0.209-0.417-0.278l-0.417-0.139c-0.308-0.093-0.661-0.146-1.027-0.146-0.079 0-0.158 0.003-0.236 0.007l0.011-0.001h-0.696l-0.696-0.278-0.070-0.070c-0.112-0.066-0.25-0.136-0.391-0.198l-0.027-0.011h0.417c0.209 0 0.417 0 0.557-0.139l0.209-0.209v-0.348c-0.209-0.417-0.696-0.557-0.974-0.557l-1.113 0.070h-0.348v0.070c-0.209 0.070-0.209 0.278-0.209 0.348l0.070 0.209z"></path>
            <path d="M29.913 27.965h-0.278c-0.139-0.139-0.139-0.278-0.070-0.417 0.209-0.278 0.417-0.278 0.626-0.348h0.139c0.052 0.002 0.113 0.003 0.174 0.003s0.122-0.001 0.183-0.003l-0.009 0c0.177-0.098 0.32-0.24 0.415-0.412l0.003-0.005 0.487-0.348-0.278-0.209c-0.209-0.070-0.348-0.278-0.417-0.417-0.442-0.517-0.76-1.152-0.9-1.852l-0.004-0.026v-0.696c0-0.278 0.278-0.417 0.417-0.487l0.348-0.209 0.278-0.209 0.696-0.417 0.557-0.348 0.139-0.070 0.557-0.348h0.974v-0.070l0.278-0.139c0.104-0.033 0.224-0.052 0.348-0.052s0.244 0.019 0.356 0.055l-0.008-0.002 0.139-0.070v-0.070h0.070c0.139-0.139 0.209-0.278 0.417-0.348h0.348l0.278-0.139c0.139 0 0.209 0 0.278-0.139l0.278-0.139c0.209-0.139 0.417-0.139 0.696-0.139h0.070c0.031 0 0.068 0 0.104 0s0.073-0 0.11-0.001l-0.006 0h0.209v-0.278l0.070-0.348 0.209-0.696M29.983 27.965l8.348-9.322M29.983 27.965l0.139-0.070h0.904M29.913 27.826h1.043M38.122 18.504l0.209 0.070M38.122 18.574h0.209M38.122 18.574c0.070-0.278 0.209-0.487 0.487-0.557l0.139-0.070h0.139l0.209-0.139 0.209-0.209 0.278-0.209 0.348-0.139c0.139 0 0.278 0 0.417 0.139l0.139 0.139v0.209c-0.070 0.070-0.209 0.209-0.348 0.139-0.070 0-0.139 0-0.209 0.139l-0.209 0.139-0.070 0.070c-0.209 0.209-0.417 0.278-0.696 0.348l-0.139 0.209-0.139 0.278-0.070 0.696v0.139c-0.070 0.278-0.278 0.487-0.487 0.557-0.209 0.139-0.487 0.139-0.696 0.070M38.33 18.574c0-0.139 0.139-0.348 0.348-0.417h0.139l0.417-0.209c0-0.070 0-0.139 0.139-0.139 0.209-0.278 0.487-0.487 0.904-0.278 0.139 0 0 0.209-0.139 0.209-0.209 0-0.417 0.139-0.557 0.278l-0.070 0.139-0.626 0.278c-0.209 0.070-0.278 0.348-0.348 0.626l-0.139 0.696v0.070c-0.070 0.557-0.557 0.557-0.974 0.557M37.426 20.522v-0.139M37.426 20.522c-0.014-0.001-0.030-0.001-0.047-0.001-0.221 0-0.424 0.079-0.581 0.211l0.001-0.001M37.426 20.522v-0.139M37.426 20.383c-0.278 0-0.487 0-0.696 0.209M31.861 26.157c-0.417 0.070-0.696-0.209-0.974-0.557-0.38-0.485-0.65-1.073-0.762-1.716l-0.003-0.023v-0.070c-0.070-0.209-0.070-0.417 0-0.557 0-0.209 0.139-0.278 0.278-0.417h0.070l0.278-0.209c0.139 0 0.209-0.139 0.348-0.209l0.626-0.348 0.626-0.417 0.070-0.070 0.557-0.278 0.278-0.070h0.348l0.417-0.070 0.209-0.070h0.557c0.139 0 0.278-0.070 0.348-0.209l0.417-0.278 0.278-0.070 0.417-0.070 0.209-0.209 0.278-0.139 0.626-0.139h0.070c0.209 0 0.417 0.070 0.557 0v-0.278l0.070-0.139-6.122 6.678zM31.861 26.157c0.209 0 0.417 0 0.487-0.209M31.93 26.226l0.417-0.278M32.348 25.948l0.278-0.209 0.070 0.139M32.348 25.948h0.417M32.765 25.948c0.070 0.139 0.209 0.209 0.348 0.139l0.139-0.070 0.070-0.070M32.765 25.948h0.557M33.322 25.948l0.278-0.209M33.322 25.948l0.487-0.209M33.6 25.739h0.209M33.6 25.739l0.070 0.209M33.67 25.739v0.209M33.809 25.739l-0.139 0.209M33.809 25.739l-0.139 0.209M33.67 25.948c-0.081 0.035-0.15 0.082-0.209 0.139l0-0h-0.070v0.070l-0.209 0.070c-0.278 0.139-0.487 0-0.557-0.209M33.67 25.948h-0.974M33.809 25.948l0.209-0.070h-0.209zM32.696 25.948c0.010-0.001 0.023-0.001 0.035-0.001s0.024 0 0.036 0.001l-0.002-0h-0.070M32.696 25.948c-0.002 0.021-0.002 0.045-0.002 0.070s0.001 0.049 0.003 0.073l-0-0.003-0.278 0.139M32.696 26.017v-0.070M32.696 25.948l-0.278 0.278M32.417 26.226v0.209M32.417 26.226l0.348 0.139 0.139 0.139 0.139 0.070M33.043 26.574l-0.070 0.139M32.974 26.574v0.139M32.974 26.574h0.696c-0.209 0.139-0.557 0.278-0.696 0.139M32.974 26.713l-0.139-0.070-0.139-0.139-0.348-0.070M32.348 26.435h-0.626M32.417 26.435v-0.139l-0.696 0.209M31.722 26.504l-0.417 0.348c-0.139 0.139-0.278 0.348-0.487 0.417h-0.417l1.391-0.765zM31.026 27.757c0.278 0 0.417-0.209 0.487-0.348l0.139-0.070 0.278-0.209c0.070-0.139 0.209-0.139 0.348-0.139 0.070 0 0.139 0 0.209 0.139l0.348 0.209h0.348c0.042 0.002 0.090 0.003 0.139 0.003s0.098-0.001 0.146-0.004l-0.007 0 0.557-0.278c0.139-0.070 0.278-0.209 0.348-0.417 0.059-0.079 0.107-0.172 0.137-0.272l0.002-0.006v-0.209l0.209-0.209v-0.209c0-0.139-0.070-0.209-0.209-0.278-0.081-0.040-0.176-0.066-0.277-0.070l-0.001-0h-0.626c-0.159 0.056-0.297 0.127-0.424 0.213l0.006-0.004c-0.118-0.095-0.27-0.153-0.435-0.153-0.121 0-0.235 0.031-0.334 0.085l0.004-0.002c-0.139 0-0.209 0.139-0.209 0.209l-0.209 0.139h-0.139l-0.209-0.209c-0.278-0.278-0.557-0.696-0.696-1.043-0.11-0.307-0.184-0.663-0.208-1.032l-0.001-0.012c0.070-0.139 0.139-0.139 0.278-0.209 0.074-0.059 0.165-0.128 0.257-0.194l0.021-0.014c0.139 0 0.209-0.139 0.348-0.209l0.278-0.209v-0.139M30.957 27.826l2.365-5.913c0.021-0.001 0.045-0.001 0.070-0.001s0.049 0 0.073 0.001l-0.004-0h0.209c0.21-0.029 0.398-0.102 0.561-0.212l-0.005 0.003M31.722 22.539l0.487-0.278 0.765-0.487M31.722 22.539l-0.348 0.209-0.278 0.209 0.696-0.417zM32.974 21.774v0zM32.974 21.774h0.696l0.417-0.139h0.070M34.157 21.635l0.070 0.070M34.226 21.565l0.209-0.070h0.348c0.139 0.070 0.278 0 0.417-0.070l0.209-0.139 0.139-0.209 0.417-0.139h0.209l0.487-0.278M34.296 21.565l0.070 0.139M34.365 21.704l2.504-0.835M36.87 20.87l-0.070-0.139M36.87 20.87l-0.070-0.139M34.017 25.809h0.070v0.139l-0.070-0.139zM33.113 25.878v-0.139c0.010-0.002 0.023-0.003 0.035-0.003s0.024 0.001 0.036 0.003l-0.001-0c-0.001 0.010-0.001 0.023-0.001 0.035s0.001 0.024 0.002 0.036l-0-0.002h-0.139zM33.6 25.6c-0.132 0.034-0.248 0.081-0.355 0.143l0.007-0.004-1.809 1.6 0.278-0.278c0.139-0.070 0.348-0.139 0.557-0.070l0.278 0.139 0.209 0.139h0.626c0.209 0 0.348-0.070 0.557-0.209l0.278-0.348 0.070-0.209c0-0.139 0-0.209 0.139-0.278v-0.070l0.139-0.348c0-0.139-0.209-0.278-0.348-0.278h-0.557zM33.043 25.739h-0.070zM31.443 25.739c-0.278-0.278-0.557-0.696-0.696-1.043l0.696 1.113z"></path>
            <path d="M42.365 14.678l0.417-0.070 0.139-0.139h0.139v-0.557c0-0.139-0.139-0.139-0.209-0.209h-0.209v-0.139l0.139-0.139c0.209-0.139 0.348-0.348 0.417-0.557v-0.487c0.002-0.052 0.004-0.113 0.004-0.174s-0.001-0.122-0.004-0.182l0 0.009v-0.209c0.070-0.070 0.139-0.278 0-0.417-0.139-0.278-0.417-0.348-0.696-0.209h-0.070l-0.139 0.070h-0.070c-0.139-0.209-0.278-0.348-0.487-0.417-0.12-0.069-0.261-0.117-0.411-0.138l-0.006-0.001h-0.278v-0.278h-0.070c-0.053-0.15-0.186-0.26-0.346-0.278l-0.002-0-0.348 0.070h-0.209l-0.417-0.278-0.835-0.278-0.348-0.070c-0.139 0-0.278 0-0.417 0.139-0.003 0.021-0.005 0.045-0.005 0.070s0.002 0.049 0.005 0.072l-0-0.003h-0.139v-0.070c-0.239-0.138-0.445-0.299-0.625-0.486l-0.001-0.001c-0.077-0.101-0.147-0.215-0.204-0.336l-0.005-0.011-0.209-0.348c-0.209-0.278-0.557-0.278-0.835-0.278-0.516 0.030-0.992 0.182-1.406 0.425l0.015-0.008h-0.070l-0.209-0.139-0.348 0.070h-0.070c-0.054-0.021-0.099-0.044-0.143-0.072l0.003 0.002-0.487-0.278c-0.052-0.014-0.112-0.022-0.174-0.022s-0.122 0.008-0.179 0.023l0.005-0.001h-0.278l-0.139 0.070h-0.348c-0.122-0.071-0.204-0.199-0.209-0.347l-0-0.001v-0.139l0.070-0.209c0-0.209 0-0.417-0.139-0.557v-0.070c-0.064-0.121-0.113-0.261-0.138-0.409l-0.001-0.008c0-0.070 0-0.139-0.139-0.209h-0.278c-0.139 0-0.278 0.139-0.278 0.348l0.139 0.348c0.059 0.128 0.106 0.22 0.155 0.309l-0.015-0.031v0.348l-0.070 0.209c0 0.487 0.278 0.904 0.696 1.113l0.696 0.070h0.209v-0.139h0.278v0.070l0.626 0.278h0.209c0.1 0.059 0.22 0.093 0.348 0.093s0.248-0.035 0.351-0.095l-0.003 0.002c0.139 0 0.209 0 0.278-0.139 0.26-0.154 0.568-0.254 0.898-0.278l0.007-0h0.278l0.139 0.139v0.139c0.359 0.571 0.885 1.007 1.509 1.245l0.021 0.007h0.417c0.139-0.070 0.209-0.209 0.209-0.278h0.139v0.070c0.415 0.135 0.76 0.276 1.093 0.439l-0.049-0.022 0.209 0.139c0.139 0 0.278 0.139 0.487 0.070l0.070 0.139c0.209 0.209 0.417 0.209 0.696 0.278l0.417 0.070v0.139h0.070l0.070 0.070c0.070 0.139 0.139 0.209 0.348 0.278h0.417l0.070-0.070v1.043l-0.348 0.139h-0.070l-0.070 0.070c-0.070 0-0.139 0-0.209 0.139-0.139 0-0.209 0.209-0.278 0.348 0 0.139 0 0.348 0.209 0.487l-0.070 0.139c-0.209 0.209-0.209 0.487-0.209 0.696l-0.070 0.139h0.139v0.070c0 0.139 0.139 0.209 0.209 0.278h0.209v0.278c0 0.139 0 0.348 0.139 0.487l-0.139 0.557v0.070l-0.070 0.417-0.139 0.139h-0.417l-1.183 0.070c-0.139 0-0.209 0.139-0.278 0.209v0.209l0.209 0.139c0.291 0.047 0.627 0.073 0.97 0.073 0.075 0 0.15-0.001 0.224-0.004l-0.011 0h0.696c0.348-0.139 0.487-0.417 0.487-0.696l0.070-0.278v-0.348l0.139-0.070c0.025-0.057 0.049-0.103 0.074-0.147l-0.004 0.008 0.139-0.417-0.070-0.209c-0.040-0.053-0.086-0.099-0.137-0.138l-0.002-0.001v-0.139c0-0.209 0-0.557-0.348-0.765l-0.139-0.139h0.209zM42.365 14.678v-0.070M42.365 14.748v-0.139M42.365 14.609c-0.209 0-0.348 0-0.417 0.139l0.765-0.278-0.417 0.139z"></path>
            <path d="M31.652 6.887c0-0.139 0.139-0.348 0-0.487 0.009-0.042 0.014-0.090 0.014-0.139s-0.005-0.097-0.015-0.144l0.001 0.005c-0.055-0.062-0.126-0.11-0.205-0.138l-0.003-0.001v-0.139l-0.209-0.209c-0.124-0.127-0.296-0.206-0.486-0.209h-0.001l-0.278 0.070h-0.070l-0.209 0.070h-0.139c-0.066-0.074-0.135-0.142-0.206-0.207l-0.002-0.002h-0.696c0-0.348 0-0.696-0.139-0.974l0.278-0.209c0.209-0.139 0.348-0.348 0.348-0.696 0-0.278-0.209-0.417-0.348-0.557-0.209-0.139-0.348-0.209-0.417-0.417l-0.139-0.278-0.139-0.348c-0.139-0.209-0.278-0.417-0.557-0.557-0.122-0.059-0.266-0.094-0.417-0.094s-0.295 0.035-0.423 0.097l0.006-0.003-0.348-0.070-0.696 0.070-0.139 0.139h-0.209c-0.070 0.139-0.209 0.139-0.278 0.139l-0.209-0.139h-0.070l-0.417-0.070c-0.157 0-0.303 0.052-0.419 0.14l0.002-0.001c-0.139 0.070-0.209 0.209-0.209 0.278l-0.070 0.139-0.139 0.139-0.139 0.209h-0.626l-0.139-0.139-0.417-0.070-0.696 0.139h-0.139l-0.209 0.139h-0.626c-0.765 0.696-1.043 1.6-1.113 2.435-0.278-0.417-0.835-0.696-1.391-0.487-0.056 0.024-0.102 0.048-0.146 0.073l0.007-0.004h-0.278c-0.278-0.139-0.487 0-0.557 0.070v0.070l-0.070-0.070c-0.209-0.487-0.765-0.626-1.183-0.487-0.209 0.070-0.348 0.278-0.487 0.417l-0.487-0.278c-0.209 0-0.487 0-0.696 0.209l-0.070 0.278 0.070 0.278c0.139 0.070 0.348 0.139 0.557 0h0.070v0.139l0.278 0.348c0.209 0.139 0.487 0 0.696-0.139 0.028-0.078 0.052-0.172 0.068-0.268l0.001-0.010v-0.070l0.209-0.209h0.278v0.139l0.139 0.278c0 0.139 0.139 0.209 0.278 0.278h0.278c0.194-0.041 0.361-0.14 0.486-0.278l0.001-0.001c0.209 0.139 0.487 0 0.696 0l0.209-0.139 0.209 0.070 0.348 0.557v0.209l0.070 0.278c0 0.209 0.139 0.417 0.417 0.417h0.417l0.139-0.278 0.070-0.557c0-0.487 0-0.974 0.139-1.461 0.070-0.487 0.278-0.835 0.626-1.113l0.626-0.070 0.209-0.070c0.108-0.038 0.27-0.086 0.435-0.128l0.052-0.011 0.278 0.070 0.487 0.139c0.278 0.070 0.626 0 0.835-0.139 0.278-0.209 0.417-0.417 0.487-0.696l0.070-0.070h0.348l0.209 0.139c0.417 0.070 0.696-0.070 0.974-0.209 0.121-0.064 0.261-0.113 0.409-0.138l0.008-0.001h0.139c0 0.139 0.139 0.209 0.278 0.209s0.278 0 0.348-0.139v0-0.070h0.070l0.278 0.139 0.209 0.348c0.057 0.115 0.128 0.275 0.192 0.439l0.017 0.048c0 0.139 0.139 0.278 0.278 0.417l0.209 0.139 0.139 0.070v0.139c-0.060 0.037-0.131 0.062-0.207 0.069l-0.002 0h-0.070c-0.031 0.013-0.101 0.037-0.171 0.059l-0.038 0.010-0.209 0.209v0.348l0.139 0.139-0.070 0.139h0.070c0.070 0.278 0.139 0.557 0.070 0.835h-0.139l0.139 0.139c-0.070 0.278 0.139 0.557 0.417 0.487l0.139 0.070v-0.139h0.626l0.070 0.070 0.209 0.070 0.487 0.070 0.209-0.070c0.021-0.001 0.045-0.002 0.070-0.002s0.049 0.001 0.073 0.002l-0.003-0 0.209 0.348h0.139c-0.070 0.209 0 0.417 0.139 0.487h0.209l0.209-0.070zM20.452 5.565c0-0.835 0-1.948 0.696-2.643l-1.53 2.504v0.278c0.070 0.209 0.139 0.487 0.417 0.557 0.417 0.139 0.417-0.417 0.417-0.696zM21.496 2.783c0.209 0 0.417 0 0.626-0.139l0.487-0.139 0.487 0.139-1.6 0.209z"></path>
            <path d="M15.304 4.522c0-0.209-0.139-0.278-0.209-0.348l-0.209-0.209c-0.078-0.056-0.176-0.089-0.281-0.089-0.049 0-0.096 0.007-0.14 0.020l0.003-0.001c-0.125 0.058-0.216 0.104-0.306 0.153l0.028-0.014h-0.070v0.139c-0.139-0.139-0.278-0.139-0.417-0.139l-0.278 0.209c-0.209-0.139-0.417-0.139-0.626-0.070h-0.278l0.139-0.139v-0.070h-0.139l-0.070-0.139c-0.172-0.212-0.413-0.362-0.688-0.416l-0.008-0.001c-1.183-0.348-2.365-0.557-3.548-0.626h-1.67c-0.417 0-0.974 0.070-1.391 0.348-0.209 0.139-0.375 0.327-0.483 0.548l-0.004 0.008v0.070c-0.026 0.089-0.049 0.159-0.076 0.227l0.006-0.018h-0.139c-0.139-0.139-0.278-0.139-0.417-0.139-0.238 0.017-0.442 0.151-0.555 0.344l-0.002 0.003c-0.097 0.185-0.154 0.403-0.154 0.635 0 0.070 0.005 0.14 0.015 0.207l-0.001-0.008c0 0.278 0.139 0.557 0.209 0.696 0.139 0.487 0.417 0.904 0.696 1.252v0.278c0.003 0.18 0.054 0.348 0.142 0.491l-0.002-0.004 0.070 0.209v0.278h-0.278c-0.191 0.003-0.363 0.082-0.487 0.209l-0 0c0 0.139-0.139 0.209-0.209 0.278v0.070l-0.696 0.765-0.696 0.696c0 0.139-0.139 0.209-0.209 0.278l-0.348 0.417c-0.193 0.233-0.338 0.513-0.414 0.82l-0.003 0.014c-0.139 0.487 0 0.974 0.139 1.391h-0.070c-0.209 0-0.348 0.209-0.417 0.348l-0.070 0.209-0.070 0.139-0.209 0.487c-0.162 0.341-0.35 0.801-0.518 1.27l-0.038 0.121c0 0.139 0.209 0.278 0.348 0.417 0.105 0.096 0.218 0.188 0.337 0.271l0.010 0.007 0.417 0.348 0.348 0.278c0.209 0.209 0.487 0.348 0.765 0.417 0.278 0 0.557-0.139 0.696-0.348 0.139-0.139 0.139-0.209 0.070-0.278 0-0.139-0.070-0.209-0.139-0.209s-0.139-0.070-0.278 0c-0.070 0-0.139 0-0.209 0.139-0.070 0-0.209 0-0.278-0.139-0.139 0-0.209-0.139-0.278-0.209l-0.139-0.070-0.070-0.139c-0.139 0-0.209-0.139-0.348-0.209l-0.278-0.278h-0.139v-0.070l-0.070-0.070v-0.278l0.487-0.835 0.209-0.487v-0.070h0.070l0.278 0.070 0.070 0.278 0.070-0.278h0.209c0.209-0.139 0.209-0.417 0.139-0.557l-0.348-0.904c0-0.348 0-0.626 0.139-0.904l0.557-0.696 0.139-0.070c0.432-0.503 0.887-1.069 1.326-1.649l0.065-0.090h0.139c-0.001-0.010-0.001-0.023-0.001-0.035s0-0.024 0.001-0.036l-0 0.002h0.278c0.139 0 0.278 0 0.417-0.139 0.278-0.209 0.348-0.557 0.348-0.904-0.026-0.21-0.1-0.399-0.211-0.561l0.003 0.004 0.139-0.278c0-0.139 0-0.278-0.139-0.348l-0.070-0.139h-0.070c-0.209-0.278-0.417-0.557-0.487-0.904l-0.209-0.557v-0.557c0.139 0.070 0.417 0.209 0.696 0.070 0.209-0.070 0.278-0.278 0.417-0.417 0.016-0.039 0.039-0.108 0.061-0.178l0.008-0.031 0.139-0.139 0.348-0.278 0.487-0.070h1.391c1.043 0 2.087 0.139 3.061 0.348l0.835 0.209c0.021 0.001 0.045 0.001 0.070 0.001s0.049-0 0.073-0.001l-0.004 0h0.139c0 0.070 0 0.139 0.139 0.209 0.139 0.209 0.348 0.417 0.696 0.417h0.348c0 0.070 0 0.209 0.139 0.209 0.070 0.139 0.209 0.139 0.348 0.070v0.070l0.070-0.070 0.348-0.278h0.139c0.157 0 0.303-0.052 0.419-0.14l-0.002 0.001c0.070 0.139 0.139 0.209 0.278 0.209h0.348c0.139-0.139 0.209-0.209 0.209-0.348z"></path>
            <path d="M2.574 16.974h0.209v-0.139h-0.139l-0.070 0.070v0.139z"></path>
            <path d="M2.574 17.183c0.021 0.008 0.045 0.012 0.070 0.012s0.049-0.004 0.071-0.012l-0.001 0v-0.070c-0.020 0.012-0.044 0.019-0.070 0.019s-0.050-0.007-0.070-0.019l0.001 0v-0.278c-0.021-0.008-0.045-0.012-0.070-0.012s-0.049 0.004-0.071 0.012l0.001-0c0.010-0.003 0.022-0.004 0.035-0.004s0.024 0.002 0.036 0.005l-0.001-0v0.348zM2.574 16.974l0.209 0.278 0.139-0.139v-0.139h-0.348zM2.574 16.974v-0.278h-0.974l0.626 0.626 0.209-0.278zM2.713 16.974l0.209 0.278 0.696-0.626h-0.974v0.348zM2.713 16.974v-0.278h-0.139l-0.139 0.139 0.278 0.209zM2.713 16.904h-0.278v0.139l0.070 0.139 0.278-0.278zM2.713 16.904h-0.348v0.070l0.139 0.139 0.209-0.278zM2.574 16.835v0.348h0.139l0.070-0.070-0.209-0.278zM2.574 16.835v0.348h0.348v-0.348h-0.348zM2.574 16.835v-0.348h-0.209l-0.070 0.139 0.209 0.209zM2.504 16.904h-0.417v0.835l0.557-0.557-0.209-0.278zM2.504 16.904h0.278v-0.835l-0.626 0.626 0.278 0.209zM2.504 17.043l-0.278 0.209 0.139 0.139h0.139v-0.348zM2.504 17.043v0.348h0.139l0.139-0.139-0.278-0.209zM2.922 17.043c0.004-0.021 0.007-0.045 0.007-0.070 0-0.192-0.156-0.348-0.348-0.348-0.002 0-0.005 0-0.007 0h0v0.696h-0.139c-0.124-0.055-0.21-0.177-0.21-0.319 0-0.010 0-0.020 0.001-0.030l-0 0.001h0.696zM2.226 17.252l0.278 0.070h0.070v-0.696h0.070l0.139 0.070-0.487 0.557zM2.574 17.322v0zM2.574 16.626h0.070c-0.021-0.004-0.045-0.006-0.070-0.006s-0.049 0.002-0.072 0.006l0.002-0v0.696c0.010 0.001 0.023 0.001 0.035 0.001s0.024-0 0.036-0.001l-0.002 0v-0.696zM2.296 17.252l0.278 0.139v-0.696h0.209l-0.487 0.557zM2.574 17.391v0zM2.574 17.391v0zM2.574 17.391h0.070zM2.643 17.391v0zM2.643 17.391c0.079 0 0.151-0.026 0.21-0.070l-0.001 0.001 0.070-0.070-0.487-0.487c0.057-0.043 0.13-0.070 0.209-0.070v0 0.696zM2.643 16.696c-0.031-0.010-0.067-0.016-0.104-0.016s-0.073 0.006-0.107 0.017l0.002-0.001 0.487 0.557c-0.057 0.043-0.13 0.070-0.209 0.070v0-0.696zM2.643 17.391v0zM2.643 17.391c0.079 0 0.151-0.026 0.21-0.070l-0.001 0.001h0.070v-0.070l-0.487-0.487c0.057-0.043 0.13-0.070 0.209-0.070v0 0.696zM2.713 17.391c0.126-0.016 0.229-0.096 0.277-0.206l0.001-0.002-0.487-0.487c-0.026 0.021-0.049 0.044-0.069 0.069l-0.001 0.001h0.070l0.209-0.139v0.696zM2.991 17.183l0.070-0.139v-0.348l-0.557 0.557c-0.055-0.061-0.089-0.143-0.089-0.233 0-0.041 0.007-0.081 0.020-0.118l-0.001 0.002v-0.209l0.557 0.487zM3.13 16.904v-0.139l-0.139-0.139-0.487 0.487-0.070-0.139v-0.070h0.696zM3.13 16.904c0-0.139 0-0.209-0.139-0.278l-0.070-0.070-0.487 0.557h0.070l-0.139-0.278h0.696zM2.922 16.557c-0.057-0.043-0.13-0.070-0.209-0.070v0 0.696c-0.079 0-0.151-0.026-0.21-0.070l0.001 0.001 0.417-0.557zM2.713 16.487h-0.070zM2.643 16.487l-0.348 0.070 0.487 0.557c-0.021 0.006-0.045 0.009-0.070 0.009s-0.049-0.003-0.071-0.009l0.002 0v-0.696zM2.574 16.835v-0.348c-0.113 0-0.214 0.054-0.278 0.138l-0.001 0.001-0.070 0.209h0.696c0 0.192-0.156 0.348-0.348 0.348v0-0.348zM2.574 16.487c-0.113 0-0.214 0.054-0.278 0.138l-0.001 0.001c0.049-0.069 0.122-0.119 0.206-0.139l0.002-0v0.696c0.019 0.004 0.040 0.006 0.062 0.006 0.082 0 0.157-0.028 0.217-0.076l-0.001 0.001c-0.057 0.043-0.13 0.070-0.209 0.070v0-0.696zM2.296 16.626l-0.139 0.278h0.696c0.004 0.015 0.006 0.031 0.006 0.048 0 0.064-0.029 0.122-0.075 0.16l-0 0-0.487-0.487zM2.713 17.183c0.057-0.035 0.104-0.082 0.138-0.137l0.001-0.002-0.070 0.070-0.487-0.487c-0.057 0.035-0.104 0.082-0.138 0.137l-0.001 0.002 0.070-0.070 0.487 0.487zM2.296 16.626v0zM2.296 16.626l-0.139 0.278h0.696v0.139l-0.139 0.139-0.487-0.557zM2.852 16.974h-0.070zM2.226 16.696l-0.070 0.139v0.139h0.696l-0.139 0.209-0.487-0.487zM2.087 16.974v0.070s0 0.139 0.139 0.209l0.487-0.487c0.035 0.038 0.059 0.085 0.069 0.137l0 0.002s0 0.070 0 0h-0.696zM2.504 17.391v0zM2.783 17.252v0 0z"></path>
            <path d="M2.783 17.252h0.070l0.348 0.278h0.487c0.049-0.044 0.095-0.090 0.138-0.137l0.001-0.002h0.070l0.209 0.139h0.139l0.417 0.139h0.348c0.139 0.070 0.278 0.139 0.417 0.070h0.417c0.076 0.082 0.145 0.173 0.204 0.271l0.004 0.008 0.209 0.209c0.209 0.209 0.557 0.278 0.835 0.139 0.139 0 0.278-0.139 0.348-0.209 0.010-0 0.023-0 0.035-0s0.024 0 0.037 0h-0.002l0.348-0.348-0.070-0.278-0.278-0.139-0.278 0.070-0.209 0.139-0.278 0.139-0.139-0.070v-0.139l-0.139-0.139c-0.139-0.139-0.278-0.348-0.557-0.417h-0.417v0.070c-0.021 0.001-0.045 0.001-0.070 0.001s-0.049-0-0.073-0.001l0.003 0h-0.139l-0.209-0.139c-0.042-0.009-0.090-0.014-0.139-0.014s-0.097 0.005-0.144 0.015l0.005-0.001h-0.417l-0.139-0.209c-0.062-0.020-0.134-0.032-0.209-0.032s-0.146 0.012-0.214 0.033l0.005-0.001h-0.278l-0.139 0.070h-0.139v-0.070h-0.139c-0.139-0.139-0.278-0.139-0.417-0.139s-0.278 0-0.417 0.209v0.209l0.209 0.139 0.348 0.070z"></path>
            <path d="M7.583 17.948c0.278-0.139 0.487-0.209 0.765-0.209 0.062-0.002 0.135-0.003 0.209-0.003s0.146 0.001 0.219 0.003l-0.011-0 0.348-0.070c0.487-0.070 1.043-0.278 1.252-0.765v-0.070l0.070-0.070v-0.139h0.070c0.021-0.002 0.045-0.003 0.070-0.003s0.049 0.001 0.073 0.003l-0.003-0h0.070c0.139 0 0.278 0 0.417-0.139 0.081-0.035 0.15-0.082 0.209-0.139l-0 0v-0.070l0.139-0.070h0.209c0.209 0 0.348 0 0.487-0.139h0.209l0.626-0.139c0.278 0 0.557 0.139 0.835 0.348 0.139 0 0.278 0.139 0.348 0.209h0.070l0.417 0.278c0.139 0.070 0.348 0 0.417-0.070v-0.348c-0.438-0.47-1.006-0.812-1.647-0.969l-0.023-0.005c-0.278-0.070-0.626-0.139-0.904-0.070l-0.417 0.070h-0.070c-0.141 0.061-0.304 0.11-0.475 0.138l-0.012 0.002c-0.139 0-0.278 0-0.417 0.139-0.139 0-0.209 0.139-0.348 0.209l-0.070 0.070h-0.278c-0.157 0-0.303 0.052-0.419 0.14l0.002-0.001c-0.128 0.108-0.224 0.25-0.276 0.411l-0.002 0.006-0.139 0.209-0.557 0.278h-0.417v0.070h-0.487c-0.365 0.044-0.681 0.223-0.903 0.485l-0.002 0.002c-0.057 0.038-0.093 0.102-0.093 0.174s0.037 0.136 0.093 0.173l0.001 0c0.040 0.023 0.088 0.037 0.139 0.037s0.099-0.014 0.14-0.038l-0.001 0.001zM42.087 14.261v0.696l-0.070 0.139c-0.002 0.031-0.003 0.068-0.003 0.104s0.001 0.073 0.003 0.109l-0-0.005v0.278h0.070l0.139 0.070h0.139l0.139-0.278v-1.183h-0.209l-0.209 0.070z"></path>
            <path d="M42.296 14.4v0.417c0 0.010 0.001 0.023 0.001 0.035s-0 0.024-0.001 0.037l0-0.002-0.070 0.139v0.139l0.070 0.209h0.348l0.070-0.209v-0.765c0-0.115-0.093-0.209-0.209-0.209v0h-0.139l-0.070 0.209zM28.8 3.965v1.252c0.030 0.018 0.066 0.028 0.104 0.028s0.074-0.010 0.105-0.029l-0.001 0.001h0.070l0.139-0.139v-1.183c0-0.139-0.139-0.139-0.209-0.139h-0.139v0.209zM3.826 6.122v0.904l0.070 0.209v0.139l0.070 0.209c0.039 0.046 0.096 0.075 0.16 0.075 0.017 0 0.034-0.002 0.050-0.006l-0.001 0 0.070-0.139c0.011-0.052 0.017-0.112 0.017-0.174s-0.006-0.122-0.018-0.18l0.001 0.006v-0.696l-0.070-0.348c0-0.139-0.139-0.139-0.209-0.139h-0.139l-0.070 0.139z"></path>
            <path d="M4.104 6.47v0.070c-0.016 0.177-0.024 0.383-0.024 0.591s0.009 0.414 0.026 0.618l-0.002-0.027 0.139 0.139c0.030 0.018 0.066 0.028 0.104 0.028s0.074-0.010 0.105-0.029l-0.001 0.001 0.070-0.139c0.010-0.083 0.016-0.18 0.016-0.278s-0.006-0.195-0.017-0.29l0.001 0.012v-0.696l-0.278-0.209-0.209 0.139z"></path>
            <path d="M30.887 9.6l-3.13 9.948h-1.183l-2.504-7.583c-0.038-0.107-0.086-0.27-0.128-0.435l-0.011-0.052c-0.061 0.24-0.109 0.402-0.16 0.563l0.021-0.076-2.574 7.652h-1.183l-3.13-10.017h1.183l0.348 0.070 0.139 0.278 2.087 6.957c0.057 0.232 0.106 0.516 0.137 0.806l0.002 0.029c0.086-0.43 0.159-0.734 0.238-1.035l-0.029 0.131 2.365-6.957 0.139-0.139 0.278-0.139h0.417l0.278 0.070 0.209 0.278 2.296 6.957 0.139 0.348 0.070 0.417c0.070-0.346 0.142-0.627 0.226-0.902l-0.018 0.067 2.087-6.957s0-0.139 0.139-0.209l0.278-0.070h1.043z"></path>
        </symbol>
        <symbol id="icon-mobile-menu" viewBox="0 0 32 32">
            <path stroke-linejoin="round" stroke-linecap="round" stroke-miterlimit="4" stroke-width="1.6" d="M6.666 22.667h10.667M6.666 16h18.667M14.666 9.333h10.667"></path>
        </symbol>
        <symbol id="icon-instagram" viewBox="0 0 32 32">
            <path d="M16 10c-1.187 0-2.347 0.352-3.333 1.011s-1.756 1.596-2.21 2.693c-0.454 1.096-0.573 2.303-0.341 3.467s0.803 2.233 1.642 3.072c0.839 0.839 1.908 1.411 3.072 1.642s2.37 0.113 3.467-0.341c1.096-0.454 2.033-1.223 2.693-2.21s1.011-2.147 1.011-3.333c-0.002-1.591-0.634-3.116-1.759-4.241s-2.65-1.758-4.241-1.759zM16 20c-0.791 0-1.565-0.235-2.222-0.674s-1.171-1.064-1.473-1.795c-0.303-0.731-0.382-1.535-0.228-2.311s0.535-1.489 1.095-2.048c0.559-0.559 1.272-0.94 2.048-1.095s1.58-0.075 2.311 0.228c0.731 0.303 1.356 0.815 1.795 1.473s0.674 1.431 0.674 2.222c0 1.061-0.421 2.078-1.172 2.828s-1.768 1.172-2.828 1.172zM22 3h-12c-1.856 0.002-3.635 0.74-4.948 2.052s-2.050 3.092-2.052 4.948v12c0.002 1.856 0.74 3.635 2.052 4.948s3.092 2.050 4.948 2.052h12c1.856-0.002 3.635-0.74 4.948-2.052s2.050-3.092 2.052-4.948v-12c-0.002-1.856-0.74-3.635-2.052-4.948s-3.092-2.050-4.948-2.052zM27 22c0 1.326-0.527 2.598-1.465 3.535s-2.209 1.465-3.535 1.465h-12c-1.326 0-2.598-0.527-3.536-1.465s-1.464-2.209-1.464-3.535v-12c0-1.326 0.527-2.598 1.464-3.536s2.209-1.464 3.536-1.464h12c1.326 0 2.598 0.527 3.535 1.464s1.465 2.209 1.465 3.536v12zM24 9.5c0 0.297-0.088 0.587-0.253 0.833s-0.399 0.439-0.673 0.552c-0.274 0.114-0.576 0.143-0.867 0.085s-0.558-0.201-0.768-0.411-0.353-0.477-0.411-0.768c-0.058-0.291-0.028-0.593 0.085-0.867s0.306-0.508 0.553-0.673 0.537-0.253 0.833-0.253c0.398 0 0.779 0.158 1.061 0.439s0.439 0.663 0.439 1.061z"></path>
        </symbol>
        <symbol id="icon-facebook" viewBox="0 0 32 32">
            <path d="M16 3c-2.571 0-5.085 0.762-7.222 2.191s-3.804 3.459-4.788 5.834c-0.984 2.375-1.241 4.989-0.74 7.511s1.74 4.838 3.558 6.656c1.818 1.818 4.134 3.056 6.656 3.558s5.136 0.244 7.511-0.74c2.375-0.984 4.406-2.65 5.834-4.788s2.191-4.651 2.191-7.222c-0.004-3.447-1.374-6.751-3.812-9.188s-5.742-3.808-9.188-3.812zM17 26.954v-7.954h3c0.265 0 0.52-0.105 0.707-0.293s0.293-0.442 0.293-0.707-0.105-0.52-0.293-0.707c-0.187-0.188-0.442-0.293-0.707-0.293h-3v-3c0-0.53 0.211-1.039 0.586-1.414s0.884-0.586 1.414-0.586h2c0.265 0 0.52-0.105 0.707-0.293s0.293-0.442 0.293-0.707-0.105-0.52-0.293-0.707c-0.187-0.188-0.442-0.293-0.707-0.293h-2c-1.061 0-2.078 0.421-2.828 1.172s-1.172 1.768-1.172 2.828v3h-3c-0.265 0-0.52 0.105-0.707 0.293s-0.293 0.442-0.293 0.707 0.105 0.52 0.293 0.707c0.188 0.188 0.442 0.293 0.707 0.293h3v7.954c-2.819-0.257-5.43-1.591-7.291-3.725s-2.827-4.902-2.698-7.73c0.129-2.828 1.343-5.497 3.389-7.453s4.768-3.047 7.599-3.047c2.831 0 5.553 1.091 7.599 3.047s3.261 4.625 3.389 7.453c0.129 2.828-0.838 5.596-2.698 7.73s-4.472 3.468-7.291 3.725z"></path>
        </symbol>
        <symbol id="icon-telegram" viewBox="0 0 32 32">
            <path d="M29.609 3.274c-0.155-0.134-0.343-0.223-0.545-0.257s-0.409-0.013-0.6 0.061l-25.333 9.914c-0.359 0.14-0.663 0.392-0.866 0.719s-0.294 0.712-0.26 1.095c0.034 0.384 0.192 0.746 0.45 1.032s0.602 0.481 0.98 0.555l6.564 1.289v7.319c-0.001 0.399 0.117 0.788 0.34 1.119s0.54 0.587 0.91 0.735c0.369 0.151 0.776 0.187 1.166 0.104s0.747-0.282 1.023-0.57l3.165-3.283 5.021 4.395c0.362 0.321 0.829 0.499 1.314 0.5 0.212-0 0.423-0.034 0.625-0.099 0.33-0.105 0.627-0.294 0.861-0.549s0.397-0.567 0.473-0.905l5.074-22.073c0.045-0.199 0.036-0.407-0.028-0.601s-0.179-0.367-0.333-0.501zM21.967 7.774l-11.199 8.020-6.2-1.216 17.399-6.804zM11.999 25v-5.935l3.099 2.717-3.099 3.218zM22.941 26l-10.335-9.063 14.875-10.661-4.54 19.724z"></path>
        </symbol>
        <symbol id="icon-bus" viewBox="0 0 32 32">
            <path d="M9.385 26.667c-0.189 0-0.347-0.064-0.475-0.192s-0.192-0.286-0.192-0.475v-2.528c-0.434-0.188-0.885-0.589-1.351-1.201s-0.7-1.318-0.7-2.117v-12.154c0-1.383 0.749-2.396 2.246-3.037s3.859-0.963 7.087-0.963c3.344 0 5.736 0.308 7.175 0.925s2.159 1.642 2.159 3.075v12.154c0 0.798-0.233 1.504-0.7 2.117s-0.917 1.013-1.351 1.201v2.528c0 0.189-0.064 0.347-0.192 0.475s-0.286 0.192-0.475 0.192h-0.308c-0.189 0-0.347-0.064-0.475-0.192s-0.192-0.286-0.192-0.475v-2h-11.282v2c0 0.189-0.064 0.347-0.192 0.475s-0.286 0.192-0.475 0.192h-0.308zM8 14.667h16v-5.949h-16v5.949zM11.339 20.821c0.415 0 0.765-0.145 1.052-0.436s0.429-0.643 0.429-1.058-0.145-0.765-0.435-1.052c-0.29-0.286-0.643-0.429-1.058-0.429s-0.765 0.145-1.052 0.436c-0.286 0.29-0.429 0.643-0.429 1.058s0.145 0.765 0.435 1.052c0.29 0.286 0.643 0.429 1.058 0.429zM20.673 20.821c0.415 0 0.765-0.145 1.052-0.436s0.429-0.643 0.429-1.058-0.145-0.765-0.436-1.052c-0.29-0.286-0.643-0.429-1.058-0.429s-0.765 0.145-1.052 0.436c-0.286 0.29-0.429 0.643-0.429 1.058s0.145 0.765 0.436 1.052c0.29 0.286 0.643 0.429 1.058 0.429zM8.138 7.385h15.754c-0.231-0.685-0.943-1.199-2.137-1.54s-3.107-0.512-5.74-0.512c-2.617 0-4.523 0.173-5.717 0.519s-1.914 0.857-2.16 1.532zM10.667 22.667h10.667c0.733 0 1.361-0.261 1.883-0.783s0.783-1.15 0.783-1.883v-4h-16v4c0 0.733 0.261 1.361 0.783 1.883s1.15 0.783 1.883 0.783z"></path>
        </symbol>
        <symbol id="icon-card" viewBox="0 0 32 32">
            <path d="M28 5.25h-24c-1.518 0.002-2.748 1.232-2.75 2.75v16c0.002 1.518 1.232 2.748 2.75 2.75h24c1.518-0.002 2.748-1.232 2.75-2.75v-16c-0.002-1.518-1.232-2.748-2.75-2.75zM4 6.75h24c0.69 0.001 1.249 0.56 1.25 1.25v1.25h-26.5v-1.25c0.001-0.69 0.56-1.249 1.25-1.25zM28 25.25h-24c-0.69-0.001-1.249-0.56-1.25-1.25v-13.25h26.5v13.25c-0.001 0.69-0.56 1.249-1.25 1.25zM9.645 17.628c1.455 0 2.635-1.18 2.635-2.635s-1.18-2.635-2.635-2.635-2.635 1.18-2.635 2.635c0.001 1.455 1.18 2.633 2.635 2.635zM9.645 13.858c0.627 0 1.135 0.508 1.135 1.135s-0.508 1.135-1.135 1.135-1.135-0.508-1.135-1.135c0.001-0.627 0.508-1.134 1.135-1.135zM9.645 18.811c-2.15 0.009-3.947 1.51-4.41 3.52l-0.006 0.031c-0.011 0.048-0.017 0.103-0.017 0.16 0 0.414 0.336 0.75 0.75 0.75 0.357 0 0.656-0.25 0.731-0.585l0.001-0.005c0.309-1.366 1.512-2.371 2.951-2.371s2.642 1.005 2.947 2.351l0.004 0.020c0.077 0.338 0.375 0.587 0.732 0.587 0.414 0 0.75-0.336 0.75-0.75 0-0.056-0.006-0.11-0.018-0.163l0.001 0.005c-0.469-2.041-2.265-3.541-4.414-3.551h-0.001l-0.001 0.001zM26 13.25h-8c-0.414 0-0.75 0.336-0.75 0.75s0.336 0.75 0.75 0.75h8c0.414 0 0.75-0.336 0.75-0.75s-0.336-0.75-0.75-0.75zM26 17.25h-8c-0.414 0-0.75 0.336-0.75 0.75s0.336 0.75 0.75 0.75h8c0.414 0 0.75-0.336 0.75-0.75s-0.336-0.75-0.75-0.75zM26 21.25h-8c-0.414 0-0.75 0.336-0.75 0.75s0.336 0.75 0.75 0.75h8c0.414 0 0.75-0.336 0.75-0.75s-0.336-0.75-0.75-0.75z"></path>
        </symbol>
        <symbol id="icon-guide" viewBox="0 0 32 32">
            <path d="M12 21.667c-0.467 0-0.861-0.161-1.183-0.483s-0.483-0.717-0.483-1.183c0-0.467 0.161-0.861 0.483-1.183s0.717-0.483 1.183-0.483c0.467 0 0.861 0.161 1.183 0.483s0.483 0.717 0.483 1.183c0 0.467-0.161 0.861-0.483 1.183s-0.717 0.483-1.183 0.483zM20 21.667c-0.467 0-0.861-0.161-1.183-0.483s-0.483-0.717-0.483-1.183 0.161-0.861 0.483-1.183c0.322-0.322 0.717-0.483 1.183-0.483s0.861 0.161 1.183 0.483c0.322 0.322 0.483 0.717 0.483 1.183s-0.161 0.861-0.483 1.183c-0.322 0.322-0.717 0.483-1.183 0.483zM16 29.333c2.978 0 5.5-1.033 7.567-3.1s3.1-4.589 3.1-7.567c0-0.533-0.033-1.050-0.1-1.55s-0.189-0.983-0.367-1.45c-0.467 0.111-0.933 0.194-1.4 0.25s-0.955 0.083-1.467 0.083c-2.022 0-3.933-0.433-5.733-1.3s-3.333-2.078-4.6-3.633c-0.711 1.733-1.728 3.239-3.050 4.517s-2.861 2.239-4.617 2.883v0.2c0 2.978 1.033 5.5 3.1 7.567s4.589 3.1 7.567 3.1zM12.944 8.423c1.087 2.171 2.623 3.754 4.608 4.75s3.912 1.494 5.782 1.494c0.414 0 0.821-0.021 1.221-0.063s0.798-0.111 1.195-0.206c-0.848-1.983-2.161-3.545-3.941-4.686s-3.715-1.712-5.808-1.712c-0.585 0-1.12 0.034-1.605 0.101s-0.969 0.175-1.451 0.322zM5.516 16.941c1.373-0.61 2.763-1.61 4.172-3s2.23-3.137 2.464-5.241c-1.783 0.679-3.259 1.747-4.428 3.205s-1.905 3.137-2.208 5.036zM4.567 15.279c0.485-1.776 1.337-3.341 2.555-4.696s2.689-2.36 4.414-3.017c-0.48-0.603-1.076-1.092-1.787-1.467s-1.496-0.562-2.355-0.562c-1.481 0-2.733 0.512-3.756 1.537s-1.535 2.279-1.535 3.763c0 0.934 0.226 1.788 0.677 2.561s1.047 1.4 1.787 1.88zM16.005 30.667c-1.659 0-3.22-0.315-4.68-0.945s-2.732-1.485-3.812-2.565c-1.081-1.080-1.936-2.35-2.566-3.81s-0.946-3.020-0.946-4.68c0-0.351 0.015-0.698 0.044-1.042s0.081-0.677 0.156-0.999c-1.041-0.561-1.873-1.354-2.496-2.38s-0.935-2.162-0.935-3.407c0-1.844 0.644-3.411 1.933-4.7s2.856-1.933 4.7-1.933c1.127 0 2.163 0.262 3.109 0.786s1.719 1.226 2.319 2.106c0.509-0.144 1.030-0.251 1.561-0.323s1.067-0.108 1.608-0.108c1.66 0 3.22 0.315 4.68 0.945s2.73 1.484 3.81 2.564 1.935 2.349 2.565 3.809c0.63 1.459 0.945 3.019 0.945 4.678s-0.315 3.22-0.945 4.68c-0.63 1.461-1.484 2.731-2.564 3.812s-2.349 1.936-3.809 2.566c-1.459 0.63-3.019 0.946-4.678 0.946z"></path>
        </symbol>
        <symbol id="icon-ticket" viewBox="0 0 32 32">
            <path d="M30 13.75c0.414 0 0.75-0.336 0.75-0.75v-5c0-0.414-0.336-0.75-0.75-0.75h-28c-0.414 0-0.75 0.336-0.75 0.75v5c0 0.414 0.336 0.75 0.75 0.75 1.243 0 2.25 1.007 2.25 2.25s-1.007 2.25-2.25 2.25c-0.414 0-0.75 0.336-0.75 0.75v5c0 0.414 0.336 0.75 0.75 0.75h28c0.414 0 0.75-0.336 0.75-0.75v-5c0-0.414-0.336-0.75-0.75-0.75-1.243 0-2.25-1.007-2.25-2.25s1.007-2.25 2.25-2.25zM29.25 19.674v3.576h-26.5v-3.576c1.724-0.361 3-1.869 3-3.674s-1.276-3.313-2.975-3.67l-0.024-0.004v-3.576h26.5v3.576c-1.724 0.361-3 1.869-3 3.674s1.276 3.313 2.975 3.67l0.024 0.004z"></path>
        </symbol>
        <symbol id="icon-arrow-left" viewBox="0 0 155 32">
            <path d="M1.252 14.586c-0.781 0.781-0.781 2.047 0 2.828l12.728 12.728c0.781 0.781 2.047 0.781 2.828 0s0.781-2.047 0-2.828l-11.314-11.314 11.314-11.314c0.781-0.781 0.781-2.047 0-2.828s-2.047-0.781-2.828 0l-12.728 12.728zM154.667 14h-152v4h152v-4z"></path>
        </symbol>
        <symbol id="icon-arrow-right" viewBox="0 0 155 32">
            <path d="M153.415 17.414c0.78-0.781 0.78-2.047 0-2.829l-12.728-12.728c-0.781-0.781-2.048-0.781-2.829 0-0.78 0.781-0.78 2.047 0 2.828l11.315 11.314-11.315 11.314c-0.78 0.781-0.78 2.047 0 2.828 0.781 0.781 2.048 0.781 2.829 0l12.728-12.728zM0 18h152v-4h-152v4z"></path>
        </symbol>
        <symbol id="icon-star" viewBox="0 0 35 32">
            <path d="M17.455 0l4.617 11.1 11.984 0.961-9.13 7.821 2.789 11.694-10.259-6.266-10.26 6.266 2.789-11.694-9.13-7.821 11.983-0.961 4.617-11.1z"></path>
        </symbol>
        <symbol id="icon-logo-footer" viewBox="0 0 45 32">
            <path d="M15.854 27.23l-0.023-0.008c0.187-0.101 0.336-0.251 0.433-0.433l0.003-0.006c0.081-0.144 0.13-0.31 0.178-0.47 0.028-0.099 0.045-0.154 0.063-0.208l-0.013 0.045c0.069-0.21 0.155-0.4 0.331-0.533l0.053-0.040c0.127-0.093 0.258-0.189 0.334-0.336 0.112-0.2 0.064-0.389 0.019-0.569l-0.015-0.059c-0.011-0.049-0.017-0.106-0.017-0.164 0-0.243 0.107-0.462 0.277-0.61l0.001-0.001c0.047 0.078 0.113 0.142 0.189 0.191 0.171 0.107 0.398 0.137 0.6 0.053l0.002-0.001c0.016-0.007 0.031-0.016 0.044-0.023l0.005-0.003c0.015-0.009 0.027-0.015 0.038-0.020 0.021-0.009 0.036-0.010 0.053-0.001 0.007 0.004 0.012 0.008 0.017 0.013l-0-0c0.009 0.007 0.018 0.016 0.028 0.026v0l0.032 0.029c0.010 0.009 0.022 0.018 0.034 0.024l0.001 0c0.083 0.048 0.195 0.087 0.294 0.051 0.045-0.011 0.085-0.030 0.119-0.056l-0.001 0.001 0.013-0.009c0.029-0.020 0.054-0.036 0.085-0.048l0.005-0.002c0.058-0.031 0.113-0.027 0.176-0.004 0.045 0.017 0.082 0.035 0.117 0.055l-0.005-0.002c0.031 0.016 0.064 0.033 0.098 0.047l0.001 0.001c0.171 0.066 0.398 0.085 0.577-0.019h0c0.12-0.071 0.171-0.175 0.183-0.288 0.011-0.109-0.016-0.227-0.049-0.33-0.032-0.106-0.064-0.213-0.096-0.323-0.129-0.439-0.263-0.897-0.461-1.304-0.104-0.212-0.238-0.393-0.398-0.545l-0.001-0.001c-0.022-0.025-0.043-0.047-0.064-0.069l0.001 0.001h-0c-0.020-0.021-0.040-0.043-0.060-0.065l-0.002-0.002c-0.038-0.042-0.070-0.091-0.093-0.144l-0.001-0.003c-0.020-0.057-0.028-0.114-0.037-0.175l-0.004-0.026c-0.009-0.079-0.030-0.151-0.061-0.217l0.002 0.004-0.001-0.002c-0.088-0.148-0.218-0.263-0.373-0.33l-0.005-0.002c-0.054-0.029-0.119-0.052-0.18-0.075l-0.072-0.027c-0.085-0.033-0.158-0.070-0.208-0.124l-0.002-0.002c-0.033-0.031-0.055-0.076-0.056-0.125v-0c-0.001-0.010-0.001-0.022-0.001-0.034 0-0.016 0.001-0.032 0.002-0.048l-0 0.002 0.001-0.015c0.001-0.025 0.003-0.051 0.003-0.078v-0.443c-0.016-0.268-0.049-0.571-0.132-0.844l-0-0.001c-0.044-0.135-0.116-0.223-0.213-0.277-0.095-0.053-0.21-0.069-0.336-0.069-0.103 0-0.169-0.051-0.23-0.129-0.029-0.037-0.059-0.080-0.087-0.124l-0.004-0.006c-0.033-0.051-0.067-0.095-0.104-0.136l0.001 0.001c-0.169-0.195-0.449-0.337-0.719-0.2-0.032 0.014-0.060 0.032-0.084 0.055l0-0-0.013 0.011-0.018 0.016c-0.005 0.005-0.011 0.009-0.018 0.013l-0 0-0.014 0.006-0.001 0.003-0.023-0.019c-0.006-0.005-0.010-0.007-0.013-0.010l0.003 0.002c-0.009-0.007-0.017-0.015-0.023-0.025l-0-0-0.003-0.006-0.005-0.005c-0.083-0.080-0.185-0.163-0.289-0.213-0.084-0.042-0.185-0.083-0.29-0.117l-0.017-0.005-0.077-0.026c-0.081-0.027-0.16-0.053-0.238-0.084-0.203-0.080-0.379-0.181-0.485-0.364l-0.005-0.007-0.007-0.005c-0.037-0.031-0.086-0.050-0.139-0.050-0 0-0.001 0-0.001 0h0c-0.024 0.001-0.046 0.011-0.062 0.027v0c-0.012 0.013-0.019 0.029-0.019 0.048 0 0.007 0.001 0.014 0.003 0.020l-0-0c0.037 0.338 0.336 0.519 0.595 0.644l0.043 0.023c0.129 0.069 0.242 0.128 0.354 0.237 0.039 0.037 0.074 0.077 0.112 0.119 0.026 0.028 0.052 0.058 0.081 0.088 0.069 0.072 0.146 0.143 0.242 0.193 0.2 0.105 0.397 0.050 0.568-0.065 0.048-0.031 0.066-0.032 0.076-0.029 0.011 0.004 0.021 0.010 0.028 0.017v0c0.013 0.011 0.028 0.028 0.049 0.051l0.003 0.003c0.037 0.036 0.067 0.079 0.097 0.126l0.016 0.025c0.024 0.038 0.050 0.078 0.078 0.112 0.121 0.167 0.296 0.268 0.505 0.284h0.004c0.011 0 0.024-0.001 0.036-0.002l0.007-0.001 0.033-0.003c0.006-0 0.012-0.001 0.019-0.001 0.010 0 0.020 0 0.029 0.001l-0.001-0 0.003 0c0.011 0.007 0.020 0.016 0.024 0.028l0 0c0.004 0.010 0.008 0.023 0.010 0.035l0 0.002 0.007 0.031 0.015 0.065c0.027 0.116 0.052 0.221 0.065 0.338 0.016 0.132 0.020 0.26 0.022 0.387l0.001 0.075c0.001 0.102 0.003 0.203 0.009 0.305 0 0.199 0.070 0.385 0.245 0.521 0.061 0.051 0.138 0.089 0.214 0.123 0.036 0.016 0.073 0.031 0.11 0.045l0.007 0.003c0.039 0.016 0.078 0.031 0.114 0.048 0.15 0.067 0.261 0.141 0.289 0.275v0.001l0.020 0.086c0.036 0.164 0.069 0.311 0.202 0.467v0c0.050 0.058 0.103 0.113 0.155 0.166 0.032 0.033 0.064 0.066 0.093 0.098 0.078 0.085 0.149 0.172 0.203 0.277v0.001c0.182 0.338 0.29 0.719 0.395 1.089 0.036 0.124 0.070 0.246 0.107 0.366l0 0.001 0.049 0.14c0.005 0.018 0.013 0.037 0.019 0.052l0.001 0.001c0.007 0.017 0.013 0.031 0.016 0.043 0.003 0.011 0.002 0.015 0.001 0.016s-0.004 0.004-0.011 0.006c-0.009 0.003-0.020 0.005-0.030 0.005-0.007 0-0.013-0.001-0.019-0.002l0.001 0c-0.027-0.004-0.052-0.011-0.075-0.020l0.003 0.001c-0.054-0.020-0.099-0.041-0.142-0.064l0.006 0.003-0.003-0.001c-0.117-0.048-0.22-0.082-0.359-0.082-0.060 0-0.117 0.016-0.167 0.043l0.002-0.001c-0.021 0.010-0.041 0.022-0.060 0.033l-0.006 0.004c-0.021 0.012-0.042 0.024-0.065 0.035-0.011 0.005-0.024 0.009-0.037 0.009-0.003 0-0.005-0-0.008-0l0 0c-0.012-0.002-0.022-0.007-0.030-0.015l0 0c-0.008-0.007-0.015-0.013-0.023-0.021-0.006-0.006-0.013-0.012-0.020-0.018l-0.001-0.001c-0.020-0.018-0.043-0.034-0.068-0.046l-0.002-0.001c-0.049-0.027-0.106-0.043-0.168-0.043-0.046 0-0.091 0.009-0.131 0.025l0.002-0.001c-0.032 0.011-0.059 0.023-0.084 0.036l0.003-0.002c-0.027 0.013-0.038 0.019-0.049 0.024l0.016-0.008c-0.015 0.008-0.030 0.016-0.046 0.023-0.053 0.026-0.095 0.039-0.128 0.033h-0.002c-0.047-0.004-0.088-0.029-0.113-0.065l-0-0c-0.019-0.030-0.030-0.066-0.030-0.105 0-0.011 0.001-0.022 0.003-0.033l-0 0.001v-0c0.001-0.007 0.002-0.015 0.002-0.023 0-0.036-0.011-0.069-0.029-0.096l0 0.001c-0.022-0.031-0.051-0.054-0.086-0.069l-0.001-0c-0.031-0.013-0.067-0.021-0.104-0.021s-0.074 0.008-0.107 0.022l0.002-0.001c-0.335 0.146-0.606 0.405-0.725 0.748-0.068 0.165-0.085 0.345-0.068 0.523 0.004 0.054 0.015 0.107 0.025 0.157l0.001 0.003c0.010 0.050 0.020 0.096 0.023 0.14 0.007 0.087-0.007 0.162-0.083 0.228-0.048 0.040-0.098 0.076-0.149 0.113l-0.050 0.036c-0.068 0.050-0.137 0.103-0.197 0.169l-0.001 0.001c-0.136 0.164-0.204 0.344-0.269 0.533l-0 0.001c-0.013 0.041-0.026 0.087-0.039 0.136-0.041 0.145-0.087 0.314-0.162 0.454-0.049 0.093-0.108 0.168-0.18 0.213-0.070 0.044-0.156 0.061-0.268 0.032h-0.001c-0.018-0.005-0.039-0.008-0.061-0.008-0.132 0-0.239 0.107-0.239 0.239 0 0 0 0 0 0.001v-0c-0.004 0.128 0.032 0.228 0.094 0.307s0.147 0.135 0.238 0.182c0.068 0.035 0.142 0.065 0.214 0.094l0.071 0.029c0.094 0.039 0.18 0.080 0.249 0.131 0.169 0.139 0.35 0.21 0.537 0.212s0.375-0.065 0.56-0.195c0.080-0.053 0.154-0.115 0.226-0.177l0.028-0.025c0.062-0.054 0.123-0.106 0.186-0.153 0.144-0.107 0.296-0.179 0.493-0.157h0.001c0.328 0.030 0.649 0.271 0.694 0.591v0.001c0.021 0.13 0.132 0.185 0.226 0.175 0.051-0.004 0.095-0.029 0.126-0.065l0-0c0.023-0.030 0.036-0.067 0.036-0.108 0-0.017-0.002-0.034-0.007-0.050l0 0.001c-0.103-0.641-0.832-1.079-1.476-0.9-0.206 0.058-0.364 0.191-0.512 0.316l-0.004 0.004c-0.149 0.126-0.288 0.243-0.464 0.295h-0.001c-0.107 0.035-0.183 0.011-0.259-0.035-0.041-0.026-0.076-0.051-0.109-0.078l0.003 0.002-0.014-0.010c-0.040-0.032-0.085-0.063-0.132-0.091l-0.006-0.003c-0.043-0.027-0.094-0.051-0.146-0.068l-0.005-0.001c0.016 0.004-0.006-0.004-0.028-0.012l-0.038-0.012z"></path>
            <path d="M18.515 26.169c0.049 0.584 0.148 1.152 0.262 1.719 0.014 0.079 0.089 0.105 0.146 0.097 0.059-0.008 0.122-0.054 0.122-0.137 0-0.374-0.014-0.748-0.043-1.121l0.064 0.067 0.001 0.001c0.044 0.042 0.11 0.060 0.171 0.056 0.069-0.003 0.128-0.041 0.16-0.098l0-0.001 0-0.001c0.118-0.228 0.237-0.457 0.343-0.686 0.058 0.022 0.121 0.034 0.188 0.034 0.118 0 0.212-0.044 0.295-0.092 0.023-0.013 0.044-0.026 0.065-0.039 0.059-0.036 0.114-0.069 0.176-0.091 0.165-0.055 0.337-0.060 0.517-0.065l0.050-0.001c0.196-0.006 0.4-0.018 0.596-0.108l0.001-0.001c0.327-0.166 0.516-0.53 0.465-0.88v-0.001c-0.058-0.322-0.309-0.547-0.608-0.632 0.008-0.119 0.094-0.229 0.222-0.328 0.168-0.129 0.391-0.225 0.537-0.28 0.307-0.113 0.661-0.178 1.030-0.178 0.073 0 0.145 0.003 0.217 0.008l-0.010-0.001c0.006 0.001 0.014 0.001 0.022 0.001 0.052 0 0.099-0.021 0.133-0.055v0c0.032-0.035 0.052-0.082 0.052-0.133 0-0.001 0-0.002-0-0.003v0c0-0.001 0-0.002 0-0.003 0-0.113-0.088-0.205-0.2-0.21l-0-0c-0.078-0.007-0.168-0.010-0.26-0.010-0.506 0-0.986 0.116-1.414 0.322l0.020-0.008c-0.207 0.096-0.438 0.241-0.595 0.427-0.158 0.187-0.243 0.42-0.146 0.683l0.001 0.002c0.016 0.043 0.043 0.078 0.078 0.105l0.001 0c0.033 0.025 0.073 0.039 0.118 0.047l0.003 0.001h0.003c0.24 0.014 0.428 0.216 0.399 0.437v0.001c-0.012 0.116-0.077 0.215-0.169 0.274l-0.002 0.001c-0.092 0.061-0.211 0.096-0.329 0.111h-0.001c-0.096 0.013-0.195 0.018-0.297 0.023l-0.050 0.003c-0.129 0.004-0.252 0.018-0.372 0.040l0.015-0.002c-0.114 0.020-0.217 0.054-0.311 0.101l0.006-0.003-0.002 0.001c-0.022 0.012-0.047 0.028-0.071 0.043 0.001-0.001-0.007 0.005-0.015 0.010l-0.010 0.006c-0.027 0.019-0.059 0.036-0.091 0.050l-0.004 0.001c-0.017 0.008-0.038 0.013-0.059 0.013-0.007 0-0.013-0-0.019-0.001l0.001 0c-0.020-0.004-0.043-0.016-0.066-0.048v-0c-0.103-0.139-0.306-0.116-0.386 0.037l-0.001 0.003-0.001 0.002c-0.012 0.032-0.025 0.065-0.038 0.097h-0.005l0.003 0.005c-0.073 0.178-0.156 0.355-0.247 0.529l-0.048-0.048c-0.080-0.080-0.16-0.162-0.238-0.245l-0.006-0.006-0.001-0.001c-0.064-0.062-0.161-0.069-0.236-0.041-0.077 0.029-0.144 0.1-0.133 0.203z"></path>
            <path d="M24.528 24.115c0.034-0.103 0.032-0.218-0.020-0.327 0.214 0.029 0.429 0.057 0.64 0.078 0.169 0.016 0.348-0.011 0.471-0.099 0.062-0.043 0.109-0.106 0.131-0.179l0.001-0.002c0.022-0.076 0.017-0.166-0.018-0.267-0.123-0.357-0.524-0.502-0.874-0.502-0.371 0-0.742 0.054-1.11 0.107-0.122 0.018-0.243 0.036-0.364 0.051l-0.009 0.001-0.007 0.004c-0.078 0.043-0.11 0.142-0.103 0.222 0.003 0.045 0.021 0.084 0.048 0.115l-0-0c0.031 0.033 0.076 0.050 0.129 0.045l0.125-0.012c-0.028 0.032-0.045 0.073-0.045 0.119 0 0.009 0.001 0.018 0.002 0.027l-0-0.001c0.009 0.094 0.041 0.173 0.093 0.239s0.123 0.117 0.209 0.158l0.003 0.001 0.003 0.001c0.024 0.008 0.155 0.054 0.247 0.105 0.018 0.010 0.033 0.020 0.046 0.028l4.55 1.256M24.528 24.115c0.169 0.055 0.328 0.129 0.485 0.207l0.138 0.069c0.228 0.115 0.452 0.229 0.699 0.299l0.001 0c0.173 0.053 0.348 0.065 0.525 0.063 0.083-0.001 0.166-0.005 0.25-0.009l0.018-0.001c0.090-0.004 0.181-0.008 0.272-0.008 0.346 0 0.693 0.048 1.023 0.143 0.123 0.032 0.276 0.075 0.418 0.135 0.14 0.060 0.276 0.138 0.356 0.242M24.528 24.115c-0.005 0.014-0.010 0.028-0.016 0.041 0.001-0-0.013-0.005-0.028-0.009l-0.015-0.004M28.712 25.257l-0.035 0.027M28.712 25.257v-0l-0.035 0.028M28.712 25.257c0.046 0.058 0.067 0.117 0.065 0.175-0.003 0.059-0.025 0.113-0.059 0.156l0-0.001c-0.065 0.089-0.175 0.16-0.266 0.208h-0c-0.52 0.267-1.006 0.564-1.444 0.923l0-0.001-0.029-0.033c0.441-0.362 0.93-0.661 1.452-0.928 0.179-0.095 0.408-0.268 0.245-0.472M31.265 29.489l-0.004 0.002c-0.021 0.012-0.046 0.020-0.073 0.020-0.040 0-0.076-0.016-0.102-0.043l-0-0c-0.047-0.048-0.057-0.124-0.019-0.207l0.002-0.004 0.002-0.003c0.141-0.204 0.332-0.258 0.528-0.278 0.057-0.006 0.118-0.009 0.178-0.012 0.039-0.002 0.078-0.004 0.115-0.007 0.097-0.007 0.19-0.020 0.279-0.049 0.183-0.067 0.319-0.211 0.46-0.371l0.027-0.031c0.131-0.149 0.269-0.306 0.453-0.398l0.002-0.001c0.139-0.065 0.302-0.104 0.473-0.104 0.078 0 0.155 0.008 0.228 0.023l-0.007-0.001c0.121 0.017 0.24 0.066 0.338 0.114l0.002 0.001 0.002 0.001c0.052 0.033 0.099 0.075 0.143 0.113l0.001 0.001c0.040 0.037 0.083 0.072 0.128 0.103l0.004 0.003c0.031 0.018 0.075 0.026 0.132 0.025s0.121-0.011 0.186-0.026c0.132-0.031 0.263-0.081 0.345-0.112l0.002-0c0.11-0.038 0.187-0.085 0.239-0.148s0.082-0.143 0.090-0.254v-0.001c0.014-0.162 0.064-0.356 0.187-0.486-0.010-0-0.022-0-0.033-0-0.002 0-0.005 0-0.007 0h0c-0.108 0.015-0.203 0.036-0.295 0.064l0.014-0.003c-0.114 0.048-0.212 0.114-0.294 0.195l0-0-0.002 0.002-0.002 0.002c-0.020 0.015-0.035 0.027-0.050 0.039l0.003-0.002c-0.017 0.013-0.034 0.027-0.052 0.040-0.035 0.027-0.076 0.051-0.119 0.069l-0.004 0.001c-0.191 0.074-0.357-0.039-0.445-0.174l-0.001-0.001c-0.011-0.018-0.023-0.040-0.033-0.062l-0.002-0.004v-0.001c-0.010-0.022-0.019-0.040-0.030-0.057l0.001 0.002c-0.006-0.011-0.015-0.020-0.025-0.027l-0-0c-0.006-0.004-0.015-0.006-0.030-0.004-0.034 0.005-0.070 0.031-0.107 0.071-0.027 0.028-0.050 0.059-0.071 0.087-0.007 0.011-0.015 0.020-0.022 0.029l-0.002 0.003c-0.135 0.146-0.308 0.265-0.535 0.282-0.234 0.017-0.439-0.067-0.616-0.191s-0.326-0.288-0.449-0.438c-0.298-0.351-0.512-0.748-0.676-1.16-0.093-0.213-0.162-0.461-0.197-0.719l-0.002-0.015-0.011-0.066c-0.031-0.186-0.067-0.404-0.021-0.595 0.049-0.235 0.219-0.342 0.393-0.452l0.051-0.032 0.001-0.001c0.106-0.063 0.211-0.129 0.317-0.196h0c0.106-0.067 0.212-0.134 0.318-0.197 0.22-0.142 0.441-0.279 0.661-0.416s0.44-0.275 0.66-0.417c0.039-0.026 0.079-0.053 0.118-0.081 0.169-0.117 0.341-0.236 0.545-0.302l0.002-0 0.004-0.001c0.11-0.030 0.231-0.064 0.353-0.047 0.069 0 0.133 0.013 0.191 0.024l0.004 0.001c0.059 0.012 0.11 0.022 0.161 0.022 0.096 0 0.19-0.036 0.291-0.082 0.023-0.010 0.046-0.021 0.069-0.033 0.079-0.038 0.162-0.078 0.247-0.103l0.004-0.001c0.212-0.043 0.359-0.010 0.534 0.031l0.070 0.016c0.081 0.012 0.145-0.016 0.206-0.065 0.046-0.038 0.085-0.084 0.127-0.131l0.050-0.057 0.002-0.003 0.002-0.003c0.113-0.108 0.232-0.223 0.386-0.289l0.003-0.001c0.105-0.036 0.213-0.050 0.316-0.063l0.043-0.006c0.117-0.016 0.229-0.035 0.336-0.086 0.088-0.046 0.171-0.1 0.257-0.155l0.001-0c0.085-0.055 0.172-0.111 0.263-0.159h0c0.171-0.094 0.374-0.149 0.591-0.149 0.030 0 0.060 0.001 0.089 0.003l-0.004-0h0.001c0.032 0.003 0.069 0.008 0.107 0.013l0.049 0.006c0.057 0.007 0.115 0.013 0.173 0.014 0.117 0.002 0.22-0.018 0.289-0.084 0.039-0.037 0.057-0.089 0.066-0.152 0.005-0.031 0.007-0.064 0.010-0.098l0-0.010c0.002-0.031 0.004-0.062 0.008-0.092v-0.001l0.049-0.331 0-0.002c0.049-0.238 0.116-0.477 0.215-0.701M31.265 29.489l7.97-7.744M31.265 29.489l0.004-0.003c0.070-0.061 0.152-0.080 0.244-0.080 0.046 0 0.094 0.005 0.144 0.011l0.038 0.004c0.037 0.005 0.075 0.010 0.113 0.012 0.197 0.016 0.402 0.017 0.592-0.067 0.179-0.074 0.319-0.197 0.448-0.326l0.092-0.093c0.097-0.099 0.191-0.196 0.3-0.278 0.156-0.106 0.339-0.162 0.518-0.119l0.001 0c0.102 0.021 0.18 0.081 0.264 0.152l0.023 0.020c0.075 0.064 0.157 0.134 0.261 0.173l0.001 0c0.099 0.035 0.205 0.034 0.306 0.022 0.065-0.008 0.133-0.021 0.196-0.034l0.092-0.018v0l0.002-0.001c0.198-0.048 0.384-0.112 0.553-0.227l0.001-0.001c0.13-0.095 0.27-0.21 0.34-0.363 0.046-0.089 0.059-0.181 0.070-0.265l0.005-0.038c0.014-0.095 0.033-0.178 0.098-0.255l0.001-0.001 0.036-0.045c0.038-0.046 0.078-0.096 0.107-0.148 0.041-0.071 0.065-0.153 0.046-0.252-0.020-0.095-0.078-0.174-0.157-0.221l-0.002-0.001c-0.073-0.044-0.16-0.073-0.252-0.081l-0.002-0c-0.060-0.010-0.128-0.016-0.199-0.016-0.141 0-0.275 0.024-0.401 0.068l0.008-0.003c-0.075 0.024-0.183 0.064-0.284 0.119-0.082 0.044-0.164 0.101-0.217 0.17M31.265 29.489l3.391-2.18M40.124 19.855c0.083-0.193 0.203-0.377 0.413-0.478l0.004-0.002c0.055-0.020 0.108-0.036 0.159-0.051l0.017-0.005c0.045-0.014 0.088-0.026 0.129-0.041 0.093-0.032 0.176-0.073 0.251-0.145l0.002-0.002c0.043-0.037 0.086-0.076 0.129-0.116 0.035-0.032 0.070-0.065 0.108-0.098 0.077-0.071 0.163-0.137 0.254-0.194l0.007-0.004c0.093-0.054 0.193-0.093 0.301-0.101 0.011-0.001 0.023-0.001 0.035-0.001 0.114 0 0.221 0.031 0.312 0.085l-0.003-0.002 0.002 0.001c0.038 0.022 0.066 0.056 0.078 0.098l0 0.001c0.010 0.039 0.004 0.078-0.012 0.112-0.031 0.065-0.097 0.108-0.172 0.108-0.007 0-0.014-0-0.021-0.001l0.001 0h-0.002c-0.13-0.021-0.244 0.030-0.351 0.113-0.075 0.058-0.141 0.126-0.206 0.193-0.030 0.031-0.060 0.061-0.090 0.090l-0.001 0.001-0.001 0.001c-0.202 0.178-0.388 0.26-0.636 0.339-0.132 0.043-0.214 0.134-0.271 0.249-0.053 0.105-0.083 0.224-0.113 0.34l-0.011 0.041-0 0.001c-0.064 0.221-0.087 0.432-0.11 0.645-0.006 0.055-0.012 0.111-0.019 0.166v0.001c-0.044 0.276-0.198 0.434-0.401 0.516-0.199 0.080-0.444 0.088-0.674 0.072M40.124 19.855v0zM39.232 21.789h-0l0.003-0.044M39.232 21.789h0l0.002-0.044M39.232 21.789c-0.024-0.002-0.053-0.003-0.082-0.003-0.1 0-0.197 0.013-0.289 0.039l0.008-0.002c-0.107 0.030-0.209 0.079-0.33 0.149M39.235 21.745c-0.294-0.016-0.473 0.047-0.718 0.189M38.54 21.972l0.001-0.001-0.024-0.037M38.54 21.972l-0.058 0.037c-0.173 0.112-0.345 0.224-0.557 0.282-0.048 0.013-0.107 0.025-0.168 0.034l-0.008 0.001-0.052 0.007c-0.038 0.005-0.075 0.011-0.112 0.017-0.105 0.019-0.197 0.048-0.278 0.119l-0.003 0.003c-0.061 0.048-0.115 0.1-0.163 0.157l-0.001 0.002-0.001 0.001c-0.052 0.058-0.108 0.12-0.177 0.17M38.54 21.972l-0.001 0.001-0.022-0.039M38.517 21.933l-1.556 0.87M36.961 22.803c-0.153 0.114-0.328 0.183-0.523 0.149M36.961 22.803h-0l-0.026-0.036c-0.147 0.11-0.31 0.173-0.49 0.142M36.437 22.953h0l0.007-0.044M36.437 22.953h-0l0.008-0.044M36.437 22.953c-0.038-0.006-0.079-0.017-0.119-0.027l-0.042-0.011c-0.047-0.014-0.101-0.023-0.157-0.024l-0.001-0c-0.042 0-0.086 0.010-0.13 0.025-0.031 0.010-0.059 0.022-0.087 0.033l-0.042 0.017M36.445 22.909c-0.046-0.008-0.084-0.017-0.122-0.028l0.009 0.002c-0.063-0.020-0.136-0.033-0.211-0.037l-0.002-0c-0.082 0-0.164 0.033-0.236 0.062l-0.041 0.016M35.841 22.924l0.018 0.041-0.001 0M35.841 22.924l-0.072 0.032c-0.156 0.070-0.313 0.141-0.483 0.141-0.082 0-0.155-0.009-0.226-0.018-0.155-0.020-0.297-0.037-0.476 0.049M35.841 22.924l0.016 0.042h0.001M35.858 22.966c-0.023 0.010-0.047 0.020-0.070 0.031-0.155 0.070-0.322 0.145-0.502 0.145-0.068 0-0.13-0.006-0.188-0.013l-0.044-0.005c-0.042-0.005-0.082-0.010-0.122-0.013-0.105-0.007-0.206 0-0.328 0.058M34.585 23.129l0.020 0.040h-0M34.585 23.129c-0.282 0.146-0.545 0.321-0.81 0.498-0.164 0.109-0.327 0.218-0.496 0.32M34.585 23.129l0.019 0.040h0.001M34.604 23.169c-0.259 0.138-0.472 0.269-0.678 0.41l0.024-0.016c-0.050 0.033-0.1 0.067-0.15 0.1-0.164 0.109-0.329 0.219-0.498 0.322M33.279 23.947l0.023 0.038M33.279 23.947c-0.114 0.071-0.224 0.142-0.335 0.212s-0.22 0.142-0.335 0.212c-0.066 0.043-0.14 0.084-0.215 0.125-0.147 0.081-0.297 0.165-0.405 0.268-0.123 0.119-0.062 0.417-0.020 0.62 0.008 0.038 0.015 0.073 0.020 0.103M33.279 23.947l0.023 0.038M33.302 23.985c-0.114 0.070-0.224 0.141-0.334 0.212s-0.22 0.142-0.335 0.212M31.99 25.488l0.043-0.010 0.001 0.001M31.99 25.488c0.049 0.205 0.098 0.409 0.18 0.614 0.178 0.453 0.433 0.84 0.751 1.165l-0.001-0.001c0.13 0.142 0.375 0.346 0.587 0.267 0.106-0.034 0.173-0.123 0.242-0.212 0.058-0.076 0.116-0.153 0.199-0.197M31.99 25.488l0.044-0.007-0-0.002M32.634 24.409l-0.024-0.038 0.023 0.038zM32.634 24.409c-0.068 0.043-0.143 0.085-0.219 0.127-0.036 0.020-0.071 0.039-0.105 0.059-0.11 0.063-0.212 0.127-0.289 0.202-0.027 0.026-0.045 0.067-0.053 0.121s-0.007 0.118-0.001 0.186c0.010 0.093 0.029 0.187 0.046 0.268 0.008 0.038 0.015 0.075 0.021 0.107M32.034 25.479c0.049 0.204 0.097 0.405 0.177 0.606v0.001c0.176 0.447 0.427 0.829 0.741 1.149l-0.001-0 0.001 0.001c0.064 0.069 0.154 0.152 0.252 0.208s0.199 0.081 0.287 0.048l0.002-0.001c0.083-0.027 0.141-0.093 0.205-0.177l0.016-0.021c0.057-0.075 0.121-0.159 0.212-0.208M33.927 27.085l-0.001 0 0.022 0.038M33.927 27.085c0.176-0.101 0.424-0.103 0.587 0.036 0.073 0.053 0.109 0.124 0.141 0.185l0.001 0.003M33.927 27.085l0.001-0 0.021 0.039M33.948 27.124c0.164-0.094 0.392-0.094 0.539 0.032 0.065 0.047 0.098 0.11 0.13 0.173 0.001 0.009 0.004 0.017 0.009 0.025l-0-0 0.031-0.045M40.394 20.376c-0.065 0.225-0.089 0.441-0.112 0.654-0.006 0.054-0.012 0.109-0.019 0.164l0.13-0.818zM40.394 20.376l0.011-0.041c0.062-0.244 0.135-0.53 0.413-0.62 0.245-0.079 0.424-0.157 0.62-0.33l-1.044 0.991zM35.652 27.317c0.022 0.003 0.042 0.007 0.060 0.013l-0.002-0.001-0.058-0.012z"></path>
            <path d="M43.964 15.915c0.091 0.007 0.181 0.041 0.257 0.1 0.247 0.171 0.247 0.46 0.246 0.689v0.008c0 0.062 0.004 0.111 0.018 0.153 0.015 0.045 0.043 0.083 0.079 0.111l0.001 0 0.007 0.006c0.037 0.028 0.076 0.058 0.106 0.096 0.036 0.045 0.060 0.101 0.067 0.162l0 0.001 0 0.003h-0c0.010 0.136-0.062 0.242-0.134 0.334l-0.041 0.050c-0.023 0.028-0.045 0.055-0.066 0.084-0.032 0.043-0.057 0.086-0.071 0.13-0.019 0.082-0.036 0.186-0.047 0.291l-0.001 0.012-0.002 0.016c-0.014 0.129-0.034 0.244-0.061 0.356l0.004-0.018c-0.058 0.221-0.171 0.421-0.442 0.522l-0.001 0.001c-0.146 0.050-0.308 0.057-0.464 0.053-0.070-0.002-0.139-0.006-0.207-0.010-0.071-0.005-0.155-0.009-0.239-0.010h-0.002c-0.328 0-0.64-0.016-0.969-0.063-0.040-0.003-0.075-0.023-0.097-0.054l-0-0c-0.011-0.018-0.018-0.039-0.018-0.063 0-0.014 0.002-0.027 0.007-0.039l-0 0.001c0.020-0.064 0.081-0.124 0.166-0.151l0.004-0.001 0.004-0c0.411-0.053 0.811-0.051 1.215-0.048l0.243 0.001c0.112 0 0.197-0.012 0.263-0.046 0.063-0.033 0.114-0.090 0.152-0.191 0.047-0.152 0.063-0.32 0.079-0.493l0-0.004h0l0.004-0.020c0.031-0.166 0.067-0.357 0.185-0.503l0.002-0.002 0.002-0.002 0.109-0.105-0.026-0.021c-0.020-0.016-0.037-0.030-0.053-0.045l0.001 0.001c-0.008-0.007-0.015-0.014-0.022-0.021l-0-0c-0.005-0.005-0.010-0.011-0.014-0.018l-0-0c-0.103-0.118-0.122-0.283-0.137-0.417-0-0.005-0.001-0.009-0.002-0.013l0 0.001c-0.009-0.050-0.009-0.104-0.009-0.154v-0.002c0-0.052 0-0.099-0.007-0.142l-0.001-0.004v-0.004c-0.005-0.041-0.019-0.077-0.039-0.109l0.001 0.001c-0.012-0.020-0.023-0.027-0.028-0.029-0.001-0-0.002-0-0.002-0s-0.002 0-0.003 0l0-0c-0.007 0.003-0.012 0.007-0.017 0.012l-0.003 0.003c-0.041 0.033-0.094 0.052-0.152 0.052-0.021 0-0.041-0.003-0.060-0.007l0.002 0c-0.076-0.017-0.135-0.074-0.155-0.146l-0-0.001v-0.001c-0.007-0.025-0.016-0.065-0.023-0.104l-0.002-0.012c-0.043-0.242-0.035-0.506 0.13-0.723 0.089-0.12 0.229-0.203 0.385-0.237h0.001c-0.106-0.029-0.232-0.064-0.329-0.142l-0.002-0.001c-0.082-0.071-0.133-0.175-0.133-0.291 0-0.021 0.002-0.042 0.005-0.062l-0 0.002c0.018-0.122 0.090-0.238 0.197-0.316 0.055-0.044 0.118-0.069 0.181-0.089 0.027-0.009 0.053-0.016 0.078-0.023 0.037-0.011 0.074-0.021 0.112-0.035l0.001-0c0.14-0.045 0.263-0.119 0.354-0.237l0.001-0.001c0.189-0.234 0.152-0.452 0.106-0.722-0.001-0.001-0.007-0.037-0.013-0.074l-0.004-0.034-0-0.002c-0.004-0.032-0.006-0.069-0.006-0.107 0-0.115 0.021-0.226 0.059-0.328l-0.002 0.006 0.001-0.003 0.001-0.003 0.008-0.015c0.010-0.020 0.021-0.039 0.029-0.059 0.007-0.014 0.013-0.030 0.018-0.048l0-0.002-0.004 0c-0.018 0.003-0.033 0.007-0.048 0.013l0.002-0.001-0.004 0.001c-0.064 0.017-0.118 0.038-0.171 0.062l0.007-0.003-0.043 0.019c-0.038 0.017-0.078 0.035-0.116 0.050-0.109 0.041-0.227 0.064-0.37 0.012-0.118-0.035-0.197-0.109-0.265-0.188-0.024-0.028-0.047-0.058-0.070-0.087l-0.026-0.034c-0.031-0.040-0.063-0.076-0.097-0.11l-0-0c-0.137-0.132-0.309-0.143-0.505-0.156-0.081-0.005-0.101-0.007-0.12-0.008l0.064 0.004c-0.199-0.016-0.41-0.064-0.553-0.236l-0.001-0.001c-0.048-0.063-0.087-0.136-0.11-0.216l-0.001-0.005c-0.032 0.016-0.071 0.032-0.111 0.045l-0.006 0.002-0.004 0.001c-0.153 0.034-0.299-0.010-0.431-0.072-0.080-0.039-0.142-0.073-0.203-0.11l0.012 0.007-0.009-0.005c-0.058-0.034-0.113-0.065-0.166-0.091-0.234-0.118-0.529-0.245-0.831-0.356l-0.063-0.020c-0.033-0.013-0.055-0.022-0.078-0.033l0.009 0.004-0.003-0.001c-0.023-0.010-0.045-0.020-0.068-0.030-0.036-0.017-0.077-0.028-0.121-0.032l-0.001-0c-0.002-0-0.004-0-0.007-0-0.010 0-0.020 0.001-0.029 0.002l0.001-0-0.005 0.011-0.001 0.004c-0.007 0.016-0.012 0.028-0.018 0.040l0.001-0.003-0.007 0.016c-0.029 0.073-0.070 0.174-0.177 0.225-0.128 0.062-0.263 0.052-0.385 0.014-0.122-0.037-0.236-0.102-0.326-0.158h-0l0.023-0.038c-0.457-0.269-0.827-0.642-1.086-1.087l-0.008-0.014 5.741 5.936zM43.964 15.915c0-0.057 0.009-0.113 0.028-0.162l0-0.001c0.029-0.078 0.067-0.114 0.114-0.137 0.050-0.023 0.116-0.031 0.207-0.039M32.989 7.454c-0.026 0.045-0.071 0.077-0.123 0.086l-0.001 0c-0.008 0.001-0.018 0.002-0.027 0.002-0.040 0-0.077-0.013-0.107-0.034l0.001 0c-0.079-0.055-0.116-0.166-0.048-0.287 0.021-0.042 0.025-0.070 0.022-0.090-0.004-0.022-0.016-0.041-0.032-0.055l-0-0c-0.022-0.020-0.047-0.038-0.074-0.053l-0.002-0.001-0.022-0.013c-0.030-0.017-0.054-0.032-0.077-0.047l0.004 0.002-0.002-0.002c-0.099-0.078-0.166-0.192-0.179-0.323l-0-0.002c-0.016-0.059-0.032-0.082-0.050-0.092-0.019-0.011-0.053-0.015-0.125 0.001-0.072 0.019-0.133 0.040-0.191 0.065l0.010-0.004h-0.001c-0.060 0.023-0.124 0.048-0.192 0.064l-0.003 0.001-0.003 0c-0.134 0.016-0.272 0.017-0.412-0.034l-0.002-0.001c-0.065-0.029-0.12-0.059-0.173-0.092l0.005 0.003-0.001-0c-0.044-0.028-0.095-0.056-0.148-0.080l-0.008-0.003c-0.262-0.083-0.538-0.023-0.816 0.037l-0.054 0.012c-0.167 0.058-0.323-0.103-0.284-0.273 0.112-0.51 0.064-1.018-0.176-1.496-0.017-0.032-0.026-0.070-0.026-0.111 0-0.029 0.005-0.057 0.015-0.083l-0.001 0.002c0.025-0.069 0.083-0.122 0.154-0.138l0.001-0M32.989 7.454l-3.138-2.997M32.989 7.454l0.002-0.003M32.989 7.454l0.002-0.003M29.84 4.415l0-0 0.011 0.043M29.841 4.414h-0.001l0.011 0.043M29.841 4.414l0.043-0.011c0.097-0.023 0.174-0.047 0.25-0.074l-0.018 0.005c0.089-0.032 0.168-0.073 0.227-0.13 0.048-0.044 0.082-0.103 0.095-0.169l0-0.002c0.002-0.008 0.002-0.018 0.002-0.028 0-0.052-0.024-0.099-0.062-0.129l-0-0-0.002-0.002c-0.049-0.044-0.103-0.084-0.161-0.118l-0.005-0.003-0.017-0.011c-0.066-0.039-0.123-0.079-0.176-0.121l0.003 0.002-0.003-0.002c-0.116-0.109-0.212-0.238-0.283-0.382l-0.003-0.008M29.851 4.457l0.043-0.011c0.17-0.044 0.359-0.093 0.479-0.209 0.114-0.11 0.164-0.283 0.033-0.393-0.053-0.051-0.121-0.094-0.19-0.136-0.064-0.038-0.119-0.076-0.172-0.118l0.003 0.002c-0.113-0.106-0.206-0.23-0.274-0.37l-0.003-0.007M29.73 3.235l0.001 0.001 0.039-0.021M29.73 3.235c-0.062-0.114-0.111-0.237-0.158-0.357-0.037-0.1-0.053-0.139-0.069-0.179l0.022 0.059c-0.065-0.158-0.136-0.305-0.244-0.425M29.73 3.235l-0-0.001 0.040-0.018M29.77 3.215c-0.051-0.095-0.103-0.211-0.148-0.33l-0.007-0.021c-0.079-0.202-0.158-0.403-0.302-0.561M25.032 2.815c0.089-0.054 0.156-0.133 0.215-0.225 0.037-0.058 0.069-0.117 0.102-0.178 0.021-0.038 0.042-0.078 0.064-0.117 0.057-0.099 0.122-0.195 0.212-0.265 0.092-0.072 0.206-0.117 0.359-0.117 0.131 0 0.251 0.038 0.366 0.079l0.064 0.023c0.093 0.035 0.184 0.068 0.28 0.087h0.001c0.134 0.029 0.262-0.002 0.393-0.058 0.066-0.028 0.131-0.061 0.197-0.095l0.001-0.001c0.065-0.033 0.131-0.067 0.198-0.095l0.018 0.041c-0.065 0.028-0.131 0.061-0.196 0.095-0.198 0.101-0.4 0.204-0.62 0.157-0.1-0.019-0.195-0.054-0.289-0.089-0.135-0.050-0.268-0.1-0.413-0.1-0.34 0-0.466 0.234-0.595 0.473-0.087 0.163-0.177 0.328-0.335 0.423M25.031 2.815c-0.186 0.104-0.4 0.133-0.597 0.060M25.031 2.815l0.001-0 0.022 0.039M25.031 2.815h-0l0.023 0.038M24.434 2.874c-0.056-0.023-0.11-0.048-0.164-0.073s-0.109-0.051-0.165-0.074c-0.108-0.049-0.234-0.081-0.366-0.091l-0.004-0h-0.003c-0.229 0-0.458 0.080-0.666 0.152l-0.067 0.023h-0.001l-0.078 0.030c-0.085 0.033-0.172 0.066-0.26 0.087-0.113 0.026-0.219 0.028-0.311-0.020M24.434 2.874l0.001 0-0.017 0.041M24.434 2.874h-0.001l-0.016 0.042M22.35 2.908c-0.034-0.020-0.074-0.033-0.118-0.033-0.011 0-0.023 0.001-0.033 0.002l0.001-0c-0.055 0.010-0.104 0.033-0.144 0.066l0.001-0c-0.765 0.594-1.029 1.553-1.094 2.454v0c-0.010 0.172-0.016 0.373-0.016 0.576 0 0.003 0 0.006 0 0.010v-0M22.35 2.908l0.001 0.001-0.022 0.038M22.35 2.908h-0.001l-0.021 0.039M20.947 5.983c-0.061-0.219-0.151-0.41-0.266-0.583l0.005 0.007-0-0.001c-0.285-0.404-0.763-0.64-1.262-0.409M20.947 5.983l-0 0.172v0.031l-0.005-0.029c-0.054-0.274-0.156-0.517-0.298-0.731l0.005 0.007c-0.277-0.393-0.734-0.613-1.207-0.393M20.947 5.983c0.015 0.054 0.028 0.109 0.039 0.165v0.002l0.005 0.033c0-0.26 0-0.521 0.016-0.782 0.065-0.897 0.326-1.84 1.077-2.422 0.082-0.063 0.163-0.079 0.245-0.032M19.423 4.999c-0.035 0.013-0.075 0.035-0.113 0.055l-0.028 0.015c-0.035 0.021-0.076 0.038-0.119 0.051l-0.004 0.001M19.423 4.998l0.001-0 0.016 0.041M19.423 4.998l-0.001 0.001 0.019 0.040M19.159 5.121c-0.033-0.001-0.063-0.017-0.101-0.043-0.019-0.012-0.024-0.016-0.030-0.020l0.012 0.008c-0.034-0.023-0.075-0.052-0.122-0.068M19.159 5.121h0.004v0.044M19.159 5.121l-0.004 0.001 0.009 0.044M18.918 4.998c-0.17-0.072-0.335 0.004-0.455 0.12-0.016 0.016-0.036 0.044-0.054 0.071-0.004 0.006-0.008 0.012-0.012 0.018-0.022 0.033-0.039 0.058-0.056 0.083l0.004-0.006c-0.021 0.030-0.043 0.056-0.067 0.079l-0 0c-0.006 0.006-0.013 0.011-0.020 0.016l-0.001 0M18.918 4.998l0.002 0.001-0.018 0.041M18.918 4.998l-0.002-0.001-0.014 0.043M18.258 5.378c-0.006-0.021-0.011-0.046-0.012-0.071l-0-0.001v-0.004l-0.001-0.005c-0.016-0.093-0.033-0.191-0.067-0.289l-0.001-0.001c-0.158-0.407-0.662-0.535-1.036-0.387M18.257 5.378c-0.007 0.005-0.015 0.009-0.024 0.010l-0 0c-0.006 0-0.013 0-0.019 0.001-0.007-0.024-0.012-0.052-0.014-0.082l-0-0.001c-0.016-0.094-0.033-0.188-0.065-0.283-0.147-0.378-0.62-0.503-0.979-0.362M18.257 5.378c0.002 0.009 0.005 0.016 0.008 0.023l-0-0.001 0.002 0.001c0.006 0.004 0.010 0.010 0.013 0.016l0 0c0.055-0.035 0.111-0.119 0.155-0.186 0.024-0.036 0.044-0.068 0.059-0.081 0.114-0.11 0.261-0.173 0.408-0.11M17.14 4.62c-0.257 0.1-0.427 0.297-0.56 0.505M17.14 4.62l0.016 0.042M17.14 4.62l0.016 0.042M16.581 5.125l-0.004 0.006M16.581 5.125l0.001-0.001 0.037 0.025M16.581 5.125v0.001l0.037 0.024M16.577 5.131c-0-0-0-0.001-0.001-0.001l-0-0v-0.001c-0.106-0.195-0.307-0.316-0.518-0.349s-0.438 0.020-0.597 0.181M16.577 5.131c-0.009 0.014-0.019 0.029-0.028 0.044-0.006-0.012-0.010-0.021-0.014-0.029l0.002 0.003c-0.196-0.362-0.75-0.456-1.044-0.157M16.577 5.131c0.007 0.013 0.015 0.029 0.022 0.048 0.006-0.010 0.012-0.020 0.019-0.029M15.461 4.961c-0.044 0.040-0.071 0.097-0.071 0.161 0 0.006 0 0.011 0.001 0.016l-0-0.001c0.005 0.060 0.034 0.116 0.076 0.158 0.084 0.083 0.229 0.119 0.348 0.013l0.001-0.001c0.036-0.032 0.083-0.051 0.134-0.051 0.006 0 0.012 0 0.019 0.001l-0.001-0c0.058 0.004 0.11 0.027 0.142 0.063M15.461 4.961l0-0.001 0.031 0.032M15.461 4.961h-0l0.032 0.032M16.111 5.319c0.042 0.053 0.055 0.116 0.071 0.188l0.007 0.033c0.019 0.084 0.046 0.178 0.143 0.244 0.19 0.128 0.411 0.032 0.533-0.119l0.003-0.004c0.028-0.044 0.058-0.097 0.084-0.152l0.004-0.010 0.021-0.043c0.026-0.056 0.045-0.093 0.065-0.129l-0.008 0.017c0.053-0.1 0.114-0.186 0.212-0.251l0.001-0.001c0.057-0.042 0.142-0.070 0.228-0.072s0.164 0.023 0.218 0.081M16.111 5.32l-0.001-0.001 0.035-0.028M16.111 5.319l0 0.001 0.034-0.029M17.694 5.1c0.048 0.060 0.068 0.14 0.084 0.232l0.006 0.034c0.014 0.080 0.028 0.169 0.068 0.245l0.002 0.003c0.057 0.093 0.125 0.154 0.202 0.187s0.157 0.037 0.236 0.020c0.155-0.032 0.305-0.141 0.415-0.262M17.694 5.1c-0-0-0.001-0.001-0.001-0.001v0l0.035-0.028M17.694 5.1l0.001 0.001 0.033-0.030M18.706 5.558c0.021-0.020 0.039-0.046 0.056-0.069l0.015-0.020 0.017-0.021M18.706 5.558c-0.001 0-0.001 0.001-0.001 0.001l-0.031-0.032M18.706 5.558l0.001-0.001-0.033-0.030M18.794 5.448l0.017 0.012 0.001 0.001c0.016 0.012 0.030 0.022 0.044 0.036l0.003 0.003 0.004 0.002c0.218 0.14 0.453 0.050 0.645-0.027 0.115-0.048 0.211-0.084 0.303-0.091 0.089-0.007 0.176 0.013 0.274 0.086l0.001 0.001c0.215 0.148 0.326 0.402 0.39 0.651v0.001c0.018 0.063 0.034 0.142 0.046 0.223l0.001 0.011c0.014 0.085 0.030 0.176 0.055 0.262 0.051 0.172 0.144 0.332 0.354 0.384M18.794 5.448c0.010-0.012 0.021-0.022 0.033-0.030l0.001-0 0.010 0.007c0.016 0.012 0.033 0.024 0.049 0.039 0.196 0.126 0.408 0.048 0.604-0.031 0.228-0.094 0.408-0.157 0.62 0 0.228 0.157 0.343 0.425 0.408 0.677 0.019 0.067 0.032 0.144 0.046 0.225 0.043 0.26 0.092 0.553 0.379 0.625M18.794 5.448c-0.013-0.009-0.024-0.019-0.034-0.029l0 0c-0.012 0.015-0.024 0.031-0.036 0.046-0.016 0.022-0.032 0.044-0.050 0.061M20.931 7.002c0.116 0.030 0.21 0.015 0.284-0.035 0.072-0.049 0.118-0.127 0.148-0.211 0.060-0.167 0.064-0.379 0.064-0.505 0-0.512 0.004-1.085 0.123-1.614 0.112-0.495 0.323-0.948 0.722-1.274M20.931 7.002l0.011-0.043M20.931 7.002l0.011-0.043M22.272 3.362c0.23 0.064 0.443 0.023 0.648-0.044 0.074-0.024 0.149-0.052 0.224-0.081 0.050-0.019 0.1-0.038 0.149-0.055 0.124-0.044 0.249-0.081 0.379-0.096M22.272 3.362l0.044-0.035c0.285 0.068 0.544-0.031 0.81-0.131 0.174-0.066 0.352-0.133 0.541-0.155M22.272 3.362c-0.023-0.006-0.040-0.011-0.057-0.017l0.006 0.002c-0.824 0.695-0.839 1.923-0.839 2.904 0 0.252-0.016 0.818-0.441 0.708M23.672 3.086c0.141-0.014 0.27 0.039 0.408 0.106l0.044 0.021c0.123 0.060 0.256 0.125 0.403 0.14M23.672 3.086l-0.005-0.044M23.672 3.086h0l-0.005-0.044M24.527 3.353c0.289 0.033 0.576-0.049 0.811-0.195l0.001-0.001c0.242-0.16 0.337-0.361 0.445-0.588l0.043-0.090v-0.001c0.037-0.078 0.082-0.114 0.131-0.129 0.050-0.016 0.112-0.011 0.183 0.007 0.069 0.018 0.141 0.048 0.216 0.079l0.007 0.003c0.076 0.031 0.155 0.063 0.229 0.080M24.527 3.353l0.005-0.044M24.527 3.353h0l0.005-0.044M26.594 2.518c0.36 0.083 0.667-0.067 0.96-0.224M26.594 2.519l0.010-0.044M26.594 2.518l0.010-0.043M27.554 2.295c0.107-0.047 0.256-0.111 0.395-0.132 0.141-0.021 0.254 0.004 0.314 0.113l0.001 0.001c0.042 0.071 0.123 0.108 0.2 0.11 0.004 0 0.009 0 0.014 0 0.082 0 0.153-0.045 0.189-0.112l0.001-0.001c0.025-0.053 0.068-0.093 0.121-0.115l0.002-0.001c0.029-0.010 0.063-0.016 0.099-0.016 0.024 0 0.047 0.003 0.069 0.008l-0.002-0c0.122 0.023 0.249 0.101 0.325 0.181M27.554 2.295c-0 0-0.001 0-0.001 0.001l-0 0-0.018-0.041M27.554 2.295l0.001-0.001-0.021-0.039M29.28 2.332v0l0.033-0.030M29.28 2.333l0.032-0.030M29.313 2.303c-0.163-0.173-0.538-0.331-0.685-0.047-0.065 0.126-0.261 0.11-0.326 0-0.021-0.040-0.052-0.073-0.088-0.096l-0.001-0.001h-0.017l0.004-0.007c-0.185-0.103-0.491 0.027-0.665 0.105M27.534 2.255c-0.294 0.157-0.587 0.299-0.93 0.22M26.604 2.476c-0.072-0.017-0.151-0.049-0.23-0.082-0.228-0.093-0.465-0.19-0.586 0.066l-0.044 0.091c-0.108 0.227-0.198 0.417-0.429 0.57-0.229 0.142-0.506 0.22-0.783 0.189M24.532 3.309c-0.139-0.014-0.265-0.075-0.389-0.136-0.154-0.075-0.305-0.149-0.476-0.132M18.674 5.527c-0.212 0.236-0.571 0.409-0.783 0.063-0.036-0.069-0.050-0.15-0.063-0.231-0.018-0.104-0.036-0.208-0.1-0.288M17.728 5.071c-0.131-0.141-0.375-0.11-0.506-0.016-0.145 0.097-0.214 0.237-0.284 0.382-0.033 0.067-0.066 0.135-0.107 0.2-0.114 0.141-0.31 0.22-0.473 0.11-0.092-0.062-0.112-0.154-0.132-0.248-0.015-0.073-0.031-0.147-0.081-0.209M16.145 5.291c-0.082-0.094-0.261-0.11-0.359-0.016-0.196 0.173-0.473-0.11-0.294-0.283M16.618 5.149c0.131-0.204 0.294-0.393 0.538-0.487M18.902 5.039c0.042 0.013 0.077 0.038 0.112 0.062 0.047 0.033 0.093 0.064 0.15 0.064M19.163 5.165c0.049-0.009 0.11-0.042 0.169-0.073 0.038-0.021 0.076-0.041 0.108-0.053M22.329 2.948c0.188 0.097 0.414 0.010 0.61-0.065 0.026-0.010 0.051-0.020 0.075-0.029l0.066-0.023c0.209-0.073 0.43-0.15 0.652-0.15 0.196 0.012 0.356 0.086 0.519 0.162 0.054 0.025 0.109 0.051 0.166 0.074M24.418 2.916c0.212 0.079 0.441 0.047 0.636-0.063M18.233 5.433l0.021-0.022c0.003 0.004 0.005 0.009 0.006 0.015l0 0.001c-0.008 0.003-0.018 0.006-0.028 0.006h-0zM18.233 5.433l0.014-0.030c-0.003-0.003-0.007-0.006-0.011-0.007l-0-0h-0.003c-0.006 0.001-0.011 0.003-0.015 0.006l0-0c0.003 0.012 0.008 0.023 0.015 0.032l-0-0zM32.991 7.451c0.068-0.132 0.105-0.268 0.069-0.424M32.991 7.451l0.069-0.424M33.060 7.027v-0.001M33.060 7.027v-0.001M33.060 7.026c-0.022-0.079-0.059-0.147-0.107-0.206l0.001 0.001M33.060 7.026l-0.106-0.205M32.954 6.821c-0.028-0.034-0.062-0.062-0.099-0.085l-0.002-0.001M32.954 6.821l-0.1-0.086M32.854 6.735l-0.019-0.012M32.853 6.735l-0.019-0.012M32.835 6.723c-0.024-0.015-0.046-0.031-0.065-0.048l0 0M32.835 6.723l-0.065-0.048M32.77 6.675c-0.012-0.012-0.020-0.033-0.023-0.069M32.77 6.675l-0.023-0.069M32.747 6.606c-0.001-0.008-0.002-0.020-0.003-0.031l-0-0.002M32.747 6.606l-0.003-0.034M32.744 6.572l-0.001-0.021M32.744 6.572l-0.001-0.021M32.742 6.55c-0.001-0.022-0.005-0.042-0.009-0.062l0.001 0.002M32.742 6.55l-0.009-0.059M32.733 6.491c-0.020-0.076-0.058-0.142-0.11-0.194l-0-0M32.733 6.491l-0.11-0.194M32.623 6.297c-0.127-0.122-0.304-0.155-0.46-0.138l0.46 0.138zM29.937 6.143c-0.003 0.017-0.003 0.022-0.004 0.027l0.002-0.012-0.012-0.011 0.014-0.003zM30.239 6.45l0.036-0.008-0.009 0.034-0.027-0.026zM30.346 6.107c-0.035 0.005-0.051 0.008-0.066 0.011l0.020-0.003c0.001-0.001 0.003-0.017 0.005-0.033l0.001-0.013c0.015-0.003 0.031-0.005 0.046-0.007l-0.006 0.046zM28.433 1.865c-0.015 0.010-0.028 0.020-0.040 0.029l0.001-0.001c0.013 0.008 0.026 0.017 0.039 0.026 0.012-0.009 0.025-0.018 0.038-0.027-0.011-0.009-0.024-0.018-0.037-0.027l-0.002-0.001zM30.143 4.823l0.042-0.016c-0.012-0.031-0.018-0.044-0.023-0.057l0.006 0.017-0.042 0.016 0.017 0.041zM30.83 4.001c-0.016-0.205-0.147-0.346-0.31-0.456l0.31 0.456zM20.958 6.641c0.001 0 0.001-0.001 0.002-0.001-0 0.002-0 0.003-0.001 0.004l0-0c-0.001 0.002-0.001 0.002-0.001 0-0.002 0-0.002-0.001 0-0.003zM18.791 5.39l-0.001-0.001c0.005 0.004 0.010 0.008 0.015 0.012l0.001 0c-0.006-0.003-0.011-0.007-0.015-0.012l-0-0zM29.301 1.838h-0l-0.021 0.039 0.022-0.039zM31.652 6.301h-0.001l0.011 0.043-0.011-0.043z"></path>
            <path d="M14.687 4.775c-0.007 0-0.014 0-0.021-0.001v-0.001l-0.001 0c-0.009-0.002-0.018-0.005-0.025-0.009l0 0c-0.017-0.011-0.031-0.026-0.040-0.044l-0-0.001c-0.044-0.085-0.149-0.115-0.234-0.106s-0.18 0.060-0.192 0.167c-0.009 0.049-0.022 0.092-0.041 0.133l0.001-0.004c-0.005-0.004-0.011-0.009-0.018-0.014l-0.001-0.001c-0.211-0.186-0.457-0.183-0.703-0.151h-0c-0.114 0.016-0.211 0.012-0.277-0.038-0.037-0.031-0.068-0.068-0.093-0.108l-0.001-0.002-0.022-0.034c-0.022-0.034-0.046-0.070-0.071-0.1-0.163-0.219-0.388-0.291-0.614-0.363l-0.043-0.014h-0.001c-1.195-0.347-2.421-0.552-3.664-0.631h-0.001c-0.396-0.024-0.858-0.037-1.324-0.037-0.178 0-0.356 0.002-0.534 0.006l0.026-0c-0.444 0.016-0.926 0.095-1.311 0.337-0.186 0.114-0.338 0.277-0.439 0.455-0.022 0.035-0.043 0.079-0.063 0.123l-0.018 0.041c-0.014 0.033-0.028 0.066-0.044 0.099-0.022 0.046-0.045 0.088-0.070 0.122-0.020 0.029-0.046 0.052-0.077 0.068l-0.001 0.001-0.002 0.001c-0.016 0.008-0.034 0.012-0.053 0.012-0.018 0-0.034-0.004-0.049-0.010l0.001 0c-0.028-0.011-0.055-0.027-0.085-0.045l-0.032-0.019-0.003-0.001c-0.101-0.051-0.219-0.081-0.345-0.083h-0.004c-0.208 0.020-0.383 0.145-0.475 0.32l-0.002 0.003c-0.12 0.231-0.136 0.505-0.105 0.773s0.11 0.535 0.183 0.756v0.001c0.181 0.501 0.449 0.932 0.788 1.294l-0.002-0.002c-0.053 0.079-0.085 0.177-0.086 0.281v0c0 0.154 0.062 0.284 0.125 0.404l0.023 0.043c0.057 0.107 0.109 0.206 0.13 0.316l0.001 0.002c0.031 0.133 0.013 0.274-0.071 0.369-0.037 0.044-0.089 0.074-0.148 0.082l-0.001 0c-0.028 0.005-0.057 0.006-0.090 0.007l-0.010 0c-0.035 0.001-0.069 0.003-0.102 0.006l0.006-0c-0.176 0.001-0.308 0.074-0.418 0.173-0.075 0.067-0.144 0.149-0.211 0.228-0.029 0.035-0.058 0.070-0.087 0.102-0.092 0.102-0.316 0.358-0.539 0.615l-0.146 0.172c-0.229 0.263-0.457 0.527-0.685 0.786l-0 0.001c-0.070 0.082-0.147 0.167-0.225 0.253-0.126 0.14-0.257 0.285-0.374 0.434-0.192 0.244-0.355 0.509-0.422 0.81-0.131 0.542 0.025 1.082 0.239 1.584-0.026-0.002-0.051-0.005-0.077-0.008 0.003 0-0.008-0.001-0.019-0.002l-0.013-0.001c-0.029-0.004-0.062-0.007-0.095-0.007-0.028 0-0.055 0.002-0.082 0.005l0.003-0-0.004 0.001c-0.156 0.036-0.255 0.146-0.325 0.269-0.036 0.062-0.064 0.128-0.090 0.191l-0.026 0.064c-0.016 0.041-0.031 0.079-0.047 0.114-0.073 0.164-0.15 0.325-0.228 0.486s-0.155 0.322-0.229 0.488c-0.024 0.049-0.053 0.102-0.084 0.159l-0.016 0.028c-0.037 0.067-0.075 0.139-0.108 0.212-0.066 0.146-0.116 0.306-0.089 0.461 0.027 0.158 0.144 0.288 0.272 0.398 0.066 0.056 0.14 0.113 0.217 0.167l0.010 0.007c0.056 0.041 0.109 0.079 0.154 0.116h0c0.139 0.11 0.277 0.224 0.416 0.338s0.277 0.228 0.417 0.339l0.018 0.014c0.19 0.153 0.423 0.341 0.709 0.357 0.258 0.017 0.503-0.083 0.644-0.304l0.001-0.002c0.018-0.031 0.029-0.068 0.029-0.108 0-0.027-0.005-0.052-0.014-0.076l0.001 0.001c-0.022-0.054-0.060-0.098-0.109-0.125l-0.001-0.001c-0.036-0.022-0.080-0.035-0.126-0.035-0.013 0-0.026 0.001-0.039 0.003l0.001-0c-0.064 0.012-0.117 0.052-0.146 0.107l-0.001 0.001-0.001 0.001c-0.017 0.036-0.045 0.065-0.079 0.082l-0.001 0c-0.022 0.010-0.049 0.015-0.076 0.015-0.013 0-0.025-0.001-0.037-0.003l0.001 0c-0.090-0.012-0.198-0.067-0.311-0.141-0.12-0.082-0.223-0.164-0.322-0.251l0.003 0.003c-0.038-0.033-0.074-0.065-0.107-0.093-0.034-0.031-0.071-0.063-0.109-0.094l-0.005-0.004-0.31-0.251-0-0.001c-0.102-0.082-0.204-0.165-0.309-0.251h-0c-0.034-0.027-0.073-0.054-0.11-0.079-0.028-0.018-0.044-0.030-0.061-0.041l0.010 0.007c-0.048-0.031-0.089-0.069-0.123-0.112l-0.001-0.001c-0.037-0.053-0.033-0.111-0.009-0.178 0.012-0.033 0.029-0.067 0.046-0.102 0.002-0.003 0.004-0.006 0.005-0.009 0.016-0.031 0.032-0.062 0.044-0.092 0.148-0.297 0.29-0.593 0.433-0.893 0.077-0.162 0.155-0.325 0.235-0.49 0.009-0.018 0.019-0.043 0.029-0.067l0.001-0.003c0.010-0.025 0.020-0.051 0.032-0.075 0.011-0.026 0.023-0.048 0.035-0.063 0.004-0.006 0.009-0.012 0.015-0.017l0-0c0.002-0.001 0.004-0.003 0.006-0.004l0-0 0.003-0.001c0.001 0 0.007 0 0.020 0.004 0.014 0.005 0.032 0.012 0.050 0.021 0.025 0.013 0.044 0.024 0.063 0.035l-0.005-0.003c0.013 0.007 0.025 0.015 0.034 0.019l0.004 0.001c0.084 0.032 0.163 0.054 0.243 0.056 0.081 0.002 0.162-0.016 0.249-0.058 0.129-0.062 0.141-0.22 0.086-0.327-0.155-0.322-0.307-0.671-0.367-1.022-0.060-0.35-0.027-0.699 0.185-1.026 0.165-0.251 0.377-0.48 0.588-0.709l0.111-0.12c0.261-0.299 0.522-0.598 0.767-0.897 0.261-0.299 0.522-0.598 0.767-0.897l0.001-0.001c0.011-0.014 0.020-0.027 0.030-0.041 0.017-0.023 0.034-0.046 0.054-0.070 0.032-0.036 0.060-0.057 0.085-0.062l0.004-0.001 0.004-0.001c0.024-0.007 0.052-0.012 0.081-0.012 0.014 0 0.028 0.001 0.042 0.003l-0.002-0 0.047 0.004c0.036 0.004 0.074 0.007 0.109 0.007h0.005c0.14-0.016 0.265-0.070 0.366-0.152l-0.001 0.001c0.26-0.201 0.344-0.5 0.31-0.81-0.017-0.181-0.085-0.344-0.168-0.489l-0.018-0.032c-0.022-0.039-0.052-0.093-0.071-0.146-0.009-0.021-0.014-0.045-0.014-0.070 0-0.003 0-0.007 0-0.010l-0 0c0-0.005 0.002-0.010 0.006-0.014l-0 0c0.003-0.002 0.007-0.006 0.019-0.008 0.086-0.021 0.153-0.087 0.174-0.172l0-0.002c0.022-0.078 0.009-0.171-0.055-0.233-0.322-0.311-0.596-0.683-0.756-1.1v-0.001c-0.073-0.167-0.141-0.368-0.192-0.575l-0.006-0.027c-0.048-0.213-0.068-0.426-0.028-0.614v-0.001c0.016-0.086 0.039-0.139 0.068-0.163 0.024-0.020 0.065-0.030 0.148 0.006l0.006 0.003c0.175 0.076 0.37 0.162 0.583 0.076 0.193-0.076 0.302-0.22 0.388-0.371 0.025-0.045 0.050-0.092 0.074-0.139 0.029-0.059 0.045-0.088 0.060-0.117l-0.014 0.029c0.039-0.074 0.080-0.142 0.13-0.201l0.001-0.001c0.107-0.133 0.262-0.223 0.437-0.287s0.367-0.098 0.545-0.121c0.487-0.047 0.974-0.047 1.446-0.031 1.091 0.031 2.181 0.172 3.255 0.408 0.294 0.063 0.587 0.126 0.862 0.204h0c0.022 0.007 0.058 0.015 0.093 0.023l0.012 0.002 0.082 0.019c0.062 0.016 0.117 0.034 0.16 0.061 0.070 0.045 0.112 0.108 0.161 0.182 0.012 0.018 0.025 0.037 0.039 0.057v0l0.001 0.001c0.135 0.179 0.308 0.315 0.553 0.332 0.070 0.009 0.139 0.004 0.204-0.002l0.041-0.004c0.052-0.005 0.101-0.010 0.151-0.010 0.011 0 0.072 0.007 0.127 0.022 0.025 0.007 0.043 0.014 0.055 0.021-0.015 0.029-0.024 0.063-0.024 0.099 0 0.064 0.029 0.122 0.074 0.161l0 0c0.044 0.039 0.103 0.064 0.168 0.064 0.040 0 0.077-0.009 0.111-0.025l-0.002 0.001c0.164-0.075 0.284-0.191 0.368-0.329 0.068 0.023 0.141 0.035 0.217 0.035 0.111 0 0.218-0.053 0.3-0.1 0.037-0.021 0.074-0.054 0.107-0.084l0.022-0.020c0.031-0.027 0.057-0.047 0.080-0.057l0.005 0.012c0.005 0.015 0.010 0.031 0.015 0.047l0.009 0.027c0.008 0.025 0.017 0.052 0.027 0.072l0.002 0.004 0.002 0.003c0.054 0.070 0.126 0.122 0.215 0.156l0.004 0.001c0.093 0.027 0.184 0.014 0.255-0.033 0.073-0.051 0.122-0.132 0.128-0.225l0-0.001v-0.008c-0.011-0.116-0.117-0.18-0.212-0.193-0.012-0.002-0.026-0.003-0.040-0.003-0.005 0-0.010 0-0.015 0l0.001-0c-0.008-0.034-0.019-0.063-0.033-0.090l0.001 0.002c-0.033-0.064-0.070-0.119-0.128-0.157-0.093-0.071-0.203-0.087-0.31-0.070l-0.004 0.001c-0.053 0.014-0.112 0.050-0.167 0.086l-0.052 0.034c-0.041 0.027-0.081 0.054-0.121 0.077-0.057 0.033-0.106 0.052-0.144 0.053z"></path>
            <path d="M2.634 18.127c0-0.016-0.016-0.016-0.033-0.016 0.016 0.016 0.049 0.016 0.065 0.016h0.016c-0.033 0-0.065-0.016-0.082-0.016 0.016 0.016 0.033 0.031 0.049 0.031h0.098c0.016 0 0.016 0 0.033-0.016-0.016 0-0.016 0-0.033 0.016h0.016c0.016 0 0.016 0 0.033-0.016 0.016 0 0.016-0.016 0.033-0.032s0.033-0.047 0.016-0.063c0-0.016 0-0.031-0.016-0.047 0-0.016-0.016-0.016-0.033-0.031s-0.016-0.016-0.033-0.016h-0.049c-0.033 0-0.049 0-0.065 0.016 0 0-0.016 0-0.016 0.016-0.016 0-0.016 0.016-0.033 0.016-0.020 0.021-0.032 0.048-0.032 0.079v0c0.016-0.016 0.016-0.047 0.032-0.063l-0.032 0.031c-0.016 0.016-0.016 0.047-0.016 0.063v-0.047c-0.016 0.016-0.016 0.032-0.016 0.047s0 0.047 0.016 0.063h0.033c0.016-0.016 0.032-0.016 0.049-0.032z"></path>
            <path d="M2.634 18.171c0 0 0 0 0 0 0.012 0 0.023-0.003 0.032-0.009l-0 0c0.008-0.005 0.014-0.011 0.015-0.012 0.002-0.003 0.001-0.001-0.002 0.001s-0.008 0.003-0.012 0.004h-0v-0.089c-0 0-0.001 0-0.001 0-0.011 0-0.022 0.003-0.031 0.008l0-0c-0.008 0.005-0.014 0.011-0.015 0.012-0.002 0.003-0.001 0 0.002-0.001s0.008-0.003 0.012-0.004h0v0.089zM2.634 18.127l0.062 0.064 0.027-0.026v-0.038h-0.089zM2.601 18.111v-0.089h-0.22l0.159 0.153 0.062-0.064zM2.78 18.127l0.062 0.064 0.159-0.153h-0.22v0.089zM2.797 18.127v-0.089h-0.036l-0.026 0.025 0.062 0.064zM2.846 18.032h-0.089v0.038l0.027 0.026 0.062-0.064zM2.829 17.985h-0.089v0.038l0.027 0.026 0.062-0.064zM2.65 17.954v0.089h0.036l0.026-0.025-0.062-0.064zM2.634 17.969v0.089h0.089v-0.089h-0.089zM2.601 17.985v-0.089h-0.036l-0.026 0.025 0.062 0.064zM2.569 18.064h-0.089v0.21l0.151-0.146-0.062-0.064zM2.552 18.048h0.089v-0.21l-0.151 0.146 0.062 0.064zM2.552 18.159l-0.062 0.064 0.026 0.025h0.036v-0.089zM2.585 18.159v0.089h0.036l0.026-0.025-0.062-0.064zM2.723 18.127c-0-0.046-0.030-0.085-0.071-0.098l-0.001-0c-0.022-0.007-0.046-0.006-0.050-0.006v0.178h0.004c-0.018-0.004-0.032-0.013-0.043-0.026l-0-0c-0.010-0.013-0.017-0.029-0.017-0.047v-0h0.178zM2.539 18.175c0.022 0.020 0.049 0.033 0.080 0.038l0.001 0c0.020 0.003 0.039 0.003 0.047 0.003v-0.178l-0.011-0c-0.003-0-0.006-0-0.008-0.001l0 0c-0.002 0-0.001-0 0.001 0s0.008 0.004 0.014 0.010l-0.124 0.128zM2.666 18.216h0.016v-0.178h-0.016v0.178zM2.683 18.038c-0.009-0.001-0.017-0.003-0.024-0.005l0.001 0-0.021-0.006c-0.011-0.003-0.024-0.005-0.037-0.005h-0v0.178c-0.007 0-0.012-0.001-0.006 0l0.018 0.005c0.021 0.006 0.045 0.010 0.070 0.011h0v-0.178zM2.539 18.175c0.007 0.007 0.020 0.019 0.034 0.029 0.021 0.016 0.048 0.026 0.077 0.027h0v-0.178c0.011 0 0.018 0.003 0.022 0.004l0.005 0.003c-0.006-0.005-0.010-0.009-0.015-0.014l0 0-0.124 0.128zM2.65 18.232h0.033v-0.178h-0.033v0.178zM2.683 18.232h0.016v-0.178h-0.016v0.178zM2.699 18.232h0.033v-0.178h-0.033v0.178zM2.732 18.232h0.016v-0.178h-0.016v0.178zM2.748 18.232c0.002 0 0.011 0 0.018-0.001 0.024-0.002 0.046-0.012 0.063-0.028l-0 0 0.013-0.012-0.124-0.128-0.005 0.005-0.001 0.001 0.004-0.003c0.009-0.007 0.021-0.011 0.033-0.012l0-0h-0.001v0.178zM2.78 18.038c-0.002 0-0.011 0-0.018 0.001-0.025 0.002-0.046 0.013-0.063 0.028l0-0c-0.005 0.004-0.009 0.008-0.013 0.012v0l0.123 0.128c0.001-0.001 0.003-0.003 0.006-0.005l0.001-0.001-0.004 0.003c-0.009 0.007-0.021 0.011-0.033 0.012l-0 0h0.001v-0.178zM2.748 18.232h0.016v-0.178h-0.016v0.178zM2.764 18.232c0.002 0 0.011 0 0.018-0.001 0.024-0.002 0.046-0.012 0.063-0.028l-0 0 0.013-0.012-0.124-0.128c-0.002 0.002-0.003 0.003-0.005 0.005l-0 0-0.001 0.001 0.004-0.003c0.009-0.007 0.021-0.011 0.033-0.012l0-0h-0.001v0.178zM2.797 18.216c0 0 0.001 0 0.001 0 0.037 0 0.069-0.019 0.088-0.048l0-0c0.011-0.016 0.005-0.009 0.005-0.008l-0.124-0.128c-0.009 0.009-0.017 0.019-0.023 0.029l-0 0.001c0.013-0.015 0.032-0.024 0.053-0.024 0 0 0 0 0 0v0 0.178zM2.891 18.16c0.019-0.018 0.033-0.041 0.042-0.066l0-0.001c0.008-0.023 0.020-0.080-0.026-0.124l-0.124 0.128c-0.011-0.011-0.018-0.025-0.020-0.041l-0-0c-0-0.002-0-0.003-0-0.005 0-0.005 0.001-0.011 0.002-0.015l-0 0c0.001-0.003 0.001-0.003 0.002-0.004l0.124 0.128zM2.935 18.032c0-0.018 0.001-0.068-0.043-0.111l-0.124 0.128c-0.005-0.005-0.008-0.011-0.010-0.018l-0-0c-0.001-0.003-0.001-0.005-0.001-0.005v0.006h0.178zM2.918 17.985c0-0 0-0.001 0-0.001 0-0.038-0.020-0.071-0.050-0.089l-0-0c-0.016-0.010-0.009-0.005-0.009-0.005l-0.124 0.128c0.008 0.007 0.016 0.014 0.025 0.020l0.001 0 0.008 0.005c0.001 0.001 0.002 0.001 0.003 0.002l-0-0-0.005-0.004c-0.010-0.009-0.018-0.021-0.022-0.034l-0-0c-0.002-0.006-0.003-0.014-0.004-0.021v-0h0.178zM2.859 17.89l-0.013-0.012c-0.017-0.015-0.038-0.025-0.063-0.028l-0-0c-0.008-0.001-0.016-0.001-0.018-0.001v0.178h0.001c-0.014-0.001-0.027-0.007-0.037-0.015l0 0 0.006 0.006 0.124-0.128zM2.764 17.849h-0.049v0.178h0.049v-0.178zM2.715 17.849c-0.025 0-0.081-0.004-0.127 0.041l0.124 0.128c-0.005 0.005-0.011 0.008-0.018 0.010l-0 0h0.004l0.007-0h0.011v-0.178zM2.65 17.954v-0.089h-0.007c-0.015 0.001-0.028 0.005-0.041 0.011l0.001-0c-0.035 0.017-0.058 0.052-0.058 0.093 0 0 0 0.001 0 0.001v-0h0.178c0 0 0 0 0 0 0 0.029-0.017 0.054-0.042 0.066l-0 0c-0.007 0.004-0.016 0.006-0.025 0.007h-0.006v-0.089zM2.634 17.881c-0 0-0 0-0 0-0.020 0-0.039 0.005-0.055 0.015l0.001-0c-0.013 0.008-0.023 0.018-0.024 0.018-0.003 0.003 0.002-0.003 0.011-0.007 0.010-0.006 0.022-0.009 0.035-0.010h0v0.178c0 0 0 0 0.001 0 0.020 0 0.038-0.005 0.054-0.015l-0.001 0c0.014-0.008 0.023-0.018 0.024-0.018 0.004-0.003-0.002 0.003-0.011 0.008-0.010 0.006-0.022 0.009-0.035 0.009h-0v-0.178zM2.539 17.921c-0.036 0.037-0.059 0.087-0.060 0.143v0h0.178l0-0.003c0.001-0.004 0.003-0.008 0.005-0.012l-0 0c0.001-0.001 0.001-0.001 0 0l-0.124-0.128zM2.63 18.128c0.012-0.011 0.021-0.025 0.028-0.040l0-0.001c0.005-0.011 0.008-0.021 0.010-0.026s0.002-0.007 0.003-0.009l-0.001 0.002 0.001-0.002s-0.002 0.006-0.009 0.012l-0.124-0.128c-0.012 0.011-0.021 0.025-0.028 0.039l-0 0.001c-0.005 0.011-0.008 0.021-0.010 0.026s-0.002 0.007-0.003 0.009l0.001-0.002-0.001 0.002s0.003-0.006 0.009-0.012l0.124 0.128zM2.539 17.937l-0.016 0.016c-0.004 0.004-0.008 0.008-0.016 0.016l0.124 0.128 0.016-0.016 0.016-0.016-0.124-0.128zM2.507 17.968c-0.021 0.021-0.035 0.049-0.040 0.080l-0 0.001c-0.004 0.020-0.004 0.039-0.004 0.047h0.178c0-0.006 0-0.012 0.001-0.017l-0 0.001-0.001 0.003c-0.003 0.006-0.006 0.011-0.011 0.015l-0 0-0.124-0.128zM2.641 18.095v-0.047h-0.178v0.048h0.178zM2.49 17.984c-0.045 0.043-0.044 0.094-0.044 0.111h0.178v-0.006l-0.001 0.005c-0.002 0.007-0.005 0.013-0.010 0.018l0-0-0.124-0.128zM2.447 18.095c0 0.007 0 0.026 0.004 0.047 0.005 0.032 0.019 0.059 0.040 0.080v0l0.124-0.128c0.004 0.004 0.008 0.009 0.011 0.015l0 0 0.001 0.002c-0-0.005-0.001-0.011-0.001-0.016v-0h-0.178zM2.552 18.247h0.033v-0.178h-0.033v0.178zM2.646 18.223c-0.003 0.003-0.007 0.004 0.001 0s0.028-0.013 0.048-0.032l-0.124-0.128c0.004-0.003 0.007-0.005-0.001-0s-0.028 0.013-0.048 0.032l0.123 0.128z"></path>
            <path d="M3.013 18.318l0.001 0.001 0.012 0.010c0.093 0.075 0.211 0.17 0.346 0.203 0.143 0.051 0.284 0.033 0.422-0.033 0.025-0.010 0.048-0.021 0.068-0.030 0.083-0.038 0.138-0.063 0.225-0.032l0.002 0.001c0.091 0.027 0.17 0.066 0.25 0.105 0.032 0.016 0.064 0.031 0.097 0.046 0.114 0.052 0.236 0.095 0.385 0.087 0.038 0 0.074-0.009 0.105-0.017l0.002-0c0.034-0.008 0.061-0.014 0.087-0.014 0.048 0 0.081 0.012 0.115 0.031 0.023 0.013 0.042 0.025 0.060 0.037l-0.003-0.002c0.020 0.013 0.043 0.026 0.070 0.039l0.003 0.001c0.121 0.050 0.243 0.067 0.365 0.050 0.057-0.008 0.114-0.022 0.168-0.036l0.010-0.003c0.045-0.013 0.101-0.024 0.157-0.032l0.006-0.001c0.013-0.002 0.029-0.003 0.045-0.003 0.033 0 0.066 0.005 0.096 0.015l-0.002-0.001c0.040 0.014 0.079 0.041 0.115 0.089l0 0.001c0.047 0.062 0.085 0.125 0.123 0.191 0.013 0.023 0.027 0.046 0.042 0.069 0.053 0.087 0.114 0.175 0.2 0.25 0.211 0.186 0.506 0.201 0.747 0.103 0.142-0.046 0.269-0.134 0.376-0.208l0.025-0.017 0.038-0.026c0.1-0.067 0.207-0.139 0.256-0.279 0.006-0.017 0.010-0.036 0.010-0.056 0-0.043-0.016-0.082-0.043-0.111l0 0c-0.038-0.041-0.093-0.066-0.153-0.066-0 0-0 0-0 0h0c-0.009-0.001-0.020-0.001-0.031-0.001-0.076 0-0.147 0.021-0.207 0.058l0.002-0.001c-0.075 0.045-0.139 0.092-0.199 0.144l0.002-0.001c-0.129 0.104-0.245 0.193-0.396 0.179h-0.001c-0.095-0.007-0.161-0.064-0.219-0.148-0.031-0.045-0.061-0.096-0.088-0.15l-0.003-0.008c-0.021-0.039-0.041-0.079-0.063-0.114l-0.001-0.001c-0.117-0.178-0.274-0.332-0.521-0.366-0.025-0.003-0.053-0.005-0.082-0.005-0.039 0-0.076 0.003-0.113 0.009l0.004-0.001c-0.046 0.006-0.078 0.011-0.109 0.017l0.017-0.002-0.009 0.001c-0.027 0.004-0.053 0.009-0.079 0.012l-0.002 0-0.053 0.011c-0.057 0.011-0.099 0.020-0.141 0.020-0.049 0-0.098-0.012-0.165-0.056l-0.001-0.001c-0.056-0.036-0.121-0.066-0.19-0.086l-0.005-0.001c-0.044-0.011-0.095-0.017-0.147-0.017-0.027 0-0.053 0.002-0.079 0.005l0.003-0h-0.001c-0.033 0.004-0.064 0.008-0.092 0.012-0.101 0.014-0.175 0.024-0.28-0.009-0.072-0.031-0.13-0.060-0.187-0.092l0.010 0.005c-0.035-0.020-0.085-0.045-0.135-0.069l-0.016-0.007c-0.114-0.051-0.237-0.086-0.38-0.060-0.066 0.009-0.125 0.041-0.178 0.070l-0.015 0.009c-0.048 0.027-0.091 0.051-0.137 0.064-0.067 0.012-0.134-0.006-0.203-0.040-0.044-0.022-0.078-0.041-0.111-0.061l0.007 0.004-0.004-0.002c-0.033-0.019-0.067-0.039-0.1-0.055-0.1-0.048-0.22-0.095-0.336-0.099-0.119-0.004-0.234 0.036-0.309 0.164l-0.001 0.002c-0.007 0.013-0.011 0.029-0.011 0.046s0.004 0.033 0.011 0.047l-0-0.001c0.017 0.031 0.049 0.052 0.086 0.052 0.001 0 0.002-0 0.003-0h-0c0.167 0 0.304 0.058 0.428 0.163z"></path>
            <path d="M7.866 18.972l0.003-0.001 0.003-0.001c0.276-0.109 0.516-0.186 0.82-0.217l0.001-0c0.109-0.012 0.215-0.020 0.322-0.027l0.084-0.006c0.135-0.010 0.271-0.022 0.412-0.046 0.475-0.079 0.969-0.255 1.191-0.7l0.001-0.002c0.012-0.028 0.024-0.058 0.035-0.086s0.022-0.057 0.034-0.083c0.023-0.053 0.049-0.098 0.084-0.132l0.002-0.003c0.038-0.043 0.085-0.056 0.145-0.060 0.016-0.001 0.034-0.001 0.052-0.001 0.016 0 0.031 0 0.047 0.001l-0.002-0c0.033 0 0.068 0.001 0.103-0.004 0.122-0 0.243-0.034 0.348-0.101l0.001-0.001c0.060-0.042 0.103-0.099 0.142-0.148l0.007-0.009c0.042-0.054 0.077-0.097 0.125-0.124 0.050-0.028 0.11-0.043 0.175-0.052 0.039-0.006 0.076-0.009 0.114-0.013 0.028-0.003 0.056-0.005 0.086-0.009 0.179-0.019 0.342-0.052 0.498-0.101l-0.018 0.005c0.062-0.016 0.122-0.032 0.181-0.048 0.246-0.068 0.479-0.132 0.733-0.107h0.001c0.349 0.023 0.656 0.161 0.951 0.334 0.126 0.074 0.25 0.154 0.373 0.235l0.063 0.041c0.144 0.093 0.289 0.186 0.438 0.266l0.002 0.001c0.023 0.012 0.050 0.019 0.078 0.019 0.055 0 0.104-0.026 0.135-0.067l0-0c0.021-0.026 0.034-0.060 0.034-0.097 0-0.045-0.019-0.086-0.049-0.114l-0-0c-0.413-0.445-1.007-0.828-1.62-0.971-0.168-0.048-0.361-0.075-0.561-0.075-0.12 0-0.237 0.010-0.351 0.029l0.012-0.002h-0c-0.143 0.025-0.278 0.062-0.41 0.099l-0.11 0.030c-0.169 0.045-0.336 0.083-0.519 0.091h-0c-0.159 0.008-0.284 0.036-0.395 0.093s-0.205 0.14-0.304 0.252c-0.059 0.064-0.108 0.086-0.161 0.096-0.028 0.005-0.059 0.007-0.095 0.009l-0.020 0.001c-0.039 0.001-0.074 0.003-0.109 0.006l0.007-0c-0.137 0-0.261 0.034-0.368 0.119-0.115 0.085-0.18 0.204-0.237 0.318l-0.019 0.038c-0.051 0.103-0.098 0.199-0.173 0.277l-0.001 0.001c-0.169 0.193-0.416 0.269-0.678 0.332-0.137 0.025-0.304 0.045-0.474 0.056l-0.012 0.001c-0.152 0.012-0.309 0.025-0.462 0.050-0.325 0.051-0.64 0.156-0.854 0.427-0.019 0.017-0.031 0.042-0.031 0.069 0 0.005 0 0.010 0.001 0.015l-0-0.001c0.005 0.030 0.025 0.052 0.044 0.067s0.042 0.025 0.066 0.031l0.001 0c0.012 0.003 0.027 0.005 0.042 0.005 0.012 0 0.024-0.001 0.035-0.004l-0.001 0zM44.186 15.328l-0.002 0.006-0.001 0.006c-0.016 0.204-0.033 0.409-0.049 0.629h-0v0.004c0 0.045-0.004 0.094-0.008 0.146l-0 0.001c-0.004 0.050-0.008 0.103-0.008 0.152 0 0.021-0.002 0.044-0.004 0.069s-0.004 0.052-0.004 0.078c0 0.053 0.009 0.113 0.051 0.164h-0l0.004 0.004c0.019 0.018 0.043 0.025 0.064 0.025 0 0 0.001 0 0.001 0 0.024 0 0.046-0.009 0.063-0.025l-0 0c0.045-0.043 0.058-0.104 0.062-0.158 0.003-0.037 0.002-0.078 0.001-0.113l-0.001-0.043v-0.922c0.001-0.005 0.002-0.011 0.002-0.017 0-0.018-0.007-0.034-0.018-0.046l0 0c-0.014-0.014-0.034-0.023-0.055-0.023-0.001 0-0.002 0-0.002 0h0c-0 0-0 0-0.001 0-0.043 0-0.080 0.027-0.094 0.065l-0 0.001z"></path>
            <path d="M44.388 16.314l0.002 0.003 0.002 0.002c0.022 0.022 0.053 0.035 0.086 0.036h0c0.001 0 0.002 0 0.003 0 0.033 0 0.061-0.017 0.077-0.043l0-0c0.026-0.035 0.041-0.079 0.042-0.126v-0c0-0.008 0.001-0.017 0.001-0.027 0-0.012-0-0.024-0.001-0.037l0 0.002-0-0.012c-0.001-0.016-0.001-0.030-0.001-0.045v-0.22c0-0.080-0.004-0.156-0.008-0.23v-0c-0.004-0.075-0.008-0.149-0.008-0.226 0-0.001 0-0.001 0-0.002 0-0.027-0.012-0.051-0.031-0.067l-0-0c-0.017-0.014-0.039-0.023-0.062-0.023-0 0-0 0-0 0v0c-0.021 0-0.044 0.007-0.063 0.022-0.019 0.016-0.030 0.040-0.031 0.067v0l-0.004 0.037c-0.015 0.142-0.029 0.275-0.029 0.421 0 0.037-0.004 0.074-0.008 0.111l-0.001 0.007c-0.004 0.034-0.007 0.070-0.007 0.102 0 0.015-0.001 0.030-0.001 0.045l-0 0.012c-0.001 0.010-0.001 0.022-0.001 0.035 0 0.009 0 0.019 0.001 0.028l-0-0.001c0.002 0.043 0.012 0.088 0.044 0.129zM30.38 5.676c0.016-0.017 0.027-0.038 0.033-0.061l0-0.001c0.003-0.017 0.006-0.037 0.006-0.058 0-0.004-0-0.008-0-0.011l0 0.001v-0.16c0-0.045 0.004-0.095 0.008-0.146v-0.001c0.004-0.050 0.008-0.102 0.009-0.15 0.016-0.205 0.016-0.411 0.016-0.63v-0.012l-0.005-0.010c-0.015-0.028-0.044-0.047-0.078-0.048h-0c-0 0-0.001 0-0.001 0-0.017 0-0.033 0.006-0.046 0.016l0-0c-0.014 0.012-0.024 0.030-0.024 0.050v0c-0.016 0.204-0.033 0.41-0.033 0.616 0 0.045-0.004 0.094-0.008 0.146v0.001c-0.004 0.051-0.008 0.103-0.008 0.152v0.157c0 0.010-0.001 0.020-0.002 0.032v0.001c-0.001 0.011-0.003 0.023-0.003 0.036 0 0.024 0.004 0.054 0.025 0.080 0.005 0.011 0.013 0.019 0.021 0.024 0.012 0.008 0.025 0.010 0.035 0.010s0.023-0.002 0.036-0.010c0.009-0.006 0.015-0.014 0.020-0.023l0-0zM4.091 6.77v0.003l0.025 0.362 0.025 0.362v0.003c0.008 0.061 0.012 0.119 0.016 0.178v0c0.004 0.059 0.008 0.119 0.016 0.183v0.001c0.004 0.026 0.006 0.052 0.008 0.079 0 0.004 0 0.007 0.001 0.011 0.001 0.023 0.003 0.048 0.006 0.072 0.006 0.054 0.019 0.111 0.054 0.164 0.004 0.012 0.012 0.022 0.023 0.028l0 0c0.012 0.007 0.025 0.010 0.035 0.010s0.023-0.002 0.035-0.010c0.013-0.008 0.022-0.022 0.025-0.037l0-0c0.034-0.118 0.016-0.235 0.001-0.341l-0-0.004c-0.008-0.061-0.012-0.119-0.016-0.178v-0.001c-0.004-0.072-0.010-0.134-0.018-0.196l0.002 0.015c-0.009-0.118-0.021-0.236-0.033-0.354v-0c-0.009-0.074-0.021-0.195-0.030-0.317l-0.002-0.035v-0.006l-0.002-0.006c-0.013-0.038-0.048-0.065-0.089-0.065h-0c-0 0-0.001 0-0.001 0-0.021 0-0.040 0.008-0.054 0.021l0-0c-0.015 0.014-0.025 0.035-0.025 0.058 0 0 0 0.001 0 0.001v-0zM4.373 7.174l-0.005 0.010v0.012c0 0.203 0 0.393 0.016 0.599 0 0.189 0.016 0.396 0.066 0.588 0.003 0.018 0.013 0.031 0.025 0.039s0.025 0.010 0.036 0.010c0.010 0 0.023-0.002 0.035-0.010 0.014-0.009 0.023-0.024 0.025-0.041l0-0c0.025-0.146 0.022-0.302 0.019-0.449-0.001-0.040-0.002-0.089-0.002-0.138v-0.004c-0.004-0.039-0.008-0.106-0.012-0.173l-0.001-0.020c-0.007-0.134-0.015-0.269-0.037-0.409l-0.001-0.007-0.004-0.006c-0.015-0.029-0.045-0.048-0.079-0.048-0 0-0.001 0-0.001 0h0c-0 0-0.001 0-0.001 0-0.034 0-0.064 0.019-0.079 0.047l-0 0z"></path>
            <path d="M21.072 17.956l-2.341-7.467h0.641c0.065 0 0.103 0.016 0.128 0.035l0.004 0.003c0.035 0.025 0.050 0.050 0.058 0.079l0.001 0.004 0.001 0.004 1.623 5.434c0.024 0.093 0.047 0.194 0.068 0.303l0.001 0.003 0 0.003c0.025 0.11 0.048 0.227 0.070 0.351l0.349 0.005c0.025-0.125 0.050-0.243 0.075-0.354 0.028-0.112 0.058-0.211 0.088-0.3l0-0.001 1.849-5.435c0.016-0.037 0.040-0.067 0.071-0.090l0.001-0 0.001-0.001c0.031-0.026 0.071-0.041 0.115-0.041 0.003 0 0.005 0 0.008 0h0.307c0.065 0 0.1 0.016 0.119 0.031 0.033 0.027 0.059 0.060 0.077 0.104l1.842 5.433c0.031 0.088 0.058 0.184 0.083 0.288l0 0.003 0.001 0.003c0.028 0.106 0.055 0.218 0.080 0.335l0.349-0.010c0.018-0.117 0.038-0.229 0.059-0.336 0.021-0.105 0.044-0.202 0.068-0.292l1.63-5.438c0.011-0.034 0.032-0.063 0.060-0.083l0-0c0.032-0.024 0.073-0.038 0.116-0.038 0.003 0 0.006 0 0.009 0l-0-0h0.587l-2.341 7.467h-0.696l-1.951-5.843c-0.007-0.017-0.025-0.075-0.042-0.133l-0.010-0.041c-0.015-0.066-0.031-0.135-0.049-0.207h-0.345c-0.046 0.186-0.083 0.313-0.122 0.439l0.016-0.058-1.961 5.844h-0.696z"></path>
        </symbol>
        <symbol id="icon-footer-instagram" viewBox="0 0 32 32">
            <path d="M16 10c-1.187 0-2.347 0.352-3.333 1.011s-1.756 1.596-2.21 2.693c-0.454 1.096-0.573 2.303-0.341 3.467s0.803 2.233 1.642 3.072c0.839 0.839 1.908 1.411 3.072 1.642s2.37 0.113 3.467-0.341c1.096-0.454 2.033-1.223 2.693-2.21s1.011-2.147 1.011-3.333c-0.002-1.591-0.634-3.116-1.759-4.241s-2.65-1.758-4.241-1.759zM16 20c-0.791 0-1.565-0.235-2.222-0.674s-1.171-1.064-1.473-1.795c-0.303-0.731-0.382-1.535-0.228-2.311s0.535-1.489 1.095-2.048c0.559-0.559 1.272-0.94 2.048-1.095s1.58-0.075 2.311 0.228c0.731 0.303 1.356 0.815 1.795 1.473s0.674 1.431 0.674 2.222c0 1.061-0.421 2.078-1.172 2.828s-1.768 1.172-2.828 1.172zM22 3h-12c-1.856 0.002-3.635 0.74-4.948 2.052s-2.050 3.092-2.052 4.948v12c0.002 1.856 0.74 3.635 2.052 4.948s3.092 2.050 4.948 2.052h12c1.856-0.002 3.635-0.74 4.948-2.052s2.050-3.092 2.052-4.948v-12c-0.002-1.856-0.74-3.635-2.052-4.948s-3.092-2.050-4.948-2.052zM27 22c0 1.326-0.527 2.598-1.465 3.535s-2.209 1.465-3.535 1.465h-12c-1.326 0-2.598-0.527-3.536-1.465s-1.464-2.209-1.464-3.535v-12c0-1.326 0.527-2.598 1.464-3.536s2.209-1.464 3.536-1.464h12c1.326 0 2.598 0.527 3.535 1.464s1.465 2.209 1.465 3.536v12zM24 9.5c0 0.297-0.088 0.587-0.253 0.833s-0.399 0.439-0.673 0.552c-0.274 0.114-0.576 0.143-0.867 0.085s-0.558-0.201-0.768-0.411-0.353-0.477-0.411-0.768c-0.058-0.291-0.028-0.593 0.085-0.867s0.306-0.508 0.553-0.673 0.537-0.253 0.833-0.253c0.398 0 0.779 0.158 1.061 0.439s0.439 0.663 0.439 1.061z"></path>
        </symbol>
        <symbol id="icon-footer-facebook" viewBox="0 0 32 32">
            <path d="M16 3c-2.571 0-5.085 0.762-7.222 2.191s-3.804 3.459-4.788 5.834c-0.984 2.375-1.241 4.989-0.74 7.511s1.74 4.838 3.558 6.656c1.818 1.818 4.134 3.056 6.656 3.558s5.136 0.244 7.511-0.74c2.375-0.984 4.406-2.65 5.834-4.788s2.191-4.651 2.191-7.222c-0.004-3.447-1.374-6.751-3.812-9.188s-5.742-3.808-9.188-3.812zM17 26.954v-7.954h3c0.265 0 0.52-0.105 0.707-0.293s0.293-0.442 0.293-0.707-0.105-0.52-0.293-0.707c-0.187-0.188-0.442-0.293-0.707-0.293h-3v-3c0-0.53 0.211-1.039 0.586-1.414s0.884-0.586 1.414-0.586h2c0.265 0 0.52-0.105 0.707-0.293s0.293-0.442 0.293-0.707-0.105-0.52-0.293-0.707c-0.187-0.188-0.442-0.293-0.707-0.293h-2c-1.061 0-2.078 0.421-2.828 1.172s-1.172 1.768-1.172 2.828v3h-3c-0.265 0-0.52 0.105-0.707 0.293s-0.293 0.442-0.293 0.707 0.105 0.52 0.293 0.707c0.188 0.188 0.442 0.293 0.707 0.293h3v7.954c-2.819-0.257-5.43-1.591-7.291-3.725s-2.827-4.902-2.698-7.73c0.129-2.828 1.343-5.497 3.389-7.453s4.768-3.047 7.599-3.047c2.831 0 5.553 1.091 7.599 3.047s3.261 4.625 3.389 7.453c0.129 2.828-0.838 5.596-2.698 7.73s-4.472 3.468-7.291 3.725z"></path>
        </symbol>
        <symbol id="icon-footer-telegram" viewBox="0 0 32 32">
            <path d="M29.609 3.274c-0.155-0.134-0.343-0.223-0.545-0.257s-0.409-0.013-0.6 0.061l-25.333 9.914c-0.359 0.14-0.663 0.392-0.866 0.719s-0.294 0.712-0.26 1.095c0.034 0.384 0.192 0.746 0.45 1.032s0.602 0.481 0.98 0.555l6.564 1.289v7.319c-0.001 0.399 0.117 0.789 0.34 1.119s0.54 0.587 0.91 0.735c0.369 0.151 0.776 0.187 1.166 0.104s0.747-0.282 1.023-0.57l3.165-3.283 5.021 4.395c0.362 0.321 0.829 0.499 1.314 0.5 0.212-0 0.423-0.033 0.625-0.099 0.33-0.105 0.627-0.294 0.861-0.549s0.397-0.567 0.473-0.905l5.074-22.073c0.045-0.199 0.036-0.407-0.028-0.601s-0.179-0.367-0.333-0.501zM21.967 7.774l-11.199 8.020-6.2-1.216 17.399-6.804zM11.999 25v-5.935l3.099 2.717-3.099 3.217zM22.941 26l-10.335-9.062 14.875-10.661-4.54 19.724z"></path>
        </symbol>
        <symbol id="icon-scroll-up" viewBox="0 0 32 32">
            <path d="M16 32c8.837 0 16-7.163 16-16s-7.163-16-16-16v0c-8.837 0-16 7.163-16 16s7.163 16 16 16v0zM23.563 16.938c0.587 0.587 0.587 1.538 0 2.119s-1.538 0.587-2.119 0l-5.438-5.438-5.438 5.438c-0.588 0.587-1.537 0.587-2.119 0s-0.588-1.538 0-2.119l6.487-6.5c0.588-0.588 1.538-0.588 2.119 0l6.506 6.5z"></path>
        </symbol>
    </defs>
</svg>
