<svg aria-hidden="true" style="position: absolute; width: 0; height: 0; overflow: hidden;" version="1.1" xmlns="http://www.w3.org/2000/svg" xmlns:xlink="http://www.w3.org/1999/xlink">
    <defs>
        <symbol id="icon-header-logo" viewBox="0 0 45 32">
            <path d="M13.565 15.791c0 0.417 0.417 0.557 0.696 0.696l0.278 0.209 0.070 0.139 0.139 0.070 0.278 0.209c0.209 0.139 0.417 0.070 0.626 0h0.070v0.070l0.070 0.139c0.139 0.209 0.348 0.278 0.626 0.278v0.070l0.070 0.348v0.696c0 0.209 0.139 0.417 0.348 0.626l0.209 0.070 0.139 0.070h0.139l0.139 0.209v0.070l0.278 0.557 0.209 0.209 0.209 0.278 0.348 0.974 0.139 0.348h-0.835c-0.052-0.020-0.111-0.032-0.174-0.032s-0.122 0.012-0.177 0.033l0.003-0.001h-0.278v-0.209l-0.209-0.070s-0.209-0.070-0.278 0h-0.139c-0.421 0.244-0.7 0.693-0.7 1.208 0 0.040 0.002 0.080 0.005 0.119l-0-0.005v0.417l-0.139 0.070c-0.077 0.063-0.146 0.131-0.207 0.206l-0.002 0.003c-0.209 0.209-0.278 0.417-0.278 0.557l-0.070 0.139-0.139 0.417-0.139 0.139h-0.139c-0.209 0-0.487 0.139-0.487 0.348v0.209l0.070 0.070 0.070 0.139 0.278 0.209 0.209 0.070c0.38 0.126 0.679 0.244 0.971 0.375l-0.067-0.027c0.209 0 0.417 0 0.557-0.209l0.278-0.139 0.139-0.139c0.139-0.139 0.278-0.139 0.417-0.139 0.278 0 0.487 0.209 0.557 0.417 0.032 0.162 0.173 0.283 0.342 0.283 0.081 0 0.156-0.028 0.216-0.075l-0.001 0.001c0-0.070 0.070-0.209 0-0.278-0.070-0.696-0.835-1.183-1.53-0.974l-0.557 0.348-0.348 0.278h-0.139l-0.139-0.139c-0.037-0.022-0.083-0.045-0.13-0.066l-0.009-0.003c0.070-0.139 0.209-0.209 0.209-0.348 0.139-0.139 0.139-0.348 0.209-0.487v-0.139l0.696-0.835c0.139-0.278 0.070-0.487 0-0.696 0-0.209 0-0.348 0.139-0.487h0.139c0.209 0.209 0.487 0.209 0.696 0.139h0.070c0.139 0.070 0.278 0.139 0.417 0.070h0.139v-0.070h0.348c0.209 0.139 0.487 0.139 0.696 0 0.139 0 0.209-0.209 0.209-0.348v-0.348l-0.139-0.348-0.417-1.252-0.417-0.557-0.139-0.139v-0.070l-0.070-0.139c-0.034-0.151-0.058-0.244-0.083-0.337l0.014 0.059-0.417-0.348c-0.079-0.050-0.171-0.097-0.267-0.135l-0.011-0.004-0.070-0.070v-0.696c0-0.278 0-0.557-0.139-0.835 0-0.139-0.139-0.278-0.278-0.348l-0.348-0.070-0.139-0.070v-0.070c-0.068-0.072-0.136-0.14-0.206-0.206l-0.002-0.002c-0.139-0.209-0.487-0.348-0.835-0.209l-0.348-0.139-0.278-0.139h-0.209l-0.209-0.139c-0.139 0-0.278-0.139-0.348-0.278h-0.139l-0.209-0.139-0.139 0.070-0.070 0.209z"></path>
            <path d="M22.47 21.704v-0.209c-0.557 0-1.113 0.070-1.67 0.348-0.209 0.070-0.417 0.209-0.557 0.417-0.139 0.070-0.209 0.209-0.209 0.348h-0.139l0.139 0.070v0.348l0.139 0.209h0.139c0.209 0 0.348 0.209 0.278 0.348l-0.070 0.139-0.278 0.070h-0.278l-0.417 0.070c-0.070 0-0.209 0-0.278 0.139h-0.139c0 0.010 0 0.023 0 0.035s-0 0.024-0 0.037l0-0.002c-0.018-0.177-0.167-0.315-0.348-0.315-0.193 0-0.35 0.157-0.35 0.35 0 0.012 0.001 0.024 0.002 0.036l-0-0.002h-0.139l0.139 0.209-0.139 0.209-0.070-0.139h-0.070c-0.050-0.029-0.11-0.047-0.174-0.047s-0.124 0.017-0.176 0.047l0.002-0.001c-0.139 0-0.278 0.070-0.209 0.278h-0.070v0.139l0.278 1.53c0 0.139 0.209 0.209 0.278 0.139 0.139 0 0.278-0.070 0.278-0.209v-0.835c0.139 0 0.278 0 0.278-0.209l0.070-0.070h0.139l-0.070-0.139 0.139-0.348h0.139l0.348-0.070h0.070l0.139-0.139c0.073-0.012 0.158-0.019 0.243-0.019s0.17 0.007 0.253 0.020l-0.009-0.001c0.209 0 0.417 0 0.696-0.139 0.278-0.209 0.487-0.626 0.487-0.974-0.070-0.348-0.278-0.557-0.557-0.696l0.139-0.139 0.417-0.209c0.271-0.097 0.583-0.153 0.909-0.153 0.096 0 0.192 0.005 0.285 0.014l-0.012-0.001c0.070 0 0.139 0 0.209-0.139l0.070-0.209c0-0.139-0.070-0.278-0.278-0.348v0.209zM22.47 21.704c0.209 0 0.209 0.278 0 0.278-0.417 0-0.835 0-1.183 0.209l-1.043 0.417c0.070-0.278 0.348-0.487 0.696-0.696 0.417-0.139 0.974-0.278 1.53-0.209z"></path>
            <path d="M22.191 22.052l0.139 0.070v0.278h0.139c0.070 0.139 0.139 0.139 0.278 0.209h0.070v0.278c0 0.139 0 0.209 0.139 0.278h0.070c0.278 0 0.487 0.139 0.696 0.278h0.209l0.557 0.348c0.221 0.060 0.474 0.094 0.735 0.094 0.133 0 0.264-0.009 0.393-0.026l-0.015 0.002h0.765l0.348 0.139-0.278 0.139h-0.139l-1.252 1.183-0.278 0.278-0.209 0.348v0.417c0.139 0.070 0.209 0.209 0.417 0.209h0.417c0.141-0.066 0.232-0.113 0.323-0.161l-0.044 0.022h0.209v0.139l0.139 0.139 0.417 0.139h0.139l0.070 0.348v1.113c0 0.278 0 0.626 0.348 0.835 0.487 0.417 1.183 0.278 1.6 0 0.266-0.201 0.495-0.43 0.689-0.687l0.006-0.009c0.209-0.187 0.435-0.37 0.671-0.54l0.024-0.017c0.139-0.139 0.139-0.278 0-0.417 0-0.070-0.139-0.139-0.278-0.070-0.278 0.070-0.557 0.278-0.696 0.417l-0.278 0.278c-0.089 0.098-0.18 0.189-0.275 0.275l-0.003 0.003c-0.169 0.164-0.381 0.285-0.616 0.346l-0.010 0.002c-0.209 0-0.348 0-0.487-0.139l-0.070-0.278v-0.487c0.070-0.278 0.139-0.557 0-0.835 0-0.209 0-0.557-0.209-0.765-0.091-0.1-0.209-0.173-0.343-0.208l-0.005-0.001c-0.031-0.006-0.067-0.009-0.104-0.009s-0.073 0.003-0.108 0.009l0.004-0.001c-0.021 0.001-0.045 0.002-0.070 0.002s-0.049-0.001-0.073-0.003l0.003 0-0.139-0.209-0.348-0.209h-0.417l0.417-0.348c0.417-0.348 0.904-0.696 1.391-0.904l0.278-0.209 0.070-0.209-0.070-0.278c-0.070-0.139-0.278-0.209-0.417-0.278l-0.417-0.139c-0.308-0.093-0.661-0.146-1.027-0.146-0.079 0-0.158 0.003-0.236 0.007l0.011-0.001h-0.696l-0.696-0.278-0.070-0.070c-0.112-0.066-0.25-0.136-0.391-0.198l-0.027-0.011h0.417c0.209 0 0.417 0 0.557-0.139l0.209-0.209v-0.348c-0.209-0.417-0.696-0.557-0.974-0.557l-1.113 0.070h-0.348v0.070c-0.209 0.070-0.209 0.278-0.209 0.348l0.070 0.209z"></path>
            <path d="M29.913 27.965h-0.278c-0.139-0.139-0.139-0.278-0.070-0.417 0.209-0.278 0.417-0.278 0.626-0.348h0.139c0.052 0.002 0.113 0.003 0.174 0.003s0.122-0.001 0.183-0.003l-0.009 0c0.177-0.098 0.32-0.24 0.415-0.412l0.003-0.005 0.487-0.348-0.278-0.209c-0.209-0.070-0.348-0.278-0.417-0.417-0.442-0.517-0.76-1.152-0.9-1.852l-0.004-0.026v-0.696c0-0.278 0.278-0.417 0.417-0.487l0.348-0.209 0.278-0.209 0.696-0.417 0.557-0.348 0.139-0.070 0.557-0.348h0.974v-0.070l0.278-0.139c0.104-0.033 0.224-0.052 0.348-0.052s0.244 0.019 0.356 0.055l-0.008-0.002 0.139-0.070v-0.070h0.070c0.139-0.139 0.209-0.278 0.417-0.348h0.348l0.278-0.139c0.139 0 0.209 0 0.278-0.139l0.278-0.139c0.209-0.139 0.417-0.139 0.696-0.139h0.070c0.031 0 0.068 0 0.104 0s0.073-0 0.11-0.001l-0.006 0h0.209v-0.278l0.070-0.348 0.209-0.696M29.983 27.965l8.348-9.322M29.983 27.965l0.139-0.070h0.904M29.913 27.826h1.043M38.122 18.504l0.209 0.070M38.122 18.574h0.209M38.122 18.574c0.070-0.278 0.209-0.487 0.487-0.557l0.139-0.070h0.139l0.209-0.139 0.209-0.209 0.278-0.209 0.348-0.139c0.139 0 0.278 0 0.417 0.139l0.139 0.139v0.209c-0.070 0.070-0.209 0.209-0.348 0.139-0.070 0-0.139 0-0.209 0.139l-0.209 0.139-0.070 0.070c-0.209 0.209-0.417 0.278-0.696 0.348l-0.139 0.209-0.139 0.278-0.070 0.696v0.139c-0.070 0.278-0.278 0.487-0.487 0.557-0.209 0.139-0.487 0.139-0.696 0.070M38.33 18.574c0-0.139 0.139-0.348 0.348-0.417h0.139l0.417-0.209c0-0.070 0-0.139 0.139-0.139 0.209-0.278 0.487-0.487 0.904-0.278 0.139 0 0 0.209-0.139 0.209-0.209 0-0.417 0.139-0.557 0.278l-0.070 0.139-0.626 0.278c-0.209 0.070-0.278 0.348-0.348 0.626l-0.139 0.696v0.070c-0.070 0.557-0.557 0.557-0.974 0.557M37.426 20.522v-0.139M37.426 20.522c-0.014-0.001-0.030-0.001-0.047-0.001-0.221 0-0.424 0.079-0.581 0.211l0.001-0.001M37.426 20.522v-0.139M37.426 20.383c-0.278 0-0.487 0-0.696 0.209M31.861 26.157c-0.417 0.070-0.696-0.209-0.974-0.557-0.38-0.485-0.65-1.073-0.762-1.716l-0.003-0.023v-0.070c-0.070-0.209-0.070-0.417 0-0.557 0-0.209 0.139-0.278 0.278-0.417h0.070l0.278-0.209c0.139 0 0.209-0.139 0.348-0.209l0.626-0.348 0.626-0.417 0.070-0.070 0.557-0.278 0.278-0.070h0.348l0.417-0.070 0.209-0.070h0.557c0.139 0 0.278-0.070 0.348-0.209l0.417-0.278 0.278-0.070 0.417-0.070 0.209-0.209 0.278-0.139 0.626-0.139h0.070c0.209 0 0.417 0.070 0.557 0v-0.278l0.070-0.139-6.122 6.678zM31.861 26.157c0.209 0 0.417 0 0.487-0.209M31.93 26.226l0.417-0.278M32.348 25.948l0.278-0.209 0.070 0.139M32.348 25.948h0.417M32.765 25.948c0.070 0.139 0.209 0.209 0.348 0.139l0.139-0.070 0.070-0.070M32.765 25.948h0.557M33.322 25.948l0.278-0.209M33.322 25.948l0.487-0.209M33.6 25.739h0.209M33.6 25.739l0.070 0.209M33.67 25.739v0.209M33.809 25.739l-0.139 0.209M33.809 25.739l-0.139 0.209M33.67 25.948c-0.081 0.035-0.15 0.082-0.209 0.139l0-0h-0.070v0.070l-0.209 0.070c-0.278 0.139-0.487 0-0.557-0.209M33.67 25.948h-0.974M33.809 25.948l0.209-0.070h-0.209zM32.696 25.948c0.010-0.001 0.023-0.001 0.035-0.001s0.024 0 0.036 0.001l-0.002-0h-0.070M32.696 25.948c-0.002 0.021-0.002 0.045-0.002 0.070s0.001 0.049 0.003 0.073l-0-0.003-0.278 0.139M32.696 26.017v-0.070M32.696 25.948l-0.278 0.278M32.417 26.226v0.209M32.417 26.226l0.348 0.139 0.139 0.139 0.139 0.070M33.043 26.574l-0.070 0.139M32.974 26.574v0.139M32.974 26.574h0.696c-0.209 0.139-0.557 0.278-0.696 0.139M32.974 26.713l-0.139-0.070-0.139-0.139-0.348-0.070M32.348 26.435h-0.626M32.417 26.435v-0.139l-0.696 0.209M31.722 26.504l-0.417 0.348c-0.139 0.139-0.278 0.348-0.487 0.417h-0.417l1.391-0.765zM31.026 27.757c0.278 0 0.417-0.209 0.487-0.348l0.139-0.070 0.278-0.209c0.070-0.139 0.209-0.139 0.348-0.139 0.070 0 0.139 0 0.209 0.139l0.348 0.209h0.348c0.042 0.002 0.090 0.003 0.139 0.003s0.098-0.001 0.146-0.004l-0.007 0 0.557-0.278c0.139-0.070 0.278-0.209 0.348-0.417 0.059-0.079 0.107-0.172 0.137-0.272l0.002-0.006v-0.209l0.209-0.209v-0.209c0-0.139-0.070-0.209-0.209-0.278-0.081-0.040-0.176-0.066-0.277-0.070l-0.001-0h-0.626c-0.159 0.056-0.297 0.127-0.424 0.213l0.006-0.004c-0.118-0.095-0.27-0.153-0.435-0.153-0.121 0-0.235 0.031-0.334 0.085l0.004-0.002c-0.139 0-0.209 0.139-0.209 0.209l-0.209 0.139h-0.139l-0.209-0.209c-0.278-0.278-0.557-0.696-0.696-1.043-0.11-0.307-0.184-0.663-0.208-1.032l-0.001-0.012c0.070-0.139 0.139-0.139 0.278-0.209 0.074-0.059 0.165-0.128 0.257-0.194l0.021-0.014c0.139 0 0.209-0.139 0.348-0.209l0.278-0.209v-0.139M30.957 27.826l2.365-5.913c0.021-0.001 0.045-0.001 0.070-0.001s0.049 0 0.073 0.001l-0.004-0h0.209c0.21-0.029 0.398-0.102 0.561-0.212l-0.005 0.003M31.722 22.539l0.487-0.278 0.765-0.487M31.722 22.539l-0.348 0.209-0.278 0.209 0.696-0.417zM32.974 21.774v0zM32.974 21.774h0.696l0.417-0.139h0.070M34.157 21.635l0.070 0.070M34.226 21.565l0.209-0.070h0.348c0.139 0.070 0.278 0 0.417-0.070l0.209-0.139 0.139-0.209 0.417-0.139h0.209l0.487-0.278M34.296 21.565l0.070 0.139M34.365 21.704l2.504-0.835M36.87 20.87l-0.070-0.139M36.87 20.87l-0.070-0.139M34.017 25.809h0.070v0.139l-0.070-0.139zM33.113 25.878v-0.139c0.010-0.002 0.023-0.003 0.035-0.003s0.024 0.001 0.036 0.003l-0.001-0c-0.001 0.010-0.001 0.023-0.001 0.035s0.001 0.024 0.002 0.036l-0-0.002h-0.139zM33.6 25.6c-0.132 0.034-0.248 0.081-0.355 0.143l0.007-0.004-1.809 1.6 0.278-0.278c0.139-0.070 0.348-0.139 0.557-0.070l0.278 0.139 0.209 0.139h0.626c0.209 0 0.348-0.070 0.557-0.209l0.278-0.348 0.070-0.209c0-0.139 0-0.209 0.139-0.278v-0.070l0.139-0.348c0-0.139-0.209-0.278-0.348-0.278h-0.557zM33.043 25.739h-0.070zM31.443 25.739c-0.278-0.278-0.557-0.696-0.696-1.043l0.696 1.113z"></path>
            <path d="M42.365 14.678l0.417-0.070 0.139-0.139h0.139v-0.557c0-0.139-0.139-0.139-0.209-0.209h-0.209v-0.139l0.139-0.139c0.209-0.139 0.348-0.348 0.417-0.557v-0.487c0.002-0.052 0.004-0.113 0.004-0.174s-0.001-0.122-0.004-0.182l0 0.009v-0.209c0.070-0.070 0.139-0.278 0-0.417-0.139-0.278-0.417-0.348-0.696-0.209h-0.070l-0.139 0.070h-0.070c-0.139-0.209-0.278-0.348-0.487-0.417-0.12-0.069-0.261-0.117-0.411-0.138l-0.006-0.001h-0.278v-0.278h-0.070c-0.053-0.15-0.186-0.26-0.346-0.278l-0.002-0-0.348 0.070h-0.209l-0.417-0.278-0.835-0.278-0.348-0.070c-0.139 0-0.278 0-0.417 0.139-0.003 0.021-0.005 0.045-0.005 0.070s0.002 0.049 0.005 0.072l-0-0.003h-0.139v-0.070c-0.239-0.138-0.445-0.299-0.625-0.486l-0.001-0.001c-0.077-0.101-0.147-0.215-0.204-0.336l-0.005-0.011-0.209-0.348c-0.209-0.278-0.557-0.278-0.835-0.278-0.516 0.030-0.992 0.182-1.406 0.425l0.015-0.008h-0.070l-0.209-0.139-0.348 0.070h-0.070c-0.054-0.021-0.099-0.044-0.143-0.072l0.003 0.002-0.487-0.278c-0.052-0.014-0.112-0.022-0.174-0.022s-0.122 0.008-0.179 0.023l0.005-0.001h-0.278l-0.139 0.070h-0.348c-0.122-0.071-0.204-0.199-0.209-0.347l-0-0.001v-0.139l0.070-0.209c0-0.209 0-0.417-0.139-0.557v-0.070c-0.064-0.121-0.113-0.261-0.138-0.409l-0.001-0.008c0-0.070 0-0.139-0.139-0.209h-0.278c-0.139 0-0.278 0.139-0.278 0.348l0.139 0.348c0.059 0.128 0.106 0.22 0.155 0.309l-0.015-0.031v0.348l-0.070 0.209c0 0.487 0.278 0.904 0.696 1.113l0.696 0.070h0.209v-0.139h0.278v0.070l0.626 0.278h0.209c0.1 0.059 0.22 0.093 0.348 0.093s0.248-0.035 0.351-0.095l-0.003 0.002c0.139 0 0.209 0 0.278-0.139 0.26-0.154 0.568-0.254 0.898-0.278l0.007-0h0.278l0.139 0.139v0.139c0.359 0.571 0.885 1.007 1.509 1.245l0.021 0.007h0.417c0.139-0.070 0.209-0.209 0.209-0.278h0.139v0.070c0.415 0.135 0.76 0.276 1.093 0.439l-0.049-0.022 0.209 0.139c0.139 0 0.278 0.139 0.487 0.070l0.070 0.139c0.209 0.209 0.417 0.209 0.696 0.278l0.417 0.070v0.139h0.070l0.070 0.070c0.070 0.139 0.139 0.209 0.348 0.278h0.417l0.070-0.070v1.043l-0.348 0.139h-0.070l-0.070 0.070c-0.070 0-0.139 0-0.209 0.139-0.139 0-0.209 0.209-0.278 0.348 0 0.139 0 0.348 0.209 0.487l-0.070 0.139c-0.209 0.209-0.209 0.487-0.209 0.696l-0.070 0.139h0.139v0.070c0 0.139 0.139 0.209 0.209 0.278h0.209v0.278c0 0.139 0 0.348 0.139 0.487l-0.139 0.557v0.070l-0.070 0.417-0.139 0.139h-0.417l-1.183 0.070c-0.139 0-0.209 0.139-0.278 0.209v0.209l0.209 0.139c0.291 0.047 0.627 0.073 0.97 0.073 0.075 0 0.15-0.001 0.224-0.004l-0.011 0h0.696c0.348-0.139 0.487-0.417 0.487-0.696l0.070-0.278v-0.348l0.139-0.070c0.025-0.057 0.049-0.103 0.074-0.147l-0.004 0.008 0.139-0.417-0.070-0.209c-0.040-0.053-0.086-0.099-0.137-0.138l-0.002-0.001v-0.139c0-0.209 0-0.557-0.348-0.765l-0.139-0.139h0.209zM42.365 14.678v-0.070M42.365 14.748v-0.139M42.365 14.609c-0.209 0-0.348 0-0.417 0.139l0.765-0.278-0.417 0.139z"></path>
            <path d="M31.652 6.887c0-0.139 0.139-0.348 0-0.487 0.009-0.042 0.014-0.090 0.014-0.139s-0.005-0.097-0.015-0.144l0.001 0.005c-0.055-0.062-0.126-0.11-0.205-0.138l-0.003-0.001v-0.139l-0.209-0.209c-0.124-0.127-0.296-0.206-0.486-0.209h-0.001l-0.278 0.070h-0.070l-0.209 0.070h-0.139c-0.066-0.074-0.135-0.142-0.206-0.207l-0.002-0.002h-0.696c0-0.348 0-0.696-0.139-0.974l0.278-0.209c0.209-0.139 0.348-0.348 0.348-0.696 0-0.278-0.209-0.417-0.348-0.557-0.209-0.139-0.348-0.209-0.417-0.417l-0.139-0.278-0.139-0.348c-0.139-0.209-0.278-0.417-0.557-0.557-0.122-0.059-0.266-0.094-0.417-0.094s-0.295 0.035-0.423 0.097l0.006-0.003-0.348-0.070-0.696 0.070-0.139 0.139h-0.209c-0.070 0.139-0.209 0.139-0.278 0.139l-0.209-0.139h-0.070l-0.417-0.070c-0.157 0-0.303 0.052-0.419 0.14l0.002-0.001c-0.139 0.070-0.209 0.209-0.209 0.278l-0.070 0.139-0.139 0.139-0.139 0.209h-0.626l-0.139-0.139-0.417-0.070-0.696 0.139h-0.139l-0.209 0.139h-0.626c-0.765 0.696-1.043 1.6-1.113 2.435-0.278-0.417-0.835-0.696-1.391-0.487-0.056 0.024-0.102 0.048-0.146 0.073l0.007-0.004h-0.278c-0.278-0.139-0.487 0-0.557 0.070v0.070l-0.070-0.070c-0.209-0.487-0.765-0.626-1.183-0.487-0.209 0.070-0.348 0.278-0.487 0.417l-0.487-0.278c-0.209 0-0.487 0-0.696 0.209l-0.070 0.278 0.070 0.278c0.139 0.070 0.348 0.139 0.557 0h0.070v0.139l0.278 0.348c0.209 0.139 0.487 0 0.696-0.139 0.028-0.078 0.052-0.172 0.068-0.268l0.001-0.010v-0.070l0.209-0.209h0.278v0.139l0.139 0.278c0 0.139 0.139 0.209 0.278 0.278h0.278c0.194-0.041 0.361-0.14 0.486-0.278l0.001-0.001c0.209 0.139 0.487 0 0.696 0l0.209-0.139 0.209 0.070 0.348 0.557v0.209l0.070 0.278c0 0.209 0.139 0.417 0.417 0.417h0.417l0.139-0.278 0.070-0.557c0-0.487 0-0.974 0.139-1.461 0.070-0.487 0.278-0.835 0.626-1.113l0.626-0.070 0.209-0.070c0.108-0.038 0.27-0.086 0.435-0.128l0.052-0.011 0.278 0.070 0.487 0.139c0.278 0.070 0.626 0 0.835-0.139 0.278-0.209 0.417-0.417 0.487-0.696l0.070-0.070h0.348l0.209 0.139c0.417 0.070 0.696-0.070 0.974-0.209 0.121-0.064 0.261-0.113 0.409-0.138l0.008-0.001h0.139c0 0.139 0.139 0.209 0.278 0.209s0.278 0 0.348-0.139v0-0.070h0.070l0.278 0.139 0.209 0.348c0.057 0.115 0.128 0.275 0.192 0.439l0.017 0.048c0 0.139 0.139 0.278 0.278 0.417l0.209 0.139 0.139 0.070v0.139c-0.060 0.037-0.131 0.062-0.207 0.069l-0.002 0h-0.070c-0.031 0.013-0.101 0.037-0.171 0.059l-0.038 0.010-0.209 0.209v0.348l0.139 0.139-0.070 0.139h0.070c0.070 0.278 0.139 0.557 0.070 0.835h-0.139l0.139 0.139c-0.070 0.278 0.139 0.557 0.417 0.487l0.139 0.070v-0.139h0.626l0.070 0.070 0.209 0.070 0.487 0.070 0.209-0.070c0.021-0.001 0.045-0.002 0.070-0.002s0.049 0.001 0.073 0.002l-0.003-0 0.209 0.348h0.139c-0.070 0.209 0 0.417 0.139 0.487h0.209l0.209-0.070zM20.452 5.565c0-0.835 0-1.948 0.696-2.643l-1.53 2.504v0.278c0.070 0.209 0.139 0.487 0.417 0.557 0.417 0.139 0.417-0.417 0.417-0.696zM21.496 2.783c0.209 0 0.417 0 0.626-0.139l0.487-0.139 0.487 0.139-1.6 0.209z"></path>
            <path d="M15.304 4.522c0-0.209-0.139-0.278-0.209-0.348l-0.209-0.209c-0.078-0.056-0.176-0.089-0.281-0.089-0.049 0-0.096 0.007-0.14 0.020l0.003-0.001c-0.125 0.058-0.216 0.104-0.306 0.153l0.028-0.014h-0.070v0.139c-0.139-0.139-0.278-0.139-0.417-0.139l-0.278 0.209c-0.209-0.139-0.417-0.139-0.626-0.070h-0.278l0.139-0.139v-0.070h-0.139l-0.070-0.139c-0.172-0.212-0.413-0.362-0.688-0.416l-0.008-0.001c-1.183-0.348-2.365-0.557-3.548-0.626h-1.67c-0.417 0-0.974 0.070-1.391 0.348-0.209 0.139-0.375 0.327-0.483 0.548l-0.004 0.008v0.070c-0.026 0.089-0.049 0.159-0.076 0.227l0.006-0.018h-0.139c-0.139-0.139-0.278-0.139-0.417-0.139-0.238 0.017-0.442 0.151-0.555 0.344l-0.002 0.003c-0.097 0.185-0.154 0.403-0.154 0.635 0 0.070 0.005 0.14 0.015 0.207l-0.001-0.008c0 0.278 0.139 0.557 0.209 0.696 0.139 0.487 0.417 0.904 0.696 1.252v0.278c0.003 0.18 0.054 0.348 0.142 0.491l-0.002-0.004 0.070 0.209v0.278h-0.278c-0.191 0.003-0.363 0.082-0.487 0.209l-0 0c0 0.139-0.139 0.209-0.209 0.278v0.070l-0.696 0.765-0.696 0.696c0 0.139-0.139 0.209-0.209 0.278l-0.348 0.417c-0.193 0.233-0.338 0.513-0.414 0.82l-0.003 0.014c-0.139 0.487 0 0.974 0.139 1.391h-0.070c-0.209 0-0.348 0.209-0.417 0.348l-0.070 0.209-0.070 0.139-0.209 0.487c-0.162 0.341-0.35 0.801-0.518 1.27l-0.038 0.121c0 0.139 0.209 0.278 0.348 0.417 0.105 0.096 0.218 0.188 0.337 0.271l0.010 0.007 0.417 0.348 0.348 0.278c0.209 0.209 0.487 0.348 0.765 0.417 0.278 0 0.557-0.139 0.696-0.348 0.139-0.139 0.139-0.209 0.070-0.278 0-0.139-0.070-0.209-0.139-0.209s-0.139-0.070-0.278 0c-0.070 0-0.139 0-0.209 0.139-0.070 0-0.209 0-0.278-0.139-0.139 0-0.209-0.139-0.278-0.209l-0.139-0.070-0.070-0.139c-0.139 0-0.209-0.139-0.348-0.209l-0.278-0.278h-0.139v-0.070l-0.070-0.070v-0.278l0.487-0.835 0.209-0.487v-0.070h0.070l0.278 0.070 0.070 0.278 0.070-0.278h0.209c0.209-0.139 0.209-0.417 0.139-0.557l-0.348-0.904c0-0.348 0-0.626 0.139-0.904l0.557-0.696 0.139-0.070c0.432-0.503 0.887-1.069 1.326-1.649l0.065-0.090h0.139c-0.001-0.010-0.001-0.023-0.001-0.035s0-0.024 0.001-0.036l-0 0.002h0.278c0.139 0 0.278 0 0.417-0.139 0.278-0.209 0.348-0.557 0.348-0.904-0.026-0.21-0.1-0.399-0.211-0.561l0.003 0.004 0.139-0.278c0-0.139 0-0.278-0.139-0.348l-0.070-0.139h-0.070c-0.209-0.278-0.417-0.557-0.487-0.904l-0.209-0.557v-0.557c0.139 0.070 0.417 0.209 0.696 0.070 0.209-0.070 0.278-0.278 0.417-0.417 0.016-0.039 0.039-0.108 0.061-0.178l0.008-0.031 0.139-0.139 0.348-0.278 0.487-0.070h1.391c1.043 0 2.087 0.139 3.061 0.348l0.835 0.209c0.021 0.001 0.045 0.001 0.070 0.001s0.049-0 0.073-0.001l-0.004 0h0.139c0 0.070 0 0.139 0.139 0.209 0.139 0.209 0.348 0.417 0.696 0.417h0.348c0 0.070 0 0.209 0.139 0.209 0.070 0.139 0.209 0.139 0.348 0.070v0.070l0.070-0.070 0.348-0.278h0.139c0.157 0 0.303-0.052 0.419-0.14l-0.002 0.001c0.070 0.139 0.139 0.209 0.278 0.209h0.348c0.139-0.139 0.209-0.209 0.209-0.348z"></path>
            <path d="M2.574 16.974h0.209v-0.139h-0.139l-0.070 0.070v0.139z"></path>
            <path d="M2.574 17.183c0.021 0.008 0.045 0.012 0.070 0.012s0.049-0.004 0.071-0.012l-0.001 0v-0.070c-0.020 0.012-0.044 0.019-0.070 0.019s-0.050-0.007-0.070-0.019l0.001 0v-0.278c-0.021-0.008-0.045-0.012-0.070-0.012s-0.049 0.004-0.071 0.012l0.001-0c0.010-0.003 0.022-0.004 0.035-0.004s0.024 0.002 0.036 0.005l-0.001-0v0.348zM2.574 16.974l0.209 0.278 0.139-0.139v-0.139h-0.348zM2.574 16.974v-0.278h-0.974l0.626 0.626 0.209-0.278zM2.713 16.974l0.209 0.278 0.696-0.626h-0.974v0.348zM2.713 16.974v-0.278h-0.139l-0.139 0.139 0.278 0.209zM2.713 16.904h-0.278v0.139l0.070 0.139 0.278-0.278zM2.713 16.904h-0.348v0.070l0.139 0.139 0.209-0.278zM2.574 16.835v0.348h0.139l0.070-0.070-0.209-0.278zM2.574 16.835v0.348h0.348v-0.348h-0.348zM2.574 16.835v-0.348h-0.209l-0.070 0.139 0.209 0.209zM2.504 16.904h-0.417v0.835l0.557-0.557-0.209-0.278zM2.504 16.904h0.278v-0.835l-0.626 0.626 0.278 0.209zM2.504 17.043l-0.278 0.209 0.139 0.139h0.139v-0.348zM2.504 17.043v0.348h0.139l0.139-0.139-0.278-0.209zM2.922 17.043c0.004-0.021 0.007-0.045 0.007-0.070 0-0.192-0.156-0.348-0.348-0.348-0.002 0-0.005 0-0.007 0h0v0.696h-0.139c-0.124-0.055-0.21-0.177-0.21-0.319 0-0.010 0-0.020 0.001-0.030l-0 0.001h0.696zM2.226 17.252l0.278 0.070h0.070v-0.696h0.070l0.139 0.070-0.487 0.557zM2.574 17.322v0zM2.574 16.626h0.070c-0.021-0.004-0.045-0.006-0.070-0.006s-0.049 0.002-0.072 0.006l0.002-0v0.696c0.010 0.001 0.023 0.001 0.035 0.001s0.024-0 0.036-0.001l-0.002 0v-0.696zM2.296 17.252l0.278 0.139v-0.696h0.209l-0.487 0.557zM2.574 17.391v0zM2.574 17.391v0zM2.574 17.391h0.070zM2.643 17.391v0zM2.643 17.391c0.079 0 0.151-0.026 0.21-0.070l-0.001 0.001 0.070-0.070-0.487-0.487c0.057-0.043 0.13-0.070 0.209-0.070v0 0.696zM2.643 16.696c-0.031-0.010-0.067-0.016-0.104-0.016s-0.073 0.006-0.107 0.017l0.002-0.001 0.487 0.557c-0.057 0.043-0.13 0.070-0.209 0.070v0-0.696zM2.643 17.391v0zM2.643 17.391c0.079 0 0.151-0.026 0.21-0.070l-0.001 0.001h0.070v-0.070l-0.487-0.487c0.057-0.043 0.13-0.070 0.209-0.070v0 0.696zM2.713 17.391c0.126-0.016 0.229-0.096 0.277-0.206l0.001-0.002-0.487-0.487c-0.026 0.021-0.049 0.044-0.069 0.069l-0.001 0.001h0.070l0.209-0.139v0.696zM2.991 17.183l0.070-0.139v-0.348l-0.557 0.557c-0.055-0.061-0.089-0.143-0.089-0.233 0-0.041 0.007-0.081 0.020-0.118l-0.001 0.002v-0.209l0.557 0.487zM3.13 16.904v-0.139l-0.139-0.139-0.487 0.487-0.070-0.139v-0.070h0.696zM3.13 16.904c0-0.139 0-0.209-0.139-0.278l-0.070-0.070-0.487 0.557h0.070l-0.139-0.278h0.696zM2.922 16.557c-0.057-0.043-0.13-0.070-0.209-0.070v0 0.696c-0.079 0-0.151-0.026-0.21-0.070l0.001 0.001 0.417-0.557zM2.713 16.487h-0.070zM2.643 16.487l-0.348 0.070 0.487 0.557c-0.021 0.006-0.045 0.009-0.070 0.009s-0.049-0.003-0.071-0.009l0.002 0v-0.696zM2.574 16.835v-0.348c-0.113 0-0.214 0.054-0.278 0.138l-0.001 0.001-0.070 0.209h0.696c0 0.192-0.156 0.348-0.348 0.348v0-0.348zM2.574 16.487c-0.113 0-0.214 0.054-0.278 0.138l-0.001 0.001c0.049-0.069 0.122-0.119 0.206-0.139l0.002-0v0.696c0.019 0.004 0.040 0.006 0.062 0.006 0.082 0 0.157-0.028 0.217-0.076l-0.001 0.001c-0.057 0.043-0.13 0.070-0.209 0.070v0-0.696zM2.296 16.626l-0.139 0.278h0.696c0.004 0.015 0.006 0.031 0.006 0.048 0 0.064-0.029 0.122-0.075 0.16l-0 0-0.487-0.487zM2.713 17.183c0.057-0.035 0.104-0.082 0.138-0.137l0.001-0.002-0.070 0.070-0.487-0.487c-0.057 0.035-0.104 0.082-0.138 0.137l-0.001 0.002 0.070-0.070 0.487 0.487zM2.296 16.626v0zM2.296 16.626l-0.139 0.278h0.696v0.139l-0.139 0.139-0.487-0.557zM2.852 16.974h-0.070zM2.226 16.696l-0.070 0.139v0.139h0.696l-0.139 0.209-0.487-0.487zM2.087 16.974v0.070s0 0.139 0.139 0.209l0.487-0.487c0.035 0.038 0.059 0.085 0.069 0.137l0 0.002s0 0.070 0 0h-0.696zM2.504 17.391v0zM2.783 17.252v0 0z"></path>
            <path d="M2.783 17.252h0.070l0.348 0.278h0.487c0.049-0.044 0.095-0.090 0.138-0.137l0.001-0.002h0.070l0.209 0.139h0.139l0.417 0.139h0.348c0.139 0.070 0.278 0.139 0.417 0.070h0.417c0.076 0.082 0.145 0.173 0.204 0.271l0.004 0.008 0.209 0.209c0.209 0.209 0.557 0.278 0.835 0.139 0.139 0 0.278-0.139 0.348-0.209 0.010-0 0.023-0 0.035-0s0.024 0 0.037 0h-0.002l0.348-0.348-0.070-0.278-0.278-0.139-0.278 0.070-0.209 0.139-0.278 0.139-0.139-0.070v-0.139l-0.139-0.139c-0.139-0.139-0.278-0.348-0.557-0.417h-0.417v0.070c-0.021 0.001-0.045 0.001-0.070 0.001s-0.049-0-0.073-0.001l0.003 0h-0.139l-0.209-0.139c-0.042-0.009-0.090-0.014-0.139-0.014s-0.097 0.005-0.144 0.015l0.005-0.001h-0.417l-0.139-0.209c-0.062-0.020-0.134-0.032-0.209-0.032s-0.146 0.012-0.214 0.033l0.005-0.001h-0.278l-0.139 0.070h-0.139v-0.070h-0.139c-0.139-0.139-0.278-0.139-0.417-0.139s-0.278 0-0.417 0.209v0.209l0.209 0.139 0.348 0.070z"></path>
            <path d="M7.583 17.948c0.278-0.139 0.487-0.209 0.765-0.209 0.062-0.002 0.135-0.003 0.209-0.003s0.146 0.001 0.219 0.003l-0.011-0 0.348-0.070c0.487-0.070 1.043-0.278 1.252-0.765v-0.070l0.070-0.070v-0.139h0.070c0.021-0.002 0.045-0.003 0.070-0.003s0.049 0.001 0.073 0.003l-0.003-0h0.070c0.139 0 0.278 0 0.417-0.139 0.081-0.035 0.15-0.082 0.209-0.139l-0 0v-0.070l0.139-0.070h0.209c0.209 0 0.348 0 0.487-0.139h0.209l0.626-0.139c0.278 0 0.557 0.139 0.835 0.348 0.139 0 0.278 0.139 0.348 0.209h0.070l0.417 0.278c0.139 0.070 0.348 0 0.417-0.070v-0.348c-0.438-0.47-1.006-0.812-1.647-0.969l-0.023-0.005c-0.278-0.070-0.626-0.139-0.904-0.070l-0.417 0.070h-0.070c-0.141 0.061-0.304 0.11-0.475 0.138l-0.012 0.002c-0.139 0-0.278 0-0.417 0.139-0.139 0-0.209 0.139-0.348 0.209l-0.070 0.070h-0.278c-0.157 0-0.303 0.052-0.419 0.14l0.002-0.001c-0.128 0.108-0.224 0.25-0.276 0.411l-0.002 0.006-0.139 0.209-0.557 0.278h-0.417v0.070h-0.487c-0.365 0.044-0.681 0.223-0.903 0.485l-0.002 0.002c-0.057 0.038-0.093 0.102-0.093 0.174s0.037 0.136 0.093 0.173l0.001 0c0.040 0.023 0.088 0.037 0.139 0.037s0.099-0.014 0.14-0.038l-0.001 0.001zM42.087 14.261v0.696l-0.070 0.139c-0.002 0.031-0.003 0.068-0.003 0.104s0.001 0.073 0.003 0.109l-0-0.005v0.278h0.070l0.139 0.070h0.139l0.139-0.278v-1.183h-0.209l-0.209 0.070z"></path>
            <path d="M42.296 14.4v0.417c0 0.010 0.001 0.023 0.001 0.035s-0 0.024-0.001 0.037l0-0.002-0.070 0.139v0.139l0.070 0.209h0.348l0.070-0.209v-0.765c0-0.115-0.093-0.209-0.209-0.209v0h-0.139l-0.070 0.209zM28.8 3.965v1.252c0.030 0.018 0.066 0.028 0.104 0.028s0.074-0.010 0.105-0.029l-0.001 0.001h0.070l0.139-0.139v-1.183c0-0.139-0.139-0.139-0.209-0.139h-0.139v0.209zM3.826 6.122v0.904l0.070 0.209v0.139l0.070 0.209c0.039 0.046 0.096 0.075 0.16 0.075 0.017 0 0.034-0.002 0.050-0.006l-0.001 0 0.070-0.139c0.011-0.052 0.017-0.112 0.017-0.174s-0.006-0.122-0.018-0.18l0.001 0.006v-0.696l-0.070-0.348c0-0.139-0.139-0.139-0.209-0.139h-0.139l-0.070 0.139z"></path>
            <path d="M4.104 6.47v0.070c-0.016 0.177-0.024 0.383-0.024 0.591s0.009 0.414 0.026 0.618l-0.002-0.027 0.139 0.139c0.030 0.018 0.066 0.028 0.104 0.028s0.074-0.010 0.105-0.029l-0.001 0.001 0.070-0.139c0.010-0.083 0.016-0.18 0.016-0.278s-0.006-0.195-0.017-0.29l0.001 0.012v-0.696l-0.278-0.209-0.209 0.139z"></path>
            <path d="M30.887 9.6l-3.13 9.948h-1.183l-2.504-7.583c-0.038-0.107-0.086-0.27-0.128-0.435l-0.011-0.052c-0.061 0.24-0.109 0.402-0.16 0.563l0.021-0.076-2.574 7.652h-1.183l-3.13-10.017h1.183l0.348 0.070 0.139 0.278 2.087 6.957c0.057 0.232 0.106 0.516 0.137 0.806l0.002 0.029c0.086-0.43 0.159-0.734 0.238-1.035l-0.029 0.131 2.365-6.957 0.139-0.139 0.278-0.139h0.417l0.278 0.070 0.209 0.278 2.296 6.957 0.139 0.348 0.070 0.417c0.070-0.346 0.142-0.627 0.226-0.902l-0.018 0.067 2.087-6.957s0-0.139 0.139-0.209l0.278-0.070h1.043z"></path>
        </symbol>
        <symbol id="icon-mobile-menu" viewBox="0 0 32 32">
            <path stroke-linejoin="round" stroke-linecap="round" stroke-miterlimit="4" stroke-width="1.6" d="M6.666 22.667h10.667M6.666 16h18.667M14.666 9.333h10.667"></path>
        </symbol>
    </defs>
</svg>
