<svg xmlns="http://www.w3.org/2000/svg" width="127" height="90" fill="none"><g clip-path="url(#a)"><path fill="#fff" stroke="#fff" stroke-width=".25" d="m44.588 76.585-.066-.022a2.924 2.924 0 0 0 1.225-1.234c.228-.405.366-.871.5-1.322a17.8 17.8 0 0 1 .14-.458c.193-.59.436-1.124.932-1.498l.15-.112c.357-.262.725-.532.94-.946.314-.563.18-1.094.054-1.6l-.042-.167a2.277 2.277 0 0 1 .735-2.18c.131.219.317.4.533.537.48.302 1.119.386 1.687.148l.006-.003c.045-.021.087-.045.124-.066l.014-.008c.042-.024.076-.042.108-.055.059-.025.1-.028.15-.003a.274.274 0 0 1 .049.036c.024.02.05.045.08.074v.001l.09.082a.504.504 0 0 0 .098.07c.234.134.547.246.828.143a.948.948 0 0 0 .333-.155l.036-.024c.081-.055.152-.102.238-.135l.007-.003.007-.003c.164-.088.319-.075.494-.01a2.64 2.64 0 0 1 .316.147c.087.045.18.092.275.133l.004.002c.48.185 1.119.238 1.622-.053h.001c.337-.2.482-.493.514-.81.032-.307-.044-.637-.137-.928-.09-.298-.18-.6-.27-.907-.363-1.236-.74-2.524-1.297-3.667a5.279 5.279 0 0 0-1.123-1.536 5.77 5.77 0 0 0-.177-.193h-.001a5.747 5.747 0 0 1-.174-.19 1.43 1.43 0 0 1-.264-.415c-.055-.161-.079-.322-.103-.493l-.011-.074a1.849 1.849 0 0 0-.168-.598l-.002-.005a2.269 2.269 0 0 0-1.064-.935c-.153-.081-.334-.147-.507-.21l-.202-.075c-.239-.093-.444-.196-.584-.35l-.005-.005a.5.5 0 0 1-.158-.351 1.809 1.809 0 0 1 .002-.225l.002-.043c.004-.07.008-.144.008-.22V54.424c-.046-.755-.139-1.607-.372-2.373l-.001-.003c-.123-.379-.325-.628-.598-.778-.268-.148-.592-.193-.944-.193-.29 0-.475-.144-.647-.362a4.454 4.454 0 0 1-.255-.366 3.015 3.015 0 0 0-.29-.38c-.475-.549-1.264-.948-2.023-.563a.77.77 0 0 0-.235.154l-.037.032-.05.045a.305.305 0 0 1-.051.037l-.038.018-.004.008-.064-.053a3.364 3.364 0 0 1-.03-.023.244.244 0 0 1-.066-.072l-.009-.018-.015-.014c-.233-.226-.52-.457-.812-.598a6.762 6.762 0 0 0-.864-.344l-.216-.072c-.227-.076-.45-.15-.668-.235-.57-.224-1.066-.509-1.365-1.025l-.013-.021-.02-.015a.607.607 0 0 0-.394-.142.258.258 0 0 0-.173.075.199.199 0 0 0-.045.191c.105.951.946 1.461 1.673 1.812l.121.065c.364.193.68.36.996.666.109.105.209.216.314.334.072.08.146.163.227.248.193.203.41.402.68.544.562.295 1.117.14 1.597-.183.135-.087.185-.09.215-.083a.208.208 0 0 1 .08.049c.037.032.08.079.138.144l.008.008c.103.1.188.223.274.354l.045.07c.068.107.14.219.22.315.341.47.832.753 1.419.8h.01c.03 0 .068-.003.102-.006l.019-.002.094-.008a.836.836 0 0 1 .133.002l.007.001a.166.166 0 0 1 .069.08.671.671 0 0 1 .03.104l.021.088.043.184c.076.326.146.623.184.951.045.37.056.73.062 1.088l.003.211c.004.286.007.572.026.859 0 .56.197 1.084.69 1.465.173.143.387.25.603.345.102.044.206.086.309.127l.02.008c.11.044.218.088.322.134.422.187.734.397.812.773v.004l.056.242c.102.46.194.874.568 1.314v.001c.141.163.29.318.435.468.09.094.18.186.262.276.22.24.419.485.572.78v.002c.511.95.816 2.021 1.112 3.063.1.348.198.693.302 1.03l.001.003.137.394c.014.051.036.104.054.147l.002.004c.02.049.037.087.046.12.007.03.005.042.004.044-.002.002-.01.01-.032.018a.291.291 0 0 1-.138.008 1.02 1.02 0 0 1-.205-.053 3.195 3.195 0 0 1-.383-.172l-.007-.003c-.328-.136-.62-.23-1.011-.23a.991.991 0 0 0-.464.118c-.058.029-.114.061-.168.093l-.018.01c-.06.035-.119.068-.182.099a.242.242 0 0 1-.127.023.183.183 0 0 1-.084-.041c-.023-.019-.043-.036-.066-.058a2.47 2.47 0 0 0-.06-.054.9.9 0 0 0-.195-.132.984.984 0 0 0-.835-.052 1.673 1.673 0 0 0-.228.098 8.332 8.332 0 0 0-.092.047c-.043.022-.084.044-.129.065-.149.072-.266.11-.361.094h-.005a.43.43 0 0 1-.319-.184.554.554 0 0 1-.077-.384v-.001a.483.483 0 0 0-.077-.334.555.555 0 0 0-.245-.194.747.747 0 0 0-.588.001c-.943.41-1.704 1.14-2.039 2.104-.192.465-.238.971-.191 1.472.012.152.042.302.07.443l.002.007c.029.14.055.27.066.395.02.246-.02.455-.233.642-.135.113-.275.214-.419.317l-.14.102c-.192.14-.384.29-.553.476l-.004.004c-.383.462-.573.968-.756 1.5l-.001.003c-.036.116-.072.246-.11.383-.114.407-.246.882-.455 1.277-.138.261-.303.472-.505.598-.197.123-.44.172-.753.091h-.002a.671.671 0 0 0-.843.65c-.012.359.089.64.264.863.173.222.414.381.67.512.192.097.4.183.602.265l.2.083c.264.111.506.225.699.369.476.39.984.59 1.51.596.525.006 1.054-.183 1.574-.547.225-.149.434-.324.635-.498l.08-.07c.175-.151.345-.299.523-.43.405-.3.833-.503 1.386-.441h.002c.923.085 1.825.762 1.953 1.663v.002c.058.365.37.52.636.492a.517.517 0 0 0 .354-.185.503.503 0 0 0 .083-.44c-.291-1.802-2.34-3.034-4.15-2.53-.58.164-1.024.537-1.44.888l-.011.01c-.42.354-.81.684-1.304.829h-.003c-.3.097-.515.032-.728-.098a3.67 3.67 0 0 1-.3-.214l-.039-.029a3.487 3.487 0 0 0-.387-.264 1.85 1.85 0 0 0-.425-.195 15.284 15.284 0 0 0-.187-.065Z"/><path fill="#fff" stroke="#fff" stroke-width=".25" d="M52.074 73.6c.138 1.643.415 3.24.736 4.834.04.221.25.294.41.272.166-.023.343-.152.343-.384 0-1.051-.04-2.103-.12-3.154l.18.187.003.004c.123.119.31.17.481.157a.54.54 0 0 0 .452-.278l.001-.002c.332-.64.666-1.284.965-1.928.163.061.34.096.529.096.331 0 .596-.124.831-.26.064-.037.124-.074.182-.11.167-.101.32-.195.496-.256.464-.156.947-.17 1.453-.183l.14-.004c.55-.017 1.124-.05 1.677-.305l.004-.002c.92-.466 1.452-1.49 1.307-2.475v-.004c-.164-.905-.87-1.539-1.711-1.777.023-.336.265-.644.625-.922.472-.363 1.1-.634 1.51-.788a8.65 8.65 0 0 1 3.481-.48.53.53 0 0 0 .435-.151.55.55 0 0 0 .147-.383.592.592 0 0 0-.563-.6 9.165 9.165 0 0 0-4.651.852c-.583.269-1.232.677-1.673 1.2-.444.525-.684 1.18-.412 1.92l.002.005a.675.675 0 0 0 .22.296c.094.07.206.11.331.133l.008.002h.008c.676.04 1.203.607 1.123 1.23v.002a1.036 1.036 0 0 1-.48.773c-.258.173-.593.269-.926.312h-.002c-.27.037-.548.05-.834.064l-.141.007a6.629 6.629 0 0 0-1.004.107 3.119 3.119 0 0 0-.857.276l-.006.003c-.063.034-.132.079-.199.122a7.442 7.442 0 0 1-.07.046 1.655 1.655 0 0 1-.268.146.396.396 0 0 1-.218.033c-.057-.01-.12-.045-.185-.134v-.001c-.29-.39-.861-.325-1.085.105l-.003.007-.002.006c-.035.091-.071.183-.108.274h-.014l.009.013c-.204.5-.438.999-.694 1.487l-.134-.135a41.98 41.98 0 0 1-.687-.707l-.004-.004c-.18-.174-.453-.195-.664-.116-.217.081-.404.28-.374.572Z"/><path fill="#fff" stroke="#fff" stroke-width=".25" d="M68.986 67.823c.095-.29.09-.612-.056-.92.603.082 1.206.16 1.799.218.475.046.98-.031 1.324-.277a.94.94 0 0 0 .37-.51c.062-.215.049-.466-.05-.75-.347-1.005-1.475-1.411-2.458-1.411-1.043 0-2.088.151-3.123.3-.342.05-.684.1-1.023.143l-.024.003-.02.012c-.22.12-.309.4-.289.624a.54.54 0 0 0 .135.324c.088.093.213.141.363.127l.23-.022.123-.012a.506.506 0 0 0-.122.41c.025.264.114.486.262.672.147.185.347.328.588.444l.008.004.008.002c.067.022.436.152.695.295.05.028.094.055.13.08l12.798 3.532m-11.668-3.288c.475.156.923.364 1.363.582l.387.195c.64.323 1.272.643 1.967.842l.002.001c.487.15.978.183 1.477.177.233-.003.466-.014.702-.025l.05-.002c.253-.012.508-.023.764-.023.974 0 1.949.134 2.878.403.346.089.777.212 1.175.381.395.168.775.389 1.001.68m-11.766-3.21c-.013.039-.028.078-.045.116a6.004 6.004 0 0 0-.12-.038m11.931 3.132-.098.077m.098-.077v-.001l-.098.078m.098-.077c.13.162.189.328.184.493a.778.778 0 0 1-.164.438c-.184.25-.492.45-.748.584h-.001c-1.463.75-2.83 1.585-4.06 2.595l.001-.002-.083-.093c1.24-1.018 2.616-1.859 4.085-2.61.504-.266 1.147-.753.688-1.328M87.934 82.938l-.01.005a.402.402 0 0 1-.491-.065c-.131-.134-.16-.348-.053-.582l.005-.01.006-.009c.397-.574.934-.726 1.484-.783.16-.017.331-.026.5-.035.11-.006.218-.011.323-.02.272-.02.535-.055.784-.138.516-.187.897-.593 1.295-1.043l.076-.086c.368-.418.757-.86 1.275-1.12l.006-.003a3.186 3.186 0 0 1 1.953-.23c.34.047.674.186.951.32l.007.003.007.004c.145.094.277.21.401.318l.004.003a3.3 3.3 0 0 0 .372.297c.087.05.212.073.37.07.159-.002.339-.03.523-.074.37-.086.741-.227.97-.316l.005-.001c.309-.106.526-.24.673-.415.145-.174.23-.402.252-.714v-.002c.04-.455.18-1.001.525-1.367a4.236 4.236 0 0 0-.114-.001 5.37 5.37 0 0 0-.793.169 2.572 2.572 0 0 0-.828.548l-.007.006-.007.005a4.202 4.202 0 0 0-.134.103c-.047.036-.096.075-.146.112a1.49 1.49 0 0 1-.345.198c-.537.208-1.005-.11-1.251-.49l-.002-.003a1.829 1.829 0 0 1-.097-.186v-.002a1.427 1.427 0 0 0-.08-.154.222.222 0 0 0-.07-.076c-.017-.01-.042-.018-.085-.01-.095.014-.197.087-.302.2-.076.08-.141.167-.2.245-.021.03-.042.057-.062.083l-.006.008c-.381.412-.867.744-1.506.792-.657.047-1.236-.189-1.733-.537-.496-.347-.918-.81-1.264-1.233-.837-.986-1.44-2.104-1.901-3.263a8.008 8.008 0 0 1-.56-2.064l-.03-.185c-.087-.524-.188-1.135-.06-1.674.139-.66.617-.962 1.105-1.27l.144-.091.003-.003c.297-.176.594-.363.892-.551h.001c.297-.188.596-.376.895-.554.62-.398 1.24-.785 1.858-1.171.62-.388 1.238-.774 1.857-1.172.111-.074.222-.15.333-.228.474-.328.958-.663 1.533-.848l.005-.001.012-.004c.31-.085.65-.179.993-.133.195 0 .375.036.538.068l.011.002c.165.033.31.062.453.062.269 0 .534-.1.819-.232.064-.029.129-.06.195-.092.221-.107.455-.22.694-.29l.01-.003c.595-.122 1.01-.027 1.503.087l.198.046c.227.035.409-.044.58-.184.129-.106.24-.235.356-.369l.141-.16.006-.007.007-.007c.317-.304.652-.628 1.086-.814l.009-.003c.294-.101.599-.14.889-.178l.122-.016c.33-.044.645-.097.946-.242.247-.13.482-.28.723-.436l.003-.001c.239-.154.484-.312.741-.447h.001a3.498 3.498 0 0 1 1.902-.412h.002c.091.008.194.022.302.036l.138.018c.159.02.324.037.486.04.33.005.619-.05.812-.236.109-.105.16-.25.187-.427.013-.088.02-.18.027-.275l.001-.027c.006-.086.012-.175.023-.259v-.002l.138-.93.001-.006c.139-.669.325-1.341.605-1.972M87.934 82.938l22.415-21.78m-22.415 21.78.01-.008c.198-.173.428-.224.686-.224.13 0 .264.013.404.03l.106.012c.105.013.212.027.317.035.554.044 1.131.047 1.666-.187.504-.209.897-.555 1.26-.916l.259-.262c.272-.279.538-.551.845-.781.44-.297.954-.456 1.458-.335l.004.001c.287.06.507.228.742.427l.065.055c.211.18.442.378.735.486l.002.001c.279.098.577.096.86.062.184-.023.374-.06.55-.096l.26-.05v.001l.007-.002c.558-.134 1.08-.316 1.555-.637l.004-.002c.367-.266.758-.591.957-1.02.129-.25.165-.51.197-.744l.015-.106c.039-.266.093-.501.276-.717l.003-.004.1-.126c.106-.13.218-.269.3-.415.114-.2.182-.43.129-.71a.934.934 0 0 0-.447-.624 1.682 1.682 0 0 0-.716-.228 3.4 3.4 0 0 0-1.662.138c-.21.067-.516.18-.8.335-.23.124-.46.283-.609.478m-9.538 6.132 9.538-6.132m15.378-20.963c.234-.542.571-1.06 1.162-1.345l.01-.005c.154-.057.304-.102.447-.144l.047-.014c.126-.038.247-.073.363-.114.261-.09.495-.204.706-.408l.005-.005c.122-.105.241-.214.363-.326.098-.09.198-.183.304-.276a4.79 4.79 0 0 1 .734-.556c.261-.153.542-.263.847-.284a1.72 1.72 0 0 1 .969.233l.005.002a.47.47 0 0 1 .22.279c.028.109.011.22-.034.314a.536.536 0 0 1-.541.302h-.005c-.365-.059-.686.085-.988.318-.21.162-.397.355-.579.542a9.799 9.799 0 0 1-.254.256l-.004.004c-.569.502-1.092.73-1.789.954-.371.12-.601.377-.763.7-.148.294-.234.63-.317.956l-.03.115-.001.003c-.179.622-.244 1.214-.31 1.813-.017.156-.034.311-.053.468v.004c-.123.777-.556 1.22-1.127 1.452-.56.226-1.249.247-1.896.202m2.509-5.44.114.05-.115-.05h.001Zm-2.509 5.44h-.001l.009-.125m-.008.125h.001l.007-.125m-.008.125a3.065 3.065 0 0 0-1.02.095c-.3.085-.588.222-.927.418m1.955-.638c-.827-.044-1.331.133-2.02.531m.065.107.003-.002-.068-.105m.065.107-.162.105c-.487.316-.97.629-1.568.794a4.129 4.129 0 0 1-.494.098l-.147.021c-.108.015-.212.03-.316.049-.295.054-.555.136-.783.336l-.009.008a2.99 2.99 0 0 0-.462.446l-.004.004c-.147.163-.303.337-.497.478m4.442-2.339-.002.002-.063-.109m0 0-4.377 2.446m0 0c-.43.322-.922.516-1.472.42m1.472-.42h-.001l-.073-.101c-.413.31-.872.486-1.377.398m-.021.124h.001l.02-.124m-.021.124h-.001l.022-.124m-.021.124c-.107-.018-.222-.048-.334-.077l-.117-.03a1.867 1.867 0 0 0-.446-.069c-.118 0-.241.029-.367.071-.086.029-.166.061-.246.094l-.119.047m1.65-.16a3.393 3.393 0 0 1-.318-.073 2.4 2.4 0 0 0-.6-.104c-.231 0-.461.093-.665.175l-.115.046m0 0 .05.115-.002.001m-.048-.116-.203.09c-.438.198-.88.397-1.357.397-.23 0-.437-.026-.635-.05-.437-.056-.834-.105-1.339.138m3.534-.575.045.117h.003m0 0c-.065.027-.131.057-.197.087-.436.196-.905.408-1.411.408-.191 0-.367-.017-.53-.037l-.123-.015c-.119-.015-.23-.029-.343-.037-.294-.02-.58 0-.922.164m-.056-.112.057.112h-.001m-.056-.112c-.793.41-1.534.904-2.277 1.4-.46.306-.92.613-1.394.9m3.671-2.3.054.113h.002m0 0a20.03 20.03 0 0 0-1.84 1.109c-.14.093-.28.187-.422.28-.46.307-.924.616-1.4.906m-.065-.107.066.106m-.066-.106c-.322.199-.631.398-.941.597-.31.2-.62.398-.941.597-.186.12-.394.235-.604.351-.412.228-.836.463-1.14.755-.347.335-.175 1.172-.057 1.745.022.108.042.206.057.29m3.626-4.335.065.107m0 0c-.32.198-.629.396-.938.596-.31.198-.62.398-.942.597m-1.81 3.035.12-.029.002.004m-.123.025c.138.576.275 1.15.505 1.726a9.65 9.65 0 0 0 2.111 3.274c.367.398 1.056.973 1.652.752.297-.096.488-.346.68-.597.162-.215.327-.431.56-.553m-5.508-4.602.124-.02-.001-.005m1.688-3.01-.067-.106.066.107Zm0 0c-.19.122-.403.24-.615.358-.1.055-.2.11-.296.165-.309.176-.596.358-.813.568-.076.073-.126.187-.15.34-.025.153-.021.333-.002.524.027.263.081.525.129.755.022.108.043.21.059.3m0 0c.137.575.273 1.14.498 1.704v.002a9.524 9.524 0 0 0 2.084 3.23l.003.004c.179.194.433.427.71.584.279.158.56.227.807.135l.005-.002c.233-.075.396-.263.576-.498l.044-.058c.16-.21.34-.448.597-.584m0 0-.002.001.062.108m-.06-.11c.494-.284 1.192-.29 1.652.1.205.15.308.349.397.52l.004.008m-2.053-.627.002-.001.058.11m0 0c.46-.265 1.102-.265 1.515.089.183.133.275.31.367.487a.2.2 0 0 0 .024.068l.087-.126m16.135-19.497c-.183.634-.249 1.24-.315 1.84-.017.153-.033.307-.052.46l.367-2.3Zm0 0 .03-.115c.175-.685.381-1.492 1.163-1.743.689-.221 1.193-.442 1.744-.929l-2.937 2.787Zm-13.335 19.52a.871.871 0 0 1 .164.035l-.164-.035Z"/><path fill="#fff" stroke="#fff" stroke-width=".25" d="M123.648 44.76c.255.02.509.116.724.28.694.481.694 1.293.693 1.938V47c0 .174.012.312.051.43a.649.649 0 0 0 .223.312l.02.016c.105.08.213.163.298.27a.881.881 0 0 1 .188.46l.001.008h-.001c.027.383-.174.681-.376.938l-.114.14c-.064.08-.127.156-.185.236-.09.122-.161.241-.201.365a7.981 7.981 0 0 0-.136.853l-.006.044a7.6 7.6 0 0 1-.161.948c-.162.621-.48 1.184-1.242 1.468l-.004.002c-.411.14-.865.161-1.305.15-.196-.005-.392-.017-.582-.028a10.578 10.578 0 0 0-.677-.027c-.922 0-1.8-.045-2.724-.178a.364.364 0 0 1-.273-.153.337.337 0 0 1-.032-.284c.055-.18.229-.35.466-.426l.011-.004.012-.001c1.155-.149 2.28-.143 3.416-.136l.684.002c.316 0 .555-.033.74-.13.178-.092.32-.252.427-.537.132-.427.177-.899.223-1.387l.001-.012h.001l.01-.056c.088-.466.189-1.004.52-1.415l.005-.006.005-.005.224-.216.083-.08-.074-.058a3.236 3.236 0 0 1-.146-.123.995.995 0 0 1-.061-.06.325.325 0 0 1-.04-.051c-.29-.333-.343-.795-.386-1.172a.416.416 0 0 0-.004-.035c-.024-.142-.024-.293-.024-.432v-.006c0-.146 0-.279-.021-.399l-.002-.01v-.011a.764.764 0 0 0-.107-.304c-.035-.055-.064-.076-.078-.081a.021.021 0 0 0-.014 0 .14.14 0 0 0-.048.033l-.008.008a.691.691 0 0 1-.59.128.579.579 0 0 1-.436-.416v-.002a5.57 5.57 0 0 1-.07-.328c-.12-.68-.097-1.423.367-2.033.249-.337.644-.572 1.082-.667h.003c-.297-.081-.652-.179-.926-.4l-.005-.003a1.078 1.078 0 0 1-.362-.986c.051-.344.253-.67.553-.889.155-.123.332-.195.508-.251.076-.025.148-.045.219-.066.104-.03.207-.06.316-.099l.004-.001c.395-.127.739-.336.995-.666l.002-.002c.531-.658.427-1.27.299-2.03a16.82 16.82 0 0 1-.05-.305l-.001-.005a2.618 2.618 0 0 1 .144-1.205l.003-.009.004-.008.022-.042c.029-.055.058-.111.083-.166a.728.728 0 0 0 .051-.139l-.01.001a.68.68 0 0 0-.131.035l-.01.004a2.97 2.97 0 0 0-.462.167l-.122.054c-.108.049-.218.098-.327.14-.308.116-.638.179-1.041.034-.331-.099-.555-.307-.745-.53-.067-.079-.132-.163-.196-.244l-.074-.095a3.048 3.048 0 0 0-.272-.31c-.384-.37-.869-.403-1.419-.44a50.985 50.985 0 0 1-.156-.012c-.559-.045-1.154-.181-1.555-.664l-.003-.003a1.867 1.867 0 0 1-.313-.621 2.555 2.555 0 0 1-.33.132l-.01.004c-.431.097-.841-.027-1.212-.203a7.59 7.59 0 0 1-.537-.29l-.024-.014c-.164-.095-.318-.184-.466-.255a25.116 25.116 0 0 0-2.512-1.057l-.003-.001a4.23 4.23 0 0 1-.192-.081l-.008-.003c-.064-.029-.128-.057-.192-.083a1.022 1.022 0 0 0-.343-.09.503.503 0 0 0-.098.006l-.013.03-.004.01a1.583 1.583 0 0 1-.047.103l-.019.045c-.083.206-.198.489-.499.634-.36.173-.739.145-1.084.04-.342-.104-.663-.288-.917-.444h-.001l.066-.107a8.442 8.442 0 0 1-3.075-3.097l16.147 16.696Zm0 0c.001-.161.024-.318.078-.457l.001-.002c.082-.218.188-.322.32-.384.142-.066.325-.087.581-.11M92.783 20.964a.504.504 0 0 1-.348.242.514.514 0 0 1-.375-.09c-.222-.154-.325-.468-.136-.808.06-.117.07-.197.061-.253a.272.272 0 0 0-.09-.156 1.162 1.162 0 0 0-.215-.152l-.063-.036a3.068 3.068 0 0 1-.205-.126l-.007-.005a1.326 1.326 0 0 1-.504-.914c-.044-.167-.09-.23-.14-.258-.053-.03-.149-.041-.351.002a4.095 4.095 0 0 0-.51.172h-.004c-.17.066-.349.135-.54.181l-.007.002-.008.001c-.376.045-.765.047-1.159-.095l-.005-.002a3.703 3.703 0 0 1-.471-.25l-.004-.001a3.534 3.534 0 0 0-.438-.234c-.736-.234-1.513-.066-2.295.103l-.152.033c-.47.163-.908-.29-.799-.768.316-1.433.18-2.863-.494-4.207a.69.69 0 0 1-.035-.541.603.603 0 0 1 .437-.389m8.857 8.55-8.826-8.428m8.826 8.427.005-.008m-.005.008.005-.008m-8.862-8.54.001-.001.03.122m-.03-.122h-.002l.032.122m-.03-.122.12-.031a7.17 7.17 0 0 0 .653-.192c.25-.091.473-.205.638-.365a.87.87 0 0 0 .268-.48.46.46 0 0 0-.17-.44l-.006-.005a2.805 2.805 0 0 0-.467-.338l-.048-.03a4.381 4.381 0 0 1-.487-.334l-.008-.006a3.7 3.7 0 0 1-.805-1.096m.342 3.438.12-.03c.477-.124 1.01-.263 1.348-.589.322-.31.46-.796.092-1.106-.15-.144-.34-.263-.535-.383a4.268 4.268 0 0 1-.474-.325 3.573 3.573 0 0 1-.78-1.061m-.112.056.002.004.11-.06m-.112.056c-.175-.32-.311-.667-.444-1.005a24.91 24.91 0 0 0-.134-.337c-.182-.445-.382-.859-.687-1.195m1.264 2.537-.001-.004.113-.052m0 0a8.672 8.672 0 0 1-.436-.989c-.223-.567-.445-1.133-.849-1.577m-12.04 1.44c.25-.152.439-.375.604-.634.105-.163.195-.33.287-.501.058-.108.117-.218.181-.33.16-.277.344-.547.597-.746.258-.203.58-.328 1.01-.328.367 0 .706.106 1.028.223l.18.066c.263.098.518.192.788.244h.003c.376.081.738-.007 1.106-.164.185-.078.367-.171.553-.266l.004-.002c.182-.093.369-.189.556-.268l.05.115c-.184.078-.367.171-.551.266-.556.284-1.124.575-1.744.442-.282-.054-.549-.153-.812-.25-.38-.142-.755-.28-1.162-.28-.956 0-1.31.657-1.673 1.33-.246.458-.497.922-.943 1.191m-.063-.108c-.522.293-1.125.374-1.68.168m1.68-.168.002-.001.061.109m-.063-.108H70.4l.064.108m-1.744.06c-.157-.065-.308-.135-.462-.206-.153-.071-.307-.143-.465-.208a3.189 3.189 0 0 0-1.039-.258h-.007c-.645 0-1.288.224-1.873.428l-.187.066h-.003l-.218.084c-.24.092-.484.186-.73.244-.319.074-.616.08-.876-.055m5.86-.095.002.001-.047.116m.045-.117h-.002l-.044.117m-5.814-.022a.647.647 0 0 0-.422-.085.871.871 0 0 0-.403.185c-2.153 1.67-2.893 4.369-3.077 6.903v.001a29.164 29.164 0 0 0-.045 1.645m3.947-8.649.003.002-.063.108m.06-.11h-.002l-.058.11m-3.887 8.539a5.676 5.676 0 0 0-.736-1.618l-.001-.003c-.803-1.137-2.146-1.799-3.548-1.149m4.285 2.77-.001.484v.086l-.013-.083a5.629 5.629 0 0 0-.826-2.036c-.78-1.106-2.065-1.725-3.396-1.106m4.236 2.655c.043.153.08.308.11.463v.005l.014.093c0-.732.001-1.465.046-2.198.184-2.522.918-5.176 3.029-6.813.23-.177.459-.221.688-.089m-8.172 5.77c-.098.037-.21.097-.318.154l-.08.043a1.58 1.58 0 0 1-.345.146m.743-.344.004-.001.045.116m-.049-.115-.004.002.053.113m-.792.229c-.092-.004-.176-.049-.285-.122a10.42 10.42 0 0 1-.05-.034c-.095-.066-.21-.146-.343-.19m.678.346h.012v.125m-.012-.125-.012.002.024.123m-.69-.471c-.478-.202-.941.012-1.279.337-.046.045-.1.125-.151.201-.01.017-.022.033-.033.05a6.11 6.11 0 0 1-.146.214 1.482 1.482 0 0 1-.19.223.474.474 0 0 1-.059.046m1.858-1.071.005.002-.05.115m.045-.117-.006-.002-.038.12m-1.813.953a.906.906 0 0 1-.035-.202v-.01l-.002-.01-.001-.005c-.045-.263-.093-.537-.188-.812l-.002-.004c-.445-1.145-1.861-1.504-2.915-1.089m3.142 2.132a.138.138 0 0 1-.068.027c-.018 0-.037 0-.053.003a1.045 1.045 0 0 1-.039-.232c-.046-.265-.092-.53-.183-.796-.413-1.062-1.744-1.415-2.754-1.017m3.097 2.015a.542.542 0 0 0 .02.06l.006.003a.145.145 0 0 1 .038.045c.155-.098.313-.336.436-.523.068-.102.125-.19.166-.229.322-.31.735-.487 1.148-.31m-4.956-1.178c-.724.28-1.201.836-1.574 1.419m1.574-1.419.045.117m-.045-.117.045.117m-1.619 1.302-.011.017m.011-.017.002-.002.103.071m-.105-.07v.003l.105.067m-.116-.053a.249.249 0 0 1-.003-.005v-.002c-.298-.548-.863-.888-1.457-.982-.593-.093-1.233.057-1.68.51m3.14.48c-.026.039-.053.081-.078.125a1.704 1.704 0 0 0-.036-.073c-.55-1.017-2.11-1.283-2.937-.442m3.051.39c.02.038.041.083.063.134.017-.029.035-.056.053-.082m-3.255-.531a.613.613 0 0 0-.198.497c.013.17.097.327.215.444.236.234.644.335.98.038l.004-.004a.567.567 0 0 1 .428-.142c.162.01.31.075.399.177m-1.828-1.01.001-.002.087.09m-.088-.088h-.001l.09.089m1.739.92c.119.15.156.325.2.53l.02.092c.053.237.13.501.402.685.535.36 1.156.09 1.499-.335l.008-.011a4.74 4.74 0 0 0 .25-.454l.06-.122a8.83 8.83 0 0 1 .16-.317c.15-.28.322-.524.595-.707l.004-.003c.161-.117.4-.198.64-.203.239-.005.462.065.614.228m-4.452.618-.002-.002.098-.079m-.096.08.001.002.095-.082m4.357-.537c.136.17.19.394.235.653l.016.095c.039.226.08.475.191.688l.005.007c.16.261.353.433.569.526.215.093.443.103.664.057.436-.09.858-.397 1.166-.738m-2.846-1.288a.075.075 0 0 0-.003-.003l.097-.08m-.094.083.002.003.092-.085m2.753 1.37c.058-.057.11-.13.157-.193l.041-.056.048-.06m-.246.309c-.002 0-.003.002-.004.003l-.087-.09m.09.087.003-.003-.093-.084m.337-.222.047.034.002.002c.046.033.085.062.124.1l.009.008.01.006c.613.394 1.273.14 1.813-.077.324-.135.593-.237.852-.257.25-.02.495.037.77.241l.004.003c.604.416.916 1.13 1.097 1.83v.003a5.764 5.764 0 0 1 .132.658c.04.24.084.496.156.737.143.483.405.933.995 1.081m-6.01-4.369a.489.489 0 0 1 .093-.086l.028.02c.046.034.092.067.138.11.55.355 1.147.134 1.698-.088.642-.265 1.147-.442 1.744 0 .642.443.964 1.195 1.147 1.903.054.188.09.406.128.632.122.732.26 1.554 1.065 1.757m-6.042-4.248a1.121 1.121 0 0 1-.096-.08c-.035.041-.068.086-.1.13-.045.062-.09.123-.14.172m6.347 4.147c.326.084.591.042.799-.099.203-.137.332-.357.417-.594.17-.471.18-1.067.18-1.419 0-1.44.012-3.052.346-4.54.314-1.393.908-2.667 2.03-3.584m-3.772 10.236.031-.121m-.03.121.03-.121M62.64 9.456c.648.18 1.245.065 1.823-.124.207-.068.418-.147.629-.227.141-.053.282-.106.42-.155.35-.124.7-.228 1.065-.27m-3.937.776.123-.098c.802.19 1.531-.086 2.279-.368.49-.185.989-.373 1.521-.435m-3.923.9a2.533 2.533 0 0 1-.142-.043c-2.317 1.955-2.36 5.408-2.36 8.168 0 .708-.045 2.3-1.239 1.99m7.678-10.89c.397-.04.758.11 1.148.297l.123.06c.347.17.72.352 1.134.394m-2.405-.752-.014-.124m.014.124h.001l-.015-.124m2.42.876c.812.092 1.62-.138 2.282-.548l.003-.003c.68-.45.949-1.016 1.252-1.653l.122-.254V6.97c.104-.218.231-.32.368-.362.142-.045.314-.032.514.02.194.052.397.135.608.222l.021.009c.214.087.436.177.643.224m-5.814 2.347.014-.124m-.014.124h.001l.013-.124m5.8-2.223c1.013.233 1.877-.188 2.7-.629m-2.7.63.028-.123m-.028.122.028-.122m2.671-.507c.3-.133.719-.312 1.11-.37.396-.058.714.012.882.318l.002.004c.119.2.347.303.563.31a.608.608 0 0 0 .574-.317.645.645 0 0 1 .345-.324.854.854 0 0 1 .467-.025c.343.066.699.283.913.51m-4.856-.106a.134.134 0 0 1-.004.002l-.05-.114m.054.112.004-.002-.059-.11m4.91.218V6.56l.092-.084m-.091.085.091-.085m0 0c-.458-.487-1.514-.93-1.927-.133-.184.354-.734.31-.918 0a.734.734 0 0 0-.251-.273h-.047l.011-.021c-.521-.29-1.38.076-1.87.294m0 0c-.826.442-1.652.84-2.616.62m0 0c-.203-.047-.424-.138-.648-.23-.64-.262-1.307-.535-1.647.185l-.123.256c-.303.638-.558 1.172-1.207 1.602-.643.398-1.423.62-2.203.531m0 0c-.39-.04-.744-.212-1.093-.383-.432-.21-.858-.418-1.34-.37m-14.043 6.99c-.596.665-1.606 1.151-2.203.178-.1-.194-.14-.422-.178-.65-.05-.293-.1-.586-.28-.81m0 0c-.368-.398-1.056-.31-1.423-.044-.408.272-.601.668-.8 1.075-.092.189-.186.38-.302.562-.321.398-.872.619-1.33.31-.259-.175-.314-.434-.37-.697-.043-.205-.087-.413-.227-.587m0 0c-.23-.265-.734-.31-1.01-.044-.55.487-1.33-.31-.826-.796m3.167.442c.367-.575.826-1.106 1.514-1.371m4.91 1.061c.117.038.217.107.314.174.133.092.262.18.421.18m0 0c.139-.026.31-.118.476-.205.108-.058.213-.114.304-.149M62.8 8.29c.528.274 1.164.029 1.716-.184.072-.028.143-.056.212-.081l.186-.065c.589-.205 1.21-.422 1.833-.422.551.034 1 .241 1.46.455.153.071.307.143.468.209m0 0c.596.221 1.239.133 1.79-.177M51.28 15.279l.06-.062c.007.011.014.025.017.043l.001.003a.209.209 0 0 1-.078.016Zm0 0 .04-.084a.113.113 0 0 0-.032-.021H51.28a.106.106 0 0 0-.042.016.243.243 0 0 0 .043.09Zm41.507 5.677c.192-.37.295-.755.194-1.192m-.194 1.192.194-1.192m0 0v-.003m0 .003v-.003m0 0a1.6 1.6 0 0 0-.298-.577m.297.576-.297-.576m0 0a1.15 1.15 0 0 0-.282-.243m.282.243-.282-.243m0 0-.053-.034m.052.034-.052-.034m0 0a1.25 1.25 0 0 1-.182-.134m.182.134-.182-.134m0 0c-.035-.033-.055-.092-.066-.195m.066.195-.066-.195m0 0a2.299 2.299 0 0 1-.008-.095m.008.095-.008-.095m0 0-.004-.06m.004.06-.004-.06m0 0a1.002 1.002 0 0 0-.025-.167m.025.167-.025-.167m0 0a1.17 1.17 0 0 0-.31-.545m.31.545-.31-.545m0 0c-.356-.343-.856-.435-1.293-.388l1.293.388Zm-7.554-.433a5.71 5.71 0 0 1-.007.04l-.033-.032.04-.008Zm.848.864.102-.022-.025.096-.077-.074Zm.3-.966a9.21 9.21 0 0 0-.13.022 7.26 7.26 0 0 0 .018-.13c.043-.008.086-.015.13-.021l-.018.13Zm-5.38-11.932a1.892 1.892 0 0 0-.108.08c.037.023.074.048.109.074.035-.026.07-.052.108-.075a1.694 1.694 0 0 0-.109-.079Zm4.809 8.32.117-.045a7.237 7.237 0 0 0-.048-.115l-.117.044.048.116Zm1.933-2.31c-.045-.576-.413-.974-.871-1.283l.871 1.283Zm-27.765 7.425c.002 0 .003-.002.005-.003a.165.165 0 0 1-.002.01c-.002.005-.003.006-.003 0-.006 0-.005-.003 0-.007Zm-6.093-3.52-.002-.003a.83.83 0 0 0 .043.036.111.111 0 0 1-.041-.033ZM82.41 5.17h-.001l-.06.11.061-.11Zm6.61 12.553h-.002l.032.121-.03-.121Z"/><path fill="#fff" stroke="#fff" stroke-width=".25" d="M41.308 13.43c-.02.001-.04 0-.058-.003v-.002l-.002.001a.213.213 0 0 1-.07-.026.321.321 0 0 1-.112-.126c-.125-.24-.418-.323-.657-.298-.241.025-.507.17-.541.471a1.61 1.61 0 0 1-.11.363 1.604 1.604 0 0 0-.053-.043c-.594-.522-1.285-.515-1.978-.425h-.001c-.32.044-.593.035-.778-.108a1.301 1.301 0 0 1-.266-.309l-.063-.095c-.062-.095-.129-.196-.2-.282-.458-.616-1.091-.818-1.728-1.02l-.122-.04h-.004c-3.36-.977-6.81-1.553-10.306-1.775h-.002a66.535 66.535 0 0 0-5.15-.089c-1.248.045-2.605.268-3.688.948-.522.32-.95.778-1.234 1.28-.063.098-.12.221-.176.347l-.05.116c-.04.093-.08.187-.124.279-.062.13-.127.248-.198.343a.572.572 0 0 1-.22.192l-.006.003a.343.343 0 0 1-.287.006c-.08-.03-.155-.075-.24-.126l-.09-.053-.008-.004a2.277 2.277 0 0 0-.972-.234h-.01a1.686 1.686 0 0 0-1.34.908c-.338.651-.383 1.42-.295 2.174.088.754.309 1.505.516 2.126v.003a10.463 10.463 0 0 0 2.21 3.634 1.46 1.46 0 0 0-.243.792c0 .432.175.799.353 1.137l.064.12c.16.3.308.578.365.89l.002.005c.086.374.038.77-.201 1.038a.67.67 0 0 1-.42.231c-.078.013-.16.017-.253.02l-.027.001a3.843 3.843 0 0 0-.27.016c-.494.002-.865.208-1.177.486-.212.188-.405.418-.592.641-.082.099-.164.196-.245.287a393.49 393.49 0 0 0-1.928 2.213c-.643.741-1.285 1.482-1.927 2.211l-.001.002c-.198.232-.412.47-.632.712-.355.394-.722.801-1.052 1.222-.539.686-.999 1.433-1.188 2.277-.368 1.525.07 3.044.672 4.455-.072-.005-.144-.014-.218-.022a8.484 8.484 0 0 0-.09-.01 1.934 1.934 0 0 0-.489-.006l-.01.002c-.44.1-.716.411-.913.757-.1.173-.18.359-.254.537l-.072.181c-.046.114-.088.221-.133.322-.206.462-.423.914-.641 1.368-.218.453-.436.907-.643 1.373-.068.139-.15.287-.237.447l-.044.08c-.103.189-.211.39-.305.596-.186.41-.326.86-.25 1.296.076.444.405.811.764 1.119a9.15 9.15 0 0 0 .638.49c.158.115.306.222.432.325h.001c.39.31.778.63 1.169.95.39.321.78.642 1.172.953l.05.04c.533.429 1.191.959 1.993 1.004.725.047 1.415-.233 1.811-.854l.004-.006a.596.596 0 0 0 .045-.512.706.706 0 0 0-.31-.354.691.691 0 0 0-.46-.09.581.581 0 0 0-.411.303l-.002.004a.49.49 0 0 1-.226.233.554.554 0 0 1-.314.034c-.252-.035-.557-.187-.875-.397a9.205 9.205 0 0 1-.896-.698c-.107-.092-.209-.182-.3-.263a8.908 8.908 0 0 0-.32-.277l-.872-.707-.001-.002c-.287-.231-.573-.463-.87-.706h-.001c-.096-.077-.206-.151-.31-.222a8.644 8.644 0 0 1-.144-.098 1.383 1.383 0 0 1-.348-.318c-.104-.15-.093-.312-.025-.5.034-.094.081-.188.13-.286.005-.008.01-.017.013-.025.044-.086.09-.175.123-.26.417-.834.815-1.667 1.219-2.512.217-.455.436-.914.66-1.377.026-.05.054-.12.082-.188l.003-.008c.028-.07.057-.143.09-.211.032-.072.066-.134.098-.178a.267.267 0 0 1 .042-.047.056.056 0 0 1 .016-.01l.009-.003c.004 0 .02 0 .057.01.04.013.089.034.14.06a2.953 2.953 0 0 1 .165.092c.036.02.071.041.096.053l.01.004c.235.091.457.152.683.158.229.006.455-.044.7-.162.363-.174.397-.619.242-.92-.436-.906-.864-1.888-1.033-2.875-.168-.984-.077-1.967.52-2.885.464-.707 1.059-1.351 1.653-1.994l.309-.335.002-.002c.734-.84 1.469-1.682 2.158-2.523.733-.84 1.469-1.682 2.158-2.524l.002-.002c.03-.038.057-.075.085-.114.047-.065.095-.13.151-.196.09-.101.169-.161.24-.175l.01-.002.011-.004a.807.807 0 0 1 .341-.025l.133.012c.1.01.209.021.307.021h.015a1.986 1.986 0 0 0 1.026-.425c.73-.564.968-1.407.873-2.279-.048-.509-.24-.968-.473-1.374l-.05-.09c-.062-.11-.147-.262-.2-.412a.502.502 0 0 1-.04-.226.07.07 0 0 1 .016-.04c.007-.005.02-.016.052-.023a.662.662 0 0 0 .49-.487c.061-.22.025-.482-.154-.655-.907-.875-1.676-1.922-2.127-3.095v-.003a11.133 11.133 0 0 1-.556-1.695c-.136-.6-.19-1.199-.08-1.727v-.002c.046-.242.109-.39.192-.458.067-.056.182-.084.415.018l.018.008c.491.215 1.04.456 1.639.215.544-.214.849-.62 1.09-1.044.07-.126.14-.26.207-.39a15.5 15.5 0 0 1 .129-.247c.11-.207.226-.4.367-.566l.002-.003c.302-.374.738-.628 1.23-.807.492-.177 1.031-.275 1.532-.341 1.369-.132 2.739-.132 4.066-.088 3.067.088 6.134.485 9.156 1.147.828.178 1.65.354 2.425.574h.001a5.109 5.109 0 0 0 .296.07l.23.052c.174.044.33.095.45.172.198.128.314.303.452.513.034.051.07.105.109.16v.001l.003.004c.38.503.867.886 1.556.934.197.024.39.011.574-.005l.114-.011c.146-.014.285-.027.426-.027.031 0 .203.02.356.061.069.02.122.04.155.059a.6.6 0 0 0 .14.732.71.71 0 0 0 .778.109c.462-.21.8-.536 1.034-.926.19.064.396.097.611.097.312 0 .612-.148.843-.282.104-.06.209-.153.301-.235l.063-.055c.088-.077.16-.132.224-.161l.013.033c.014.041.028.086.042.133l.024.076c.023.071.049.147.077.203l.006.01.007.009c.153.196.355.342.604.438l.01.003c.261.076.518.04.718-.093a.836.836 0 0 0 .36-.635v-.023c-.03-.325-.33-.506-.595-.544a.79.79 0 0 0-.154-.007 1.105 1.105 0 0 0-.091-.248c-.094-.18-.197-.336-.36-.442-.262-.2-.572-.246-.872-.198l-.012.002c-.149.04-.314.14-.47.242l-.145.096c-.115.077-.227.152-.34.217-.16.092-.297.147-.405.15Z"/><mask id="b" width="3" height="2" x="6.132" y="49.45" fill="#000" maskUnits="userSpaceOnUse"><path fill="#fff" d="M6.132 49.45h3v2h-3z"/><path d="M7.407 50.982c0-.044-.046-.044-.092-.044.046.044.138.044.184.044h.046c-.092 0-.184-.044-.23-.044.046.044.092.088.138.088h.275c.046 0 .046 0 .092-.044-.046 0-.046 0-.092.044h.046c.046 0 .046 0 .092-.044.046 0 .046-.044.092-.089.046-.044.092-.133.046-.177 0-.044 0-.088-.046-.133 0-.044-.046-.044-.092-.088-.046-.045-.046-.045-.092-.045h-.137c-.092 0-.138 0-.184.045 0 0-.046 0-.046.044-.046 0-.046.044-.092.044a.332.332 0 0 0-.091.222c.046-.044.046-.133.091-.177l-.091.088c-.046.044-.046.133-.046.177v-.133c-.046.045-.046.089-.046.133 0 .045 0 .133.046.178h.092c.045-.045.091-.045.137-.09Z"/></mask><path fill="#fff" d="M7.407 50.982c0-.044-.046-.044-.092-.044.046.044.138.044.184.044h.046c-.092 0-.184-.044-.23-.044.046.044.092.088.138.088h.275c.046 0 .046 0 .092-.044-.046 0-.046 0-.092.044h.046c.046 0 .046 0 .092-.044.046 0 .046-.044.092-.089.046-.044.092-.133.046-.177 0-.044 0-.088-.046-.133 0-.044-.046-.044-.092-.088-.046-.045-.046-.045-.092-.045h-.137c-.092 0-.138 0-.184.045 0 0-.046 0-.046.044-.046 0-.046.044-.092.044a.332.332 0 0 0-.091.222c.046-.044.046-.133.091-.177l-.091.088c-.046.044-.046.133-.046.177v-.133c-.046.045-.046.089-.046.133 0 .045 0 .133.046.178h.092c.045-.045.091-.045.137-.09Z"/><path fill="#fff" d="M7.407 51.107a.178.178 0 0 0 .09-.024c.023-.013.039-.03.043-.033.007-.007.003-.002-.006.003a.073.073 0 0 1-.035.01v-.25a.177.177 0 0 0-.09.023c-.022.013-.039.03-.043.034-.007.007-.002.001.006-.003a.073.073 0 0 1 .035-.01v.25Zm0-.125.174.18.077-.074v-.106h-.25Zm-.092-.044v-.25h-.62l.446.43.174-.18Zm.505.044.174.18.446-.43h-.62v.25Zm.046 0v-.25h-.101l-.073.07.174.18Zm.138-.266h-.25v.106l.076.074.174-.18Zm-.046-.133h-.25v.107l.076.074.174-.18Zm-.505-.088v.25h.101l.073-.07-.174-.18Zm-.046.044v.25h.25v-.25h-.25Zm-.092.044v-.25h-.1l-.074.07.174.18Zm-.091.222h-.25v.59l.424-.41-.174-.18Zm-.046-.044h.25v-.59l-.424.41.174.18Zm0 .31-.174.18.073.07h.1v-.25Zm.092 0v.25h.1l.073-.07-.173-.18Zm.388-.09a.29.29 0 0 0-.203-.276c-.063-.02-.13-.018-.14-.018v.501H7.333h-.007a.21.21 0 0 1-.121-.074.212.212 0 0 1-.048-.132h.5Zm-.517.137a.419.419 0 0 0 .226.106c.057.009.11.008.132.008v-.5l-.03-.001a.207.207 0 0 1-.022-.002c-.005 0-.004-.001.002.001.006.003.022.01.04.027l-.348.36Zm.358.114h.046v-.5h-.046v.5Zm.046-.5a.283.283 0 0 1-.066-.014l-.06-.016a.427.427 0 0 0-.104-.015v.501c-.021 0-.033-.004-.018 0l.05.013a.749.749 0 0 0 .198.031v-.5Zm-.404.386c.02.019.056.054.096.083a.37.37 0 0 0 .216.076v-.501c.03 0 .051.007.063.012l.015.008a1.275 1.275 0 0 1-.042-.038l-.348.36Zm.312.159H7.545v-.501H7.453v.5Zm.092 0h.046v-.501h-.046v.5Zm.046 0H7.683v-.501H7.59v.5Zm.092 0h.045v-.501h-.045v.5Zm.045 0c.007 0 .03 0 .052-.002a.3.3 0 0 0 .177-.078l.037-.035-.348-.36-.013.013-.004.003.01-.007a.19.19 0 0 1 .093-.035h.007-.01v.5Zm.092-.546c-.007 0-.03 0-.051.002a.301.301 0 0 0-.178.079.891.891 0 0 0-.036.034l.347.36a2.236 2.236 0 0 1 .018-.016l-.01.007a.19.19 0 0 1-.093.035H7.81h.01v-.5Zm-.092.546h.046v-.501h-.046v.5Zm.046 0c.007 0 .03 0 .052-.002a.3.3 0 0 0 .177-.078l.037-.035-.348-.36a.816.816 0 0 1-.013.013l-.004.003.01-.007a.196.196 0 0 1 .093-.035h.007-.01v.5Zm.092-.045a.296.296 0 0 0 .252-.135c.03-.044.015-.024.014-.023l-.348-.36a.457.457 0 0 0-.067.084.2.2 0 0 1 .15-.067v.501Zm.266-.158a.49.49 0 0 0 .12-.188c.023-.066.055-.226-.074-.35l-.348.36a.188.188 0 0 1-.057-.116.136.136 0 0 1 .006-.057c.003-.009.003-.008.005-.01l.348.36Zm.122-.358c0-.05.004-.19-.122-.313l-.348.36a.118.118 0 0 1-.028-.051c-.003-.008-.003-.013-.003-.013v.017h.501Zm-.046-.133a.293.293 0 0 0-.143-.255c-.045-.029-.026-.014-.025-.014l-.348.361a.474.474 0 0 0 .072.057l.023.014a.106.106 0 0 1 .007.004l-.014-.01a.202.202 0 0 1-.063-.097.202.202 0 0 1-.01-.06h.501Zm-.168-.268-.037-.035a.303.303 0 0 0-.177-.078c-.022-.002-.045-.002-.052-.002v.5h.01-.006a.197.197 0 0 1-.103-.042l.004.004.013.013.348-.36Zm-.266-.115H7.636v.5H7.775v-.5Zm-.137 0c-.071 0-.227-.011-.358.114l.348.361a.108.108 0 0 1-.052.027h.01l.021-.001h.03V50.2Zm-.184.295v-.25h-.019a.344.344 0 0 0-.113.03.29.29 0 0 0-.164.264h.5a.207.207 0 0 1-.118.187.19.19 0 0 1-.07.019h-.015v-.25Zm-.046-.206a.31.31 0 0 0-.153.04c-.037.022-.064.05-.067.052-.009.008.007-.008.03-.021a.205.205 0 0 1 .098-.027v.5a.307.307 0 0 0 .153-.04c.038-.022.065-.05.067-.052.01-.008-.006.008-.03.022a.201.201 0 0 1-.098.026v-.5Zm-.266.114a.582.582 0 0 0-.168.402h.501l.001-.009a.095.095 0 0 1 .014-.032c.003-.003.003-.003 0 0l-.348-.36Zm.257.582a.384.384 0 0 0 .08-.114c.013-.03.023-.059.028-.073a.985.985 0 0 1 .007-.019l.002-.005s-.007.016-.026.034l-.348-.36a.383.383 0 0 0-.08.113c-.013.03-.023.06-.028.073a.985.985 0 0 1-.007.019l-.002.005s.008-.016.026-.034l.348.361Zm-.257-.538-.045.045c-.012.01-.023.022-.046.044l.348.36.045-.044.046-.044-.348-.36Zm-.091.089a.408.408 0 0 0-.113.226c-.01.057-.01.11-.01.131h.501a.601.601 0 0 1 .002-.046l-.002.007a.133.133 0 0 1-.03.042l-.348-.36Zm.378.357V50.76h-.5V50.894h.5Zm-.424-.313c-.127.122-.123.264-.123.313h.501v-.017l-.002.014a.12.12 0 0 1-.028.05l-.348-.36Zm-.123.313c0 .021 0 .074.01.132a.407.407 0 0 0 .113.226l.348-.36a.132.132 0 0 1 .03.042l.002.006a.592.592 0 0 1-.002-.046h-.5Zm.297.428H7.27v-.501H7.177v.5Zm.265-.07c-.008.008-.019.012.004 0 .023-.01.08-.036.134-.089l-.348-.36c.01-.009.02-.013-.003-.001-.023.01-.08.036-.134.09l.347.36Z" mask="url(#b)"/><path fill="#fff" stroke="#fff" stroke-width=".25" d="m8.475 51.52.003.002.034.027c.262.211.592.477.972.57.402.144.8.092 1.188-.094.07-.029.134-.058.192-.084.232-.107.387-.178.633-.09l.006.003c.255.077.477.185.704.295.09.044.18.088.273.13.322.147.664.267 1.082.244.106 0 .208-.026.295-.047l.006-.001c.095-.023.172-.04.246-.04.134 0 .227.035.323.088a2.471 2.471 0 0 1 .16.098c.057.036.122.074.197.11l.007.003c.34.141.684.189 1.028.142.16-.022.32-.062.472-.1l.027-.007a3.54 3.54 0 0 1 .461-.092.886.886 0 0 1 .389.031c.113.04.222.114.323.25l.001.002c.132.175.238.353.347.536.038.064.076.13.117.195.15.246.32.491.563.703.593.523 1.424.566 2.1.289.4-.13.757-.377 1.058-.585l.07-.049.108-.072c.28-.188.583-.391.72-.786a.457.457 0 0 0-.094-.468.59.59 0 0 0-.43-.185 1.128 1.128 0 0 0-.666.156 3.784 3.784 0 0 0-.556.402c-.362.293-.69.543-1.114.504h-.003c-.266-.019-.454-.181-.617-.417a3.722 3.722 0 0 1-.256-.444c-.058-.11-.116-.222-.177-.32l-.002-.002c-.33-.501-.77-.933-1.464-1.028a2.066 2.066 0 0 0-.538.01 7.852 7.852 0 0 0-.26.04l-.024.004c-.077.012-.15.024-.222.034l-.006.001-.149.03c-.16.032-.278.056-.396.056-.138 0-.276-.035-.465-.157l-.004-.002a2.046 2.046 0 0 0-.55-.246 1.778 1.778 0 0 0-.627-.036h-.002c-.094.01-.18.022-.258.033-.284.039-.492.067-.787-.026a5.554 5.554 0 0 1-.497-.244 7.17 7.17 0 0 0-.424-.212c-.32-.143-.668-.242-1.07-.17-.185.026-.352.115-.5.197l-.042.024c-.136.076-.256.143-.384.179-.189.035-.376-.018-.57-.112a4.341 4.341 0 0 1-.294-.16l-.01-.006c-.093-.054-.188-.11-.282-.155-.28-.135-.62-.266-.945-.278-.334-.012-.658.102-.87.46l-.003.006a.284.284 0 0 0 0 .259.272.272 0 0 0 .25.145c.47 0 .856.164 1.203.457Z"/><path fill="#fff" stroke="#fff" stroke-width=".25" d="m22.123 53.36.009-.002.008-.004c.775-.307 1.451-.524 2.307-.61l.002-.001c.306-.035.605-.056.906-.077l.236-.016c.38-.028.763-.062 1.159-.13 1.337-.221 2.724-.717 3.35-1.969l.002-.005c.035-.08.068-.162.099-.242.032-.082.063-.16.096-.234.066-.15.139-.276.236-.37l.007-.007c.106-.12.24-.158.407-.168a3.008 3.008 0 0 1 .272-.001c.092.001.192.002.29-.01.342-.001.684-.096.978-.285l.004-.002c.17-.117.291-.277.398-.416l.02-.026c.117-.151.217-.274.351-.348.142-.078.308-.12.492-.146.11-.016.214-.026.321-.036.078-.007.158-.014.242-.024a7.224 7.224 0 0 0 1.35-.27c.173-.044.343-.09.51-.136.692-.191 1.346-.371 2.061-.302h.004c.981.065 1.845.452 2.675.94.355.209.702.434 1.05.66l.178.116c.406.263.814.523 1.232.747l.005.003a.477.477 0 0 0 .601-.137.441.441 0 0 0-.044-.595c-1.161-1.252-2.833-2.328-4.557-2.732a6 6 0 0 0-2.529-.135h-.001c-.401.07-.782.175-1.154.278l-.308.084c-.474.126-.945.234-1.459.256h-.001c-.448.022-.8.102-1.112.262-.312.16-.576.393-.856.708-.166.18-.303.242-.452.27-.08.015-.165.02-.267.025l-.056.002a5.61 5.61 0 0 0-.285.016c-.386 0-.734.095-1.035.335-.323.24-.506.574-.666.895l-.054.107c-.143.289-.277.56-.487.78l-.004.004c-.475.542-1.171.757-1.906.934a12.273 12.273 0 0 1-1.367.158c-.427.035-.869.071-1.299.14-.914.144-1.8.438-2.403 1.2a.264.264 0 0 0-.083.235c.015.084.07.146.124.187a.533.533 0 0 0 .19.089.456.456 0 0 0 .213.005ZM124.272 43.11l-.005.016-.002.016c-.046.575-.092 1.15-.137 1.77h-.001v.01c0 .126-.011.265-.022.41l-.001.002c-.011.142-.023.29-.023.428 0 .06-.005.124-.011.195-.005.07-.012.145-.012.22 0 .15.025.318.144.461h-.001l.01.01c.052.05.121.069.179.069a.259.259 0 0 0 .179-.069c.126-.121.163-.293.175-.445.009-.104.006-.219.003-.319l-.002-.122V43.169a.19.19 0 0 0-.045-.178.219.219 0 0 0-.161-.064.283.283 0 0 0-.267.184Z"/><path fill="#fff" stroke="#fff" stroke-width=".25" d="m124.84 45.883.006.007.006.006a.354.354 0 0 0 .242.101.254.254 0 0 0 .225-.122.622.622 0 0 0 .118-.355 1.983 1.983 0 0 0-.001-.173l-.001-.034c-.002-.044-.004-.085-.004-.127V44.567c0-.226-.011-.439-.023-.648v-.001c-.011-.21-.023-.418-.023-.635a.251.251 0 0 0-.086-.194.273.273 0 0 0-.176-.064c-.06 0-.125.02-.177.063a.252.252 0 0 0-.086.188l-.011.105c-.042.399-.081.773-.081 1.185 0 .103-.011.207-.022.313l-.003.02c-.01.096-.021.196-.021.286 0 .042-.002.084-.004.127l-.001.034a1.983 1.983 0 0 0-.001.172c.007.12.034.248.124.364ZM85.444 15.964a.385.385 0 0 0 .092-.175.857.857 0 0 0 .015-.193V15.147c0-.127.01-.266.022-.41v-.003c.012-.14.023-.287.024-.423.046-.578.046-1.156.046-1.772v-.033l-.014-.027a.25.25 0 0 0-.22-.134.207.207 0 0 0-.132.045.186.186 0 0 0-.068.14c-.046.574-.092 1.152-.092 1.732 0 .127-.011.265-.023.41v.003c-.011.142-.023.29-.023.427V15.544c0 .028-.002.056-.005.089v.004c-.004.03-.007.066-.007.101 0 .068.012.152.071.224.014.03.036.052.059.067.033.022.07.028.099.028.03 0 .066-.006.1-.028a.159.159 0 0 0 .056-.065ZM11.506 19.04v.009l.069 1.017.069 1.018v.007c.023.173.034.335.046.502v.001c.011.165.023.334.046.515v.002c.011.072.017.145.022.222 0 .01 0 .02.002.03.004.066.008.135.016.203.018.152.053.312.151.462a.158.158 0 0 0 .064.08c.033.021.07.028.099.028.029 0 .066-.007.099-.028a.155.155 0 0 0 .07-.106c.095-.333.046-.662.002-.96l-.001-.01c-.023-.173-.034-.335-.045-.5v-.002a8.457 8.457 0 0 0-.046-.511c-.024-.333-.058-.665-.092-.995v-.001a28.756 28.756 0 0 1-.092-.991v-.017l-.006-.016a.267.267 0 0 0-.25-.184.224.224 0 0 0-.154.059.223.223 0 0 0-.07.166ZM12.3 20.177l-.013.027v.033c0 .572 0 1.106.046 1.684 0 .532.046 1.113.185 1.653.007.05.038.088.07.109.034.021.07.028.1.028.029 0 .065-.007.099-.028a.155.155 0 0 0 .07-.116c.071-.41.062-.85.053-1.262a18.717 18.717 0 0 1-.005-.39v-.01a21.854 21.854 0 0 1-.035-.541c-.021-.378-.042-.756-.105-1.15l-.003-.02-.01-.017a.252.252 0 0 0-.225-.134.252.252 0 0 0-.226.134Z"/><path fill="#fff" stroke="#141A19" d="m59.265 50.5-6.584-21h1.803c.183 0 .29.044.361.098l.011.008c.098.07.142.141.162.222l.002.01.004.011 4.565 15.283c.068.262.132.546.191.851l.002.008.001.007c.07.308.135.637.196.988l.983.013c.07-.352.141-.684.212-.995.079-.314.162-.594.248-.843l.001-.003 5.199-15.287a.606.606 0 0 1 .2-.254l.002-.002a.507.507 0 0 1 .344-.115h.864c.184 0 .28.044.334.088.093.075.165.17.216.293l5.18 15.277.001.003c.086.248.164.518.233.81l.001.008.002.007c.08.298.155.612.226.942l.983-.029c.05-.33.106-.645.166-.944.06-.295.123-.568.191-.82l4.581-15.285.003-.01a.474.474 0 0 1 .169-.234.556.556 0 0 1 .352-.106h1.65l-6.585 21h-1.957l-5.486-16.434a16.272 16.272 0 0 1-.145-.49c-.041-.185-.088-.38-.139-.583h-.97a23.078 23.078 0 0 1-.299 1.072L61.223 50.5h-1.958Z"/></g><defs><clipPath id="a"><path fill="#fff" d="M0 0h127v90H0z"/></clipPath></defs></svg>